  0
SECTION
  2
HEADER
  9
$ACADVER
  1
AC1015
  9
$ACADMAINTVER
 70
     6
  9
$DWGCODEPAGE
  3
ANSI_936
  9
$INSBASE
 10
0.0
 20
0.0
 30
0.0
  9
$EXTMIN
 10
-39.0
 20
-39.0
 30
0.0
  9
$EXTMAX
 10
39.0
 20
39.0
 30
0.0
  9
$LIMMIN
 10
0.0
 20
0.0
  9
$LIMMAX
 10
420.0
 20
297.0
  9
$ORTHOMODE
 70
     0
  9
$REGENMODE
 70
     1
  9
$FILLMODE
 70
     1
  9
$QTEXTMODE
 70
     0
  9
$MIRRTEXT
 70
     1
  9
$LTSCALE
 40
1.0
  9
$ATTMODE
 70
     1
  9
$TEXTSIZE
 40
3.5
  9
$TRACEWID
 40
1.0
  9
$TEXTSTYLE
  7
Standard
  9
$CLAYER
  8
0
  9
$CELTYPE
  6
ByLayer
  9
$CECOLOR
 62
   256
  9
$CELTSCALE
 40
1.0
  9
$DISPSILH
 70
     0
  9
$DIMSCALE
 40
1.0
  9
$DIMASZ
 40
4.08
  9
$DIMEXO
 40
0.0
  9
$DIMDLI
 40
3.75
  9
$DIMRND
 40
0.0
  9
$DIMDLE
 40
0.0
  9
$DIMEXE
 40
2.0
  9
$DIMTP
 40
0.0
  9
$DIMTM
 40
0.0
  9
$DIMTXT
 40
3.5
  9
$DIMCEN
 40
2.5
  9
$DIMTSZ
 40
0.0
  9
$DIMTOL
 70
     0
  9
$DIMLIM
 70
     0
  9
$DIMTIH
 70
     1
  9
$DIMTOH
 70
     1
  9
$DIMSE1
 70
     0
  9
$DIMSE2
 70
     0
  9
$DIMTAD
 70
     1
  9
$DIMZIN
 70
     0
  9
$DIMBLK
  1

  9
$DIMASO
 70
     1
  9
$DIMSHO
 70
     1
  9
$DIMPOST
  1

  9
$DIMAPOST
  1

  9
$DIMALT
 70
     0
  9
$DIMALTD
 70
     3
  9
$DIMALTF
 40
0.0393700787
  9
$DIMLFAC
 40
1.0
  9
$DIMTOFL
 70
     1
  9
$DIMTVP
 40
0.0
  9
$DIMTIX
 70
     0
  9
$DIMSOXD
 70
     0
  9
$DIMSAH
 70
     0
  9
$DIMBLK1
  1

  9
$DIMBLK2
  1

  9
$DIMSTYLE
  2
ISO-25
  9
$DIMCLRD
 70
     0
  9
$DIMCLRE
 70
     0
  9
$DIMCLRT
 70
     0
  9
$DIMTFAC
 40
1.0
  9
$DIMGAP
 40
1.524
  9
$DIMJUST
 70
     0
  9
$DIMSD1
 70
     0
  9
$DIMSD2
 70
     0
  9
$DIMTOLJ
 70
     0
  9
$DIMTZIN
 70
     0
  9
$DIMALTZ
 70
     0
  9
$DIMALTTZ
 70
     0
  9
$DIMUPT
 70
     0
  9
$DIMDEC
 70
     2
  9
$DIMTDEC
 70
     2
  9
$DIMALTU
 70
     2
  9
$DIMALTTD
 70
     3
  9
$DIMTXSTY
  7
Standard
  9
$DIMAUNIT
 70
     0
  9
$DIMADEC
 70
     2
  9
$DIMALTRND
 40
0.0
  9
$DIMAZIN
 70
     0
  9
$DIMDSEP
 70
    44
  9
$DIMATFIT
 70
     3
  9
$DIMFRAC
 70
     0
  9
$DIMLDRBLK
  1

  9
$DIMLUNIT
 70
     2
  9
$DIMLWD
 70
    -2
  9
$DIMLWE
 70
    -2
  9
$DIMTMOVE
 70
     0
  9
$LUNITS
 70
     2
  9
$LUPREC
 70
     2
  9
$SKETCHINC
 40
1.0
  9
$FILLETRAD
 40
0.0
  9
$AUNITS
 70
     0
  9
$AUPREC
 70
     2
  9
$MENU
  1
.
  9
$ELEVATION
 40
0.0
  9
$PELEVATION
 40
0.0
  9
$THICKNESS
 40
0.0
  9
$LIMCHECK
 70
     0
  9
$CHAMFERA
 40
0.0
  9
$CHAMFERB
 40
0.0
  9
$CHAMFERC
 40
0.0
  9
$CHAMFERD
 40
0.0
  9
$SKPOLY
 70
     0
  9
$TDCREATE
 40
2460533.865604757
  9
$TDUCREATE
 40
2460533.532271424
  9
$TDUPDATE
 40
2460533.865712616
  9
$TDUUPDATE
 40
2460533.532379283
  9
$TDINDWG
 40
0.0000000116
  9
$TDUSRTIMER
 40
0.0000000116
  9
$USRTIMER
 70
     1
  9
$ANGBASE
 50
0.0
  9
$ANGDIR
 70
     0
  9
$PDMODE
 70
     0
  9
$PDSIZE
 40
-1.0
  9
$PLINEWID
 40
0.0
  9
$SPLFRAME
 70
     0
  9
$SPLINETYPE
 70
     6
  9
$SPLINESEGS
 70
     8
  9
$HANDSEED
  5
126
  9
$SURFTAB1
 70
     6
  9
$SURFTAB2
 70
     6
  9
$SURFTYPE
 70
     6
  9
$SURFU
 70
     6
  9
$SURFV
 70
     6
  9
$UCSBASE
  2

  9
$UCSNAME
  2

  9
$UCSORG
 10
0.0
 20
0.0
 30
0.0
  9
$UCSXDIR
 10
1.0
 20
0.0
 30
0.0
  9
$UCSYDIR
 10
0.0
 20
1.0
 30
0.0
  9
$UCSORTHOREF
  2

  9
$UCSORTHOVIEW
 70
     0
  9
$UCSORGTOP
 10
0.0
 20
0.0
 30
0.0
  9
$UCSORGBOTTOM
 10
0.0
 20
0.0
 30
0.0
  9
$UCSORGLEFT
 10
0.0
 20
0.0
 30
0.0
  9
$UCSORGRIGHT
 10
0.0
 20
0.0
 30
0.0
  9
$UCSORGFRONT
 10
0.0
 20
0.0
 30
0.0
  9
$UCSORGBACK
 10
0.0
 20
0.0
 30
0.0
  9
$PUCSBASE
  2

  9
$PUCSNAME
  2

  9
$PUCSORG
 10
0.0
 20
0.0
 30
0.0
  9
$PUCSXDIR
 10
1.0
 20
0.0
 30
0.0
  9
$PUCSYDIR
 10
0.0
 20
1.0
 30
0.0
  9
$PUCSORTHOREF
  2

  9
$PUCSORTHOVIEW
 70
     0
  9
$PUCSORGTOP
 10
0.0
 20
0.0
 30
0.0
  9
$PUCSORGBOTTOM
 10
0.0
 20
0.0
 30
0.0
  9
$PUCSORGLEFT
 10
0.0
 20
0.0
 30
0.0
  9
$PUCSORGRIGHT
 10
0.0
 20
0.0
 30
0.0
  9
$PUCSORGFRONT
 10
0.0
 20
0.0
 30
0.0
  9
$PUCSORGBACK
 10
0.0
 20
0.0
 30
0.0
  9
$USERI1
 70
     0
  9
$USERI2
 70
     0
  9
$USERI3
 70
     0
  9
$USERI4
 70
     0
  9
$USERI5
 70
     0
  9
$USERR1
 40
0.0
  9
$USERR2
 40
0.0
  9
$USERR3
 40
0.0
  9
$USERR4
 40
0.0
  9
$USERR5
 40
0.0
  9
$WORLDVIEW
 70
     1
  9
$SHADEDGE
 70
     3
  9
$SHADEDIF
 70
    70
  9
$TILEMODE
 70
     1
  9
$MAXACTVP
 70
    64
  9
$PINSBASE
 10
0.0
 20
0.0
 30
0.0
  9
$PLIMCHECK
 70
     0
  9
$PEXTMIN
 10
1.0000000000E+20
 20
1.0000000000E+20
 30
1.0000000000E+20
  9
$PEXTMAX
 10
-1.0000000000E+20
 20
-1.0000000000E+20
 30
-1.0000000000E+20
  9
$PLIMMIN
 10
0.0
 20
0.0
  9
$PLIMMAX
 10
420.0
 20
297.0
  9
$UNITMODE
 70
     0
  9
$VISRETAIN
 70
     1
  9
$PLINEGEN
 70
     0
  9
$PSLTSCALE
 70
     1
  9
$TREEDEPTH
 70
  3020
  9
$CMLSTYLE
  2
Standard
  9
$CMLJUST
 70
     0
  9
$CMLSCALE
 40
20.0
  9
$PROXYGRAPHICS
 70
     1
  9
$MEASUREMENT
 70
     1
  9
$CELWEIGHT
370
    -1
  9
$ENDCAPS
280
     0
  9
$JOINSTYLE
280
     0
  9
$LWDISPLAY
290
     1
  9
$INSUNITS
 70
     4
  9
$HYPERLINKBASE
  1

  9
$STYLESHEET
  1

  9
$XEDIT
290
     1
  9
$CEPSNTYPE
380
     0
  9
$PSTYLEMODE
290
     1
  9
$FINGERPRINTGUID
  2
{1d2bb03e-08da-4cde-8b7b-bd34f5c1e7e4}
  9
$VERSIONGUID
  2
{FAEB1C32-E019-11D5-929B-00C0DF256EC4}
  9
$EXTNAMES
290
     1
  9
$PSVPSCALE
 40
0.0
  9
$OLESTARTUP
290
     0
  0
ENDSEC
  0
SECTION
  2
CLASSES
  0
CLASS
  1
ACDBDICTIONARYWDFLT
  2
AcDbDictionaryWithDefault
  3
ObjectDBX Classes
 90
        0
280
     0
281
     0
  0
CLASS
  1
VISUALSTYLE
  2
AcDbVisualStyle
  3
ObjectDBX Classes
 90
     4095
280
     0
281
     0
  0
CLASS
  1
MATERIAL
  2
AcDbMaterial
  3
ObjectDBX Classes
 90
     1153
280
     0
281
     0
  0
CLASS
  1
SCALE
  2
AcDbScale
  3
ObjectDBX Classes
 90
     1153
280
     0
281
     0
  0
CLASS
  1
TABLESTYLE
  2
AcDbTableStyle
  3
ObjectDBX Classes
 90
     4095
280
     0
281
     0
  0
CLASS
  1
MLEADERSTYLE
  2
AcDbMLeaderStyle
  3
ACDB_MLEADERSTYLE_CLASS
 90
     4095
280
     0
281
     0
  0
CLASS
  1
SUN
  2
AcDbSun
  3
SCENEOE
 90
     1153
280
     0
281
     0
  0
CLASS
  1
ACDBPLACEHOLDER
  2
AcDbPlaceHolder
  3
ObjectDBX Classes
 90
        0
280
     0
281
     0
  0
CLASS
  1
LAYOUT
  2
AcDbLayout
  3
ObjectDBX Classes
 90
        0
280
     0
281
     0
  0
ENDSEC
  0
SECTION
  2
TABLES
  0
TABLE
  2
VPORT
  5
8
330
0
100
AcDbSymbolTable
 70
     1
  0
VPORT
  5
29
330
8
100
AcDbSymbolTableRecord
100
AcDbViewportTableRecord
  2
*Active
 70
     0
 10
0.0
 20
0.0
 11
1.0
 21
1.0
 12
0.0
 22
0.0
 13
0.0
 23
0.0
 14
10.0
 24
10.0
 15
10.0
 25
10.0
 16
0.0
 26
0.0
 36
1.0
 17
0.0
 27
0.0
 37
0.0
 40
79.56
 41
1.0
 42
50.0
 43
0.0
 44
0.0
 50
0.0
 51
0.0
 71
     0
 72
   100
 73
     1
 74
     3
 75
     0
 76
     0
 77
     0
 78
     0
281
     0
 65
     1
110
0.0
120
0.0
130
0.0
111
1.0
121
0.0
131
0.0
112
0.0
122
1.0
132
0.0
 79
     0
146
0.0
  0
ENDTAB
  0
TABLE
  2
LTYPE
  5
5
330
0
100
AcDbSymbolTable
 70
     6
  0
LTYPE
  5
14
330
5
100
AcDbSymbolTableRecord
100
AcDbLinetypeTableRecord
  2
ByBlock
 70
     0
  3

 72
    65
 73
     0
 40
0.0
  0
LTYPE
  5
15
330
5
100
AcDbSymbolTableRecord
100
AcDbLinetypeTableRecord
  2
ByLayer
 70
     0
  3

 72
    65
 73
     0
 40
0.0
  0
LTYPE
  5
16
330
5
100
AcDbSymbolTableRecord
100
AcDbLinetypeTableRecord
  2
Continuous
 70
     0
  3
Solid line
 72
    65
 73
     0
 40
0.0
  0
LTYPE
  5
5E
330
5
100
AcDbSymbolTableRecord
100
AcDbLinetypeTableRecord
  2
HIDDEN
 70
     0
  3
Hidden __ __ __ __ __ __ __ __ __ __ __ __ __ __
 72
    65
 73
     2
 40
1.905
 49
1.27
 74
     0
 49
-0.635
 74
     0
  0
LTYPE
  5
5F
330
5
100
AcDbSymbolTableRecord
100
AcDbLinetypeTableRecord
  2
PHANTOM
 70
     0
  3
Phantom ______  __  __  ______  __  __  ______
 72
    65
 73
     6
 40
12.7
 49
6.35
 74
     0
 49
-1.27
 74
     0
 49
1.27
 74
     0
 49
-1.27
 74
     0
 49
1.27
 74
     0
 49
-1.27
 74
     0
  0
LTYPE
  5
60
330
5
100
AcDbSymbolTableRecord
100
AcDbLinetypeTableRecord
  2
CENTER
 70
     0
  3
Center ____ _ ____ _ ____ _ ____ _ ____ _ ____
 72
    65
 73
     4
 40
10.16
 49
6.35
 74
     0
 49
-1.27
 74
     0
 49
1.27
 74
     0
 49
-1.27
 74
     0
  0
LTYPE
  5
61
330
5
100
AcDbSymbolTableRecord
100
AcDbLinetypeTableRecord
  2
CENTERX2
 70
     0
  3
Center (2x) ________  __  ________  __  _____
 72
    65
 73
     4
 40
20.32
 49
12.7
 74
     0
 49
-2.54
 74
     0
 49
2.54
 74
     0
 49
-2.54
 74
     0
  0
LTYPE
  5
62
330
5
100
AcDbSymbolTableRecord
100
AcDbLinetypeTableRecord
  2
DOT2
 70
     0
  3
Dot (.5x) ........................................
 72
    65
 73
     2
 40
0.635
 49
0.0
 74
     0
 49
-0.635
 74
     0
  0
ENDTAB
  0
TABLE
  2
LAYER
  5
2
330
0
100
AcDbSymbolTable
 70
     1
  0
LAYER
  5
10
330
2
100
AcDbSymbolTableRecord
100
AcDbLayerTableRecord
  2
0
 70
     0
 62
     7
  6
Continuous
370
    -3
390
F
  0
ENDTAB
  0
TABLE
  2
STYLE
  5
3
330
0
100
AcDbSymbolTable
 70
     2
  0
STYLE
  5
11
330
3
100
AcDbSymbolTableRecord
100
AcDbTextStyleTableRecord
  2
Standard
 70
     0
 40
0.0
 41
1.0
 50
0.0
 71
     0
 42
3.5
  3
txt
  4

  0
STYLE
  5
123
330
3
100
AcDbSymbolTableRecord
100
AcDbTextStyleTableRecord
  2
SLDTEXTSTYLE0
 70
     0
 40
0.0
 41
0.7
 50
0.0
 71
     0
 42
3.5
  3
TXT
  4
bigfont
  0
ENDTAB
  0
TABLE
  2
VIEW
  5
6
330
0
100
AcDbSymbolTable
 70
     0
  0
ENDTAB
  0
TABLE
  2
UCS
  5
7
330
0
100
AcDbSymbolTable
 70
     0
  0
ENDTAB
  0
TABLE
  2
APPID
  5
9
330
0
100
AcDbSymbolTable
 70
     1
  0
APPID
  5
12
330
9
100
AcDbSymbolTableRecord
100
AcDbRegAppTableRecord
  2
ACAD
 70
     0
  0
ENDTAB
  0
TABLE
  2
DIMSTYLE
  5
A
330
0
100
AcDbSymbolTable
 70
     1
100
AcDbDimStyleTable
  0
DIMSTYLE
105
27
330
A
100
AcDbSymbolTableRecord
100
AcDbDimStyleTableRecord
  2
ISO-25
 70
     0
 41
2.5
 42
0.625
 43
3.75
 44
1.25
 73
     0
 74
     0
 77
     1
 78
     8
140
2.5
141
2.5
143
0.0393700787
147
0.625
171
     3
172
     1
178
     0
271
     2
272
     2
274
     3
278
    44
283
     0
284
     8
340
11
  0
ENDTAB
  0
TABLE
  2
BLOCK_RECORD
  5
1
330
0
100
AcDbSymbolTable
 70
     1
  0
BLOCK_RECORD
  5
1F
330
1
100
AcDbSymbolTableRecord
100
AcDbBlockTableRecord
  2
*Model_Space
340
22
  0
BLOCK_RECORD
  5
1B
330
1
100
AcDbSymbolTableRecord
100
AcDbBlockTableRecord
  2
*Paper_Space
340
1E
  0
BLOCK_RECORD
  5
23
330
1
100
AcDbSymbolTableRecord
100
AcDbBlockTableRecord
  2
*Paper_Space0
340
26
  0
ENDTAB
  0
ENDSEC
  0
SECTION
  2
BLOCKS
  0
BLOCK
  5
20
330
1F
100
AcDbEntity
  8
0
100
AcDbBlockBegin
  2
*Model_Space
 70
     0
 10
0.0
 20
0.0
 30
0.0
  3
*Model_Space
  1

  0
ENDBLK
  5
21
330
1F
100
AcDbEntity
  8
0
100
AcDbBlockEnd
  0
BLOCK
  5
1C
330
1B
100
AcDbEntity
 67
     1
  8
0
100
AcDbBlockBegin
  2
*Paper_Space
 70
     0
 10
0.0
 20
0.0
 30
0.0
  3
*Paper_Space
  1

  0
ENDBLK
  5
1D
330
1B
100
AcDbEntity
 67
     1
  8
0
100
AcDbBlockEnd
  0
BLOCK
  5
24
330
23
100
AcDbEntity
  8
0
100
AcDbBlockBegin
  2
*Paper_Space0
 70
     0
 10
0.0
 20
0.0
 30
0.0
  3
*Paper_Space0
  1

  0
ENDBLK
  5
25
330
23
100
AcDbEntity
  8
0
100
AcDbBlockEnd
  0
ENDSEC
  0
SECTION
  2
ENTITIES
  0
LWPOLYLINE
  5
63
330
1F
100
AcDbEntity
  8
0
  6
Continuous
 62
     7
100
AcDbPolyline
 90
      160
 70
   128
 43
0.0
 10
-22.9026526213
 20
33.5203364208
 10
-22.9065130584
 20
33.4471630053
 10
-22.9180667556
 20
33.3801515616
 10
-22.9365526711
 20
33.3200723363
 10
-22.9635112979
 20
33.2669253292
 10
-22.9966318965
 20
33.2191700476
 10
-23.0359144669
 20
33.1760362447
 10
-23.0790482697
 20
33.1375239208
 10
-23.1283440443
 20
33.1028628292
 10
-23.2408000303
 20
33.0443240969
 10
-23.3686609458
 20
32.9965688152
 10
-23.5088458049
 20
32.9565159983
 10
-23.6536521429
 20
32.9187739208
 10
-23.6536521429
 20
32.9187739208
 10
-23.851605488
 20
32.8671674067
 10
-24.0457076007
 20
32.8093989208
 10
-24.1396776711
 20
32.7770485687
 10
-24.2282560162
 20
32.7385362447
 10
-24.3114426359
 20
32.6946321954
 10
-24.3892375303
 20
32.6453364208
 10
-24.4608704528
 20
32.5891084278
 10
-24.525571157
 20
32.5244077236
 10
-24.5833396429
 20
32.4520045546
 10
-24.6334056641
 20
32.3718989208
 10
-24.6742287274
 20
32.2817800828
 10
-24.7034980936
 20
32.1793373011
 10
-24.7204435162
 20
32.0653408222
 10
-24.726605488
 20
31.9390203997
 10
-24.726605488
 20
31.9390203997
 10
-24.7196732697
 20
31.8088487447
 10
-24.6981063683
 20
31.6879200476
 10
-24.6626750303
 20
31.5762343081
 10
-24.6133792556
 20
31.4737915264
 10
-24.5517595373
 20
31.3805917025
 10
-24.4808968612
 20
31.2958645898
 10
-24.3992507345
 20
31.2196101884
 10
-24.3075914035
 20
31.1518284983
 10
-24.2074593612
 20
31.0932897659
 10
-24.1011653472
 20
31.0424534983
 10
-23.9871688683
 20
31.0000899419
 10
-23.8670104176
 20
30.9654288504
 10
-23.740689995
 20
30.9384702236
 10
-23.6089778472
 20
30.9199843081
 10
-23.470333481
 20
30.9084306109
 10
-23.3262973894
 20
30.9045793785
 10
-23.3262973894
 20
30.9045793785
 10
-23.1899637627
 20
30.9092008574
 10
-23.0497789035
 20
30.9215248011
 10
-22.9111345373
 20
30.9415512095
 10
-22.7794223894
 20
30.9669693433
 10
-22.6569531993
 20
30.9977792025
 10
-22.5468079528
 20
31.032440294
 10
-22.4536081288
 20
31.069412125
 10
-22.3827454528
 20
31.106383956
 10
-22.3827454528
 20
31.106383956
 10
-22.3827454528
 20
31.4961286743
 10
-22.3827454528
 20
31.4961286743
 10
-22.4821072486
 20
31.453765118
 10
-22.5930227415
 20
31.415252794
 10
-22.7124109458
 20
31.3821321954
 10
-22.8348801359
 20
31.3536330757
 10
-22.9604303119
 20
31.3312959278
 10
-23.0867507345
 20
31.3135802588
 10
-23.2107604176
 20
31.3027968081
 10
-23.3262973894
 20
31.2989455757
 10
-23.3262973894
 20
31.2989455757
 10
-23.504224326
 20
31.3066480405
 10
-23.6729083049
 20
31.3289851884
 10
-23.7530139387
 20
31.3467008574
 10
-23.8284980936
 20
31.3698082518
 10
-23.8985905232
 20
31.397537125
 10
-23.9632912274
 20
31.4298874771
 10
-24.0226002063
 20
31.4683998011
 10
-24.0749769669
 20
31.5138443433
 10
-24.1211917556
 20
31.5646806109
 10
-24.160474326
 20
31.6224490969
 10
-24.1928246781
 20
31.6879200476
 10
-24.215161826
 20
31.7603232166
 10
-24.2290262627
 20
31.8411990969
 10
-24.2336477415
 20
31.9290071954
 10
-24.2336477415
 20
31.9290071954
 10
-24.2297965091
 20
32.0037211039
 10
-24.2182428119
 20
32.0707325476
 10
-24.1982164035
 20
32.1315820194
 10
-24.1704875303
 20
32.1854992729
 10
-24.1365966852
 20
32.2340248011
 10
-24.0973141148
 20
32.2779288504
 10
-24.052639819
 20
32.3172114208
 10
-24.0025737979
 20
32.3526427588
 10
-23.8901178119
 20
32.4127219842
 10
-23.7607164035
 20
32.4604772659
 10
-23.6205315443
 20
32.5005300828
 10
-23.4726442204
 20
32.5382721602
 10
-23.4726442204
 20
32.5382721602
 10
-23.2754611218
 20
32.5875679349
 10
-23.0821292556
 20
32.6430256814
 10
-22.9889294317
 20
32.6753760335
 10
-22.9011213331
 20
32.7131181109
 10
-22.8187049598
 20
32.7562519138
 10
-22.7409100655
 20
32.8047774419
 10
-22.6700473894
 20
32.8602351884
 10
-22.6061169317
 20
32.9233953997
 10
-22.5498889387
 20
32.9942580757
 10
-22.5005931641
 20
33.0720529701
 10
-22.4605403472
 20
33.1590908222
 10
-22.4328114739
 20
33.258452618
 10
-22.4150958049
 20
33.367827618
 10
-22.4097040796
 20
33.4895265616
 10
-22.4097040796
 20
33.4895265616
 10
-22.4166362979
 20
33.6173874771
 10
-22.4366627063
 20
33.7352351884
 10
-22.4697833049
 20
33.8446101884
 10
-22.5167683401
 20
33.9439719842
 10
-22.574536826
 20
34.0356313152
 10
-22.6415482697
 20
34.1180476884
 10
-22.7178026711
 20
34.1927615969
 10
-22.8025297838
 20
34.259002794
 10
-22.8941891148
 20
34.3175415264
 10
-22.9904699246
 20
34.3676075476
 10
-23.0913722134
 20
34.4092008574
 10
-23.196895981
 20
34.4430917025
 10
-23.306270981
 20
34.4692800828
 10
-23.4194972134
 20
34.4885362447
 10
-23.5365746781
 20
34.4993196954
 10
-23.6567331288
 20
34.5031709278
 10
-23.6567331288
 20
34.5031709278
 10
-23.7930667556
 20
34.5000899419
 10
-23.92554915
 20
34.4900767377
 10
-24.052639819
 20
34.4731313152
 10
-24.1751090091
 20
34.4492536743
 10
-24.2929567204
 20
34.4199843081
 10
-24.4061829528
 20
34.3868637095
 10
-24.5132472134
 20
34.3498918785
 10
-24.615689995
 20
34.3082985687
 10
-24.615689995
 20
34.3082985687
 10
-24.615689995
 20
33.9116216321
 10
-24.615689995
 20
33.9116216321
 10
-24.3961697486
 20
33.9901867729
 10
-24.1697172838
 20
34.0518064912
 10
-24.052639819
 20
34.0756841321
 10
-23.9317111218
 20
34.0933998011
 10
-23.8069311922
 20
34.1041832518
 10
-23.6775297838
 20
34.1088047307
 10
-23.6775297838
 20
34.1088047307
 10
-23.5820192204
 20
34.1064939912
 10
-23.4934408753
 20
34.0987915264
 10
-23.4110245021
 20
34.0856973363
 10
-23.3347701007
 20
34.0672114208
 10
-23.2654479176
 20
34.0441040264
 10
-23.2015174598
 20
34.0171453997
 10
-23.1445192204
 20
33.9847950476
 10
-23.0929127063
 20
33.9485934631
 10
-23.0482384105
 20
33.9085406462
 10
-23.0089558401
 20
33.8638663504
 10
-22.976605488
 20
33.8153408222
 10
-22.9496468612
 20
33.7629640616
 10
-22.9288502063
 20
33.7067360687
 10
-22.9142155232
 20
33.6474270898
 10
-22.9057428119
 20
33.5858073715
 10
-22.902661826
 20
33.5203364208
  0
LWPOLYLINE
  5
64
330
1F
100
AcDbEntity
  8
0
  6
Continuous
 62
     7
100
AcDbPolyline
 90
        8
 70
   128
 43
0.0
 10
-25.4167318344
 20
30.9538751532
 10
-25.4167463331
 20
33.4186638856
 10
-25.4167463331
 20
33.4186638856
 10
-25.8604083049
 20
33.4186638856
 10
-25.8604083049
 20
33.4186638856
 10
-25.8604083049
 20
30.9538751532
 10
-25.8604083049
 20
30.9538751532
 10
-25.4167463331
 20
30.9538751532
  0
LWPOLYLINE
  5
65
330
1F
100
AcDbEntity
  8
0
  6
Continuous
 62
     7
100
AcDbPolyline
 90
        8
 70
   128
 43
0.0
 10
-25.4167318344
 20
34.0102131814
 10
-25.4167463331
 20
34.4538751532
 10
-25.4167463331
 20
34.4538751532
 10
-25.8604083049
 20
34.4538751532
 10
-25.8604083049
 20
34.4538751532
 10
-25.8604083049
 20
34.0102131814
 10
-25.8604083049
 20
34.0102131814
 10
-25.4167463331
 20
34.0102131814
  0
LWPOLYLINE
  5
66
330
1F
100
AcDbEntity
  8
0
  6
Continuous
 62
     7
100
AcDbPolyline
 90
       62
 70
   128
 43
0.0
 10
-27.96626091
 20
30.9631181109
 10
-27.9369928119
 20
30.9531049067
 10
-27.9007912274
 20
30.943861949
 10
-27.8576574246
 20
30.9338487447
 10
-27.8075914035
 20
30.924605787
 10
-27.6912841852
 20
30.9107413504
 10
-27.5534100655
 20
30.9045793785
 10
-27.5534100655
 20
30.9045793785
 10
-27.4586697486
 20
30.9076603645
 10
-27.369321157
 20
30.9169033222
 10
-27.2861345373
 20
30.9315380053
 10
-27.2083396429
 20
30.9523346602
 10
-27.1367067204
 20
30.9785230405
 10
-27.0704655232
 20
31.0101031462
 10
-27.0103862979
 20
31.0470749771
 10
-26.9549285514
 20
31.088668287
 10
-26.9064030232
 20
31.1356533222
 10
-26.8640394669
 20
31.1872598363
 10
-26.8286081288
 20
31.2427175828
 10
-26.7993387627
 20
31.3035670546
 10
-26.7770016148
 20
31.3682677588
 10
-26.7608264387
 20
31.4368196954
 10
-26.7508132345
 20
31.5092228645
 10
-26.7477322486
 20
31.5847070194
 10
-26.7477322486
 20
31.5847070194
 10
-26.7477322486
 20
33.0735934631
 10
-26.7477322486
 20
33.0735934631
 10
-26.2724901711
 20
33.0735934631
 10
-26.2724901711
 20
33.0735934631
 10
-26.2724901711
 20
33.4186638856
 10
-26.2724901711
 20
33.4186638856
 10
-26.7477322486
 20
33.4186638856
 10
-26.7477322486
 20
33.4186638856
 10
-26.7477322486
 20
34.1088047307
 10
-26.7477322486
 20
34.1088047307
 10
-27.1913942204
 20
34.1088047307
 10
-27.1913942204
 20
34.1088047307
 10
-27.1913942204
 20
33.4186638856
 10
-27.1913942204
 20
33.4186638856
 10
-27.9300605936
 20
33.4186638856
 10
-27.9300605936
 20
33.4186638856
 10
-27.9300605936
 20
33.0735934631
 10
-27.9300605936
 20
33.0735934631
 10
-27.1913942204
 20
33.0735934631
 10
-27.1913942204
 20
33.0735934631
 10
-27.1913942204
 20
31.6440159983
 10
-27.1913942204
 20
31.6440159983
 10
-27.1975561922
 20
31.5623698715
 10
-27.2160421077
 20
31.4868857166
 10
-27.2483924598
 20
31.4191040264
 10
-27.2946072486
 20
31.3613355405
 10
-27.3554567204
 20
31.3143505053
 10
-27.4309408753
 20
31.2789191673
 10
-27.5226002063
 20
31.2573522659
 10
-27.6312049598
 20
31.2496498011
 10
-27.6312049598
 20
31.2496498011
 10
-27.7136213331
 20
31.252730787
 10
-27.8006591852
 20
31.2627439912
 10
-27.8869267908
 20
31.2781489208
 10
-27.9662621781
 20
31.2966348363
 10
-27.9662621781
 20
31.2966348363
 10
-27.9662621781
 20
30.9631181109
  0
LWPOLYLINE
  5
67
330
1F
100
AcDbEntity
  8
0
  6
Continuous
 62
     7
100
AcDbPolyline
 90
        8
 70
   128
 43
0.0
 10
-28.5223722458
 20
30.9538751532
 10
-28.5223801359
 20
33.4186638856
 10
-28.5223801359
 20
33.4186638856
 10
-28.9660421077
 20
33.4186638856
 10
-28.9660421077
 20
33.4186638856
 10
-28.9660421077
 20
30.9538751532
 10
-28.9660421077
 20
30.9538751532
 10
-28.5223801359
 20
30.9538751532
  0
LWPOLYLINE
  5
68
330
1F
100
AcDbEntity
  8
0
  6
Continuous
 62
     7
100
AcDbPolyline
 90
        8
 70
   128
 43
0.0
 10
-28.5223722458
 20
34.0102131814
 10
-28.5223801359
 20
34.4538751532
 10
-28.5223801359
 20
34.4538751532
 10
-28.9660421077
 20
34.4538751532
 10
-28.9660421077
 20
34.4538751532
 10
-28.9660421077
 20
34.0102131814
 10
-28.9660421077
 20
34.0102131814
 10
-28.5223801359
 20
34.0102131814
  0
LWPOLYLINE
  5
69
330
1F
100
AcDbEntity
  8
0
  6
Continuous
 62
     7
100
AcDbPolyline
 90
       66
 70
   128
 43
0.0
 10
-30.143737793
 20
33.0759042025
 10
-30.1514514387
 20
33.0759042025
 10
-30.1514514387
 20
33.0759042025
 10
-30.2223141148
 20
33.1552395898
 10
-30.3001090091
 20
33.2291832518
 10
-30.3863766148
 20
33.2961946954
 10
-30.4826574246
 20
33.3539631814
 10
-30.5889514387
 20
33.4017184631
 10
-30.7044884105
 20
33.4379200476
 10
-30.8300385866
 20
33.4602571954
 10
-30.9671424598
 20
33.4679596602
 10
-30.9671424598
 20
33.4679596602
 10
-31.0503290796
 20
33.4648786743
 10
-31.1304347134
 20
33.4564059631
 10
-31.2082296077
 20
33.44177128
 10
-31.2837137627
 20
33.420974625
 10
-31.3553466852
 20
33.3940159983
 10
-31.4215878824
 20
33.3608953997
 10
-31.4832076007
 20
33.3193020898
 10
-31.5402058401
 20
33.2715468081
 10
-31.5918123542
 20
33.2160890616
 10
-31.6372568965
 20
33.1529288504
 10
-31.6773097134
 20
33.0820661743
 10
-31.7119708049
 20
33.002730787
 10
-31.7396996781
 20
32.9149226884
 10
-31.7597260866
 20
32.8171013856
 10
-31.7720500303
 20
32.710037125
 10
-31.7759012627
 20
32.5937299067
 10
-31.7759012627
 20
32.5937299067
 10
-31.7759012627
 20
30.9538751532
 10
-31.7759012627
 20
30.9538751532
 10
-31.3322392908
 20
30.9538751532
 10
-31.3322392908
 20
30.9538751532
 10
-31.3322392908
 20
32.5274887095
 10
-31.3322392908
 20
32.5274887095
 10
-31.3306987979
 20
32.6037431109
 10
-31.3253070725
 20
32.6753760335
 10
-31.3160641148
 20
32.7400767377
 10
-31.3037401711
 20
32.8001559631
 10
-31.287564995
 20
32.8540732166
 10
-31.2675385866
 20
32.9033689912
 10
-31.2444311922
 20
32.9457325476
 10
-31.2174725655
 20
32.983474625
 10
-31.1535421077
 20
33.0443240969
 10
-31.0765174598
 20
33.0882281462
 10
-30.9863986218
 20
33.1144165264
 10
-30.8831855936
 20
33.1228892377
 10
-30.8831855936
 20
33.1228892377
 10
-30.7876750303
 20
33.1159570194
 10
-30.6937049598
 20
33.0951603645
 10
-30.6005051359
 20
33.0597290264
 10
-30.5096160514
 20
33.0112034983
 10
-30.4225781993
 20
32.9503540264
 10
-30.341702319
 20
32.8794913504
 10
-30.2669884105
 20
32.7978452236
 10
-30.1984364739
 20
32.7054156462
 10
-30.1984364739
 20
32.7054156462
 10
-30.1984364739
 20
30.9538751532
 10
-30.1984364739
 20
30.9538751532
 10
-29.7547745021
 20
30.9538751532
 10
-29.7547745021
 20
30.9538751532
 10
-29.7547745021
 20
33.4186638856
 10
-29.7547745021
 20
33.4186638856
 10
-30.0659540796
 20
33.4186638856
 10
-30.0659540796
 20
33.4186638856
 10
-30.1437489739
 20
33.0759042025
  0
LWPOLYLINE
  5
6A
330
1F
100
AcDbEntity
  8
0
  6
Continuous
 62
     7
100
AcDbPolyline
 90
      106
 70
   128
 43
0.0
 10
-34.0458154678
 20
31.2265424067
 10
-34.0350341852
 20
31.2265424067
 10
-34.0350341852
 20
31.2265424067
 10
-33.9780359458
 20
31.1649226884
 10
-33.9071732697
 20
31.1033029701
 10
-33.82398665
 20
31.0455344842
 10
-33.7284760866
 20
30.9946982166
 10
-33.622952319
 20
30.9538751532
 10
-33.5074153472
 20
30.92614628
 10
-33.3834056641
 20
30.9099711039
 10
-33.2516935162
 20
30.9045793785
 10
-33.2516935162
 20
30.9045793785
 10
-33.1615746781
 20
30.9076603645
 10
-33.0753070725
 20
30.9176735687
 10
-32.9928906993
 20
30.9346189912
 10
-32.9143255584
 20
30.9577263856
 10
-32.8403818965
 20
30.9877659983
 10
-32.7718299598
 20
31.0231973363
 10
-32.7078995021
 20
31.0655608926
 10
-32.6501310162
 20
31.1133161743
 10
-32.5977542556
 20
31.1672334278
 10
-32.5515394669
 20
31.2273126532
 10
-32.51148665
 20
31.2920133574
 10
-32.4775958049
 20
31.3628760335
 10
-32.4506371781
 20
31.4391304349
 10
-32.4321512627
 20
31.5207765616
 10
-32.4205975655
 20
31.6062739208
 10
-32.4167463331
 20
31.6971630053
 10
-32.4167463331
 20
31.6971630053
 10
-32.4205975655
 20
31.7865115969
 10
-32.4336917556
 20
31.8712387095
 10
-32.4537181641
 20
31.9513443433
 10
-32.4829875303
 20
32.0260582518
 10
-32.5199593612
 20
32.0953804349
 10
-32.5630931641
 20
32.1600811391
 10
-32.6131591852
 20
32.2186198715
 10
-32.6701574246
 20
32.2717668785
 10
-32.7333176359
 20
32.3195221602
 10
-32.8034100655
 20
32.3618857166
 10
-32.8781239739
 20
32.3973170546
 10
-32.9597701007
 20
32.4273566673
 10
-33.0460377063
 20
32.4512343081
 10
-33.1376970373
 20
32.4681797307
 10
-33.2324373542
 20
32.4789631814
 10
-33.3325693965
 20
32.4820441673
 10
-33.3325693965
 20
32.4820441673
 10
-33.5189690443
 20
32.4728012095
 10
-33.6907340091
 20
32.4481533222
 10
-33.8463237979
 20
32.4134922307
 10
-33.9834276711
 20
32.3703584278
 10
-33.9834276711
 20
32.3703584278
 10
-33.9942111218
 20
32.3703584278
 10
-33.9942111218
 20
32.3703584278
 10
-33.9942111218
 20
32.5398126532
 10
-33.9942111218
 20
32.5398126532
 10
-33.9911301359
 20
32.6322422307
 10
-33.9811169317
 20
32.7123478645
 10
-33.9634012627
 20
32.7832105405
 10
-33.9372128824
 20
32.8448302588
 10
-33.9372128824
 20
32.8448302588
 10
-33.8979303119
 20
32.9025987447
 10
-33.8494047838
 20
32.9549755053
 10
-33.7900958049
 20
33.0019605405
 10
-33.7207736218
 20
33.0435538504
 10
-33.640667988
 20
33.0782149419
 10
-33.5466979176
 20
33.1028628292
 10
-33.4404039035
 20
33.1182677588
 10
-33.3210156993
 20
33.1228892377
 10
-33.3210156993
 20
33.1228892377
 10
-33.2285861218
 20
33.1205784983
 10
-33.1392375303
 20
33.1128760335
 10
-33.0521996781
 20
33.1005520898
 10
-32.9682428119
 20
33.0836066673
 10
-32.8034100655
 20
33.0366216321
 10
-32.6393475655
 20
32.9750019138
 10
-32.6393475655
 20
32.9750019138
 10
-32.6393475655
 20
33.3193020898
 10
-32.6393475655
 20
33.3193020898
 10
-32.7071292556
 20
33.3508821954
 10
-32.7864646429
 20
33.3793813152
 10
-32.873502495
 20
33.404799449
 10
-32.9643915796
 20
33.4263663504
 10
-33.0606723894
 20
33.4440820194
 10
-33.1623449246
 20
33.4571762095
 10
-33.2663281993
 20
33.4656489208
 10
-33.3703114739
 20
33.4679596602
 10
-33.3703114739
 20
33.4679596602
 10
-33.5497789035
 20
33.459486949
 10
-33.713071157
 20
33.4348390616
 10
-33.860958481
 20
33.3940159983
 10
-33.9934408753
 20
33.3362475123
 10
-34.1097480936
 20
33.2653848363
 10
-34.2091098894
 20
33.1837387095
 10
-34.2922965091
 20
33.0913091321
 10
-34.3577674598
 20
32.9880961039
 10
-34.3577674598
 20
32.9880961039
 10
-34.3947392908
 20
32.9018284983
 10
-34.4193871781
 20
32.8063179349
 10
-34.4332516148
 20
32.7023346602
 10
-34.4378730936
 20
32.5883381814
 10
-34.4378730936
 20
32.5883381814
 10
-34.4378730936
 20
30.9538751532
 10
-34.4378730936
 20
30.9538751532
 10
-34.0912621781
 20
30.9538751532
 10
-34.0912621781
 20
30.9538751532
 10
-34.0458176359
 20
31.2265424067
  0
LWPOLYLINE
  5
6B
330
1F
100
AcDbEntity
  8
0
  6
Continuous
 62
     7
100
AcDbPolyline
 90
       40
 70
   128
 43
0.0
 10
-33.9941978455
 20
32.0468549067
 10
-33.8740526711
 20
32.0768945194
 10
-33.7330975655
 20
32.1061638856
 10
-33.5744267908
 20
32.1285010335
 10
-33.4003510866
 20
32.1369737447
 10
-33.4003510866
 20
32.1369737447
 10
-33.2801926359
 20
32.1300415264
 10
-33.1746688683
 20
32.110015118
 10
-33.0822392908
 20
32.0761242729
 10
-33.00367415
 20
32.0291392377
 10
-32.9697833049
 20
32.000640118
 10
-32.9412841852
 20
31.9682897659
 10
-32.9166362979
 20
31.9320881814
 10
-32.8966098894
 20
31.8920353645
 10
-32.8804347134
 20
31.8489015616
 10
-32.8696512627
 20
31.8019165264
 10
-32.8627190443
 20
31.7510802588
 10
-32.8604083049
 20
31.6971630053
 10
-32.8604083049
 20
31.6971630053
 10
-32.8627190443
 20
31.6424755053
 10
-32.8696512627
 20
31.5908689912
 10
-32.8804347134
 20
31.5431137095
 10
-32.8958396429
 20
31.4992096602
 10
-32.9389734458
 20
31.4221850123
 10
-32.9944311922
 20
31.3590248011
 10
-33.0629831288
 20
31.3104992729
 10
-33.1430887627
 20
31.2766084278
 10
-33.2316671077
 20
31.2565820194
 10
-33.3264074246
 20
31.2496498011
 10
-33.3264074246
 20
31.2496498011
 10
-33.4496468612
 20
31.2588927588
 10
-33.5644135866
 20
31.2866216321
 10
-33.6683968612
 20
31.3274446954
 10
-33.7600561922
 20
31.3751999771
 10
-33.8393915796
 20
31.4268064912
 10
-33.9056327767
 20
31.4784130053
 10
-33.9580095373
 20
31.524627794
 10
-33.9942111218
 20
31.5585186391
 10
-33.9942111218
 20
31.5585186391
 10
-33.9942111218
 20
32.0468549067
  0
LWPOLYLINE
  5
6C
330
1F
100
AcDbEntity
  8
0
  6
Continuous
 62
     7
100
AcDbPolyline
 90
      208
 70
   128
 43
0.0
 10
-31.6050648689
 20
-31.7094521806
 10
-31.573625493
 20
-31.7057064614
 10
-31.5511511779
 20
-31.6944693038
 10
-31.5376665888
 20
-31.6764898518
 10
-31.5331717258
 20
-31.6502698175
 10
-31.5331717258
 20
-31.6502698175
 10
-31.4312881642
 20
-31.0696833449
 10
-31.4312881642
 20
-31.0696833449
 10
-31.4327864519
 20
-31.078673071
 10
-31.4357830272
 20
-31.0839170778
 10
-31.4357830272
 20
-31.0839170778
 10
-31.3294046025
 20
-31.0427141669
 10
-31.2185313149
 20
-31.0134975573
 10
-31.103912308
 20
-30.996267249
 10
-30.9847984382
 20
-30.9902740984
 10
-30.9847984382
 20
-30.9902740984
 10
-30.8799183012
 20
-30.9985146806
 10
-30.780282171
 20
-31.0247347148
 10
-30.6866391916
 20
-31.0674359134
 10
-30.598240219
 20
-31.1281165641
 10
-30.598240219
 20
-31.1281165641
 10
-30.5592847395
 20
-31.1640754682
 10
-30.5248241231
 20
-31.2037800915
 10
-30.4963566573
 20
-31.247230434
 10
-30.4723840546
 20
-31.2951756395
 10
-30.4544046025
 20
-31.3476157079
 10
-30.4409200135
 20
-31.4038014956
 10
-30.4334285751
 20
-31.4637330025
 10
-30.4304319998
 20
-31.5281593723
 10
-30.4304319998
 20
-31.5281593723
 10
-30.4326794313
 20
-31.5910874545
 10
-30.4401708697
 20
-31.6510189614
 10
-30.4514080272
 20
-31.707204749
 10
-30.4686383354
 20
-31.7603939614
 10
-30.4896143628
 20
-31.8105865984
 10
-30.5158343971
 20
-31.8570335162
 10
-30.5465492943
 20
-31.9004838586
 10
-30.5817590546
 20
-31.9401884819
 10
-30.5817590546
 20
-31.9401884819
 10
-30.6521785751
 20
-32.0031165641
 10
-30.7368318286
 20
-32.0652955025
 10
-30.8357188149
 20
-32.126725297
 10
-30.948839534
 20
-32.1874059477
 10
-30.948839534
 20
-32.1874059477
 10
-31.2747171025
 20
-32.3402312901
 10
-31.2747171025
 20
-32.3402312901
 10
-31.3743532327
 20
-32.3866782079
 10
-31.4672470683
 20
-32.4323759819
 10
-31.5519003217
 20
-32.4780737559
 10
-31.6290621368
 20
-32.523022386
 10
-31.6987325135
 20
-32.5679710162
 10
-31.760162308
 20
-32.6121705025
 10
-31.814849808
 20
-32.6563699888
 10
-31.8612967258
 20
-32.6998203312
 10
-31.8612967258
 20
-32.6998203312
 10
-31.9189808012
 20
-32.7642467011
 10
-31.9691734382
 20
-32.8309205025
 10
-32.0118746368
 20
-32.9005908792
 10
-32.0470843971
 20
-32.9725086874
 10
-32.0740535751
 20
-33.047423071
 10
-32.092782171
 20
-33.124584886
 10
-32.1047684724
 20
-33.2039941326
 10
-32.1085141916
 20
-33.2863999545
 10
-32.1085141916
 20
-33.2863999545
 10
-32.1017718971
 20
-33.4092595436
 10
-32.0822941573
 20
-33.5261259819
 10
-32.0485826847
 20
-33.6369992696
 10
-32.0021357669
 20
-33.7411302627
 10
-31.9422042601
 20
-33.8385189614
 10
-31.869537308
 20
-33.9299145093
 10
-31.7826366231
 20
-34.0153169066
 10
-31.683000493
 20
-34.0939770093
 10
-31.683000493
 20
-34.0939770093
 10
-31.5908558012
 20
-34.1531593723
 10
-31.4927179587
 20
-34.2041011532
 10
-31.3870886779
 20
-34.2475514956
 10
-31.2762153902
 20
-34.2835103997
 10
-31.1578506642
 20
-34.3112287216
 10
-31.0334927875
 20
-34.3307064614
 10
-30.9023926162
 20
-34.3426927627
 10
-30.7645501505
 20
-34.3464384819
 10
-30.7645501505
 20
-34.3464384819
 10
-30.6229619656
 20
-34.3411944751
 10
-30.4723840546
 20
-34.3262115984
 10
-30.3120672738
 20
-34.3007407079
 10
-30.1420116231
 20
-34.2655309477
 10
-30.1420116231
 20
-34.2655309477
 10
-30.0461212121
 20
-34.2393109134
 10
-29.9569730957
 20
-34.2085960162
 10
-29.9569730957
 20
-34.2085960162
 10
-29.9337496368
 20
-34.1951114271
 10
-29.9165193286
 20
-34.1786302627
 10
-29.9067804587
 20
-34.1599016669
 10
-29.9030347395
 20
-34.1381764956
 10
-29.9030347395
 20
-34.1381764956
 10
-29.9030347395
 20
-33.3643109134
 10
-29.9030347395
 20
-33.3643109134
 10
-29.9075296025
 20
-33.3328468723
 10
-29.9210141916
 20
-33.3096234134
 10
-29.9427393628
 20
-33.2961388244
 10
-29.9742034039
 20
-33.2916439614
 10
-29.9742034039
 20
-33.2916439614
 10
-30.1817162464
 20
-33.293142249
 10
-30.1817162464
 20
-33.293142249
 10
-30.2274140204
 20
-33.3088742696
 10
-30.2603763491
 20
-33.325355434
 10
-30.2798540888
 20
-33.3418365984
 10
-30.2865963834
 20
-33.3598160504
 10
-30.2865963834
 20
-33.3598160504
 10
-30.383985082
 20
-33.9276670778
 10
-30.383985082
 20
-33.9276670778
 10
-30.3712496368
 20
-33.9216739271
 10
-30.3667547738
 20
-33.9194264956
 10
-30.3667547738
 20
-33.9194264956
 10
-30.3922256642
 20
-33.9433990984
 10
-30.3922256642
 20
-33.9433990984
 10
-30.4686383354
 20
-33.9726157079
 10
-30.5645287464
 20
-33.9935917353
 10
-30.6798968971
 20
-34.0063271806
 10
-30.8139936436
 20
-34.0108220436
 10
-30.8139936436
 20
-34.0108220436
 10
-30.9570801162
 20
-34.0018323175
 10
-31.0881802875
 20
-33.9763614271
 10
-31.2057958697
 20
-33.9329110847
 10
-31.3114251505
 20
-33.872230434
 10
-31.3114251505
 20
-33.872230434
 10
-31.3631160751
 20
-33.8317766669
 10
-31.4088138491
 20
-33.7875771806
 10
-31.4462710409
 20
-33.7388828312
 10
-31.477735082
 20
-33.6864427627
 10
-31.5017076847
 20
-33.6310061189
 10
-31.5196871368
 20
-33.5710746121
 10
-31.5294260067
 20
-33.5066482422
 10
-31.5331717258
 20
-33.439225297
 10
-31.5331717258
 20
-33.439225297
 10
-31.5249311436
 20
-33.3440840299
 10
-31.5002093971
 20
-33.2526884819
 10
-31.4582573423
 20
-33.1665369408
 10
-31.4005732669
 20
-33.0841311189
 10
-31.3256588834
 20
-33.00622016
 10
-31.2350124793
 20
-32.9328040641
 10
-31.1271357669
 20
-32.8631336874
 10
-31.0027778902
 20
-32.7987073175
 10
-31.0027778902
 20
-32.7987073175
 10
-30.666412308
 20
-32.6413871121
 10
-30.666412308
 20
-32.6413871121
 10
-30.5750167601
 20
-32.5971876258
 10
-30.4903635067
 20
-32.5529881395
 10
-30.4109542601
 20
-32.5080395093
 10
-30.3375381642
 20
-32.4630908792
 10
-30.2708643628
 20
-32.4173931052
 10
-30.2094345683
 20
-32.3716953312
 10
-30.1547470683
 20
-32.3259975573
 10
-30.1053035751
 20
-32.2795506395
 10
-30.1053035751
 20
-32.2795506395
 10
-30.046870356
 20
-32.2151242696
 10
-29.9959285751
 20
-32.1484504682
 10
-29.9524782327
 20
-32.0780309477
 10
-29.9180176162
 20
-32.0053639956
 10
-29.8902992943
 20
-31.9297004682
 10
-29.8708215546
 20
-31.8510403655
 10
-29.8588352532
 20
-31.7701328312
 10
-29.855089534
 20
-31.6854795778
 10
-29.855089534
 20
-31.6854795778
 10
-29.8580861094
 20
-31.6015754682
 10
-29.8678249793
 20
-31.520667934
 10
-29.8835569998
 20
-31.4420078312
 10
-29.9060313149
 20
-31.3648460162
 10
-29.9352479245
 20
-31.2914299203
 10
-29.9704576847
 20
-31.2195121121
 10
-30.0116605957
 20
-31.1498417353
 10
-30.0596058012
 20
-31.083167934
 10
-30.0596058012
 20
-31.083167934
 10
-30.1112967258
 20
-31.0224872833
 10
-30.1659842258
 20
-30.9655523518
 10
-30.2251665888
 20
-30.9138614271
 10
-30.2888438149
 20
-30.8666653655
 10
-30.3555176162
 20
-30.8239641669
 10
-30.4266862806
 20
-30.7857578312
 10
-30.5016006642
 20
-30.7520463586
 10
-30.5802607669
 20
-30.722829749
 10
-30.5802607669
 20
-30.722829749
 10
-30.6843917601
 20
-30.6928639956
 10
-30.7915193286
 20
-30.6718879682
 10
-30.9008943286
 20
-30.659152523
 10
-31.0125167601
 20
-30.65465766
 10
-31.0125167601
 20
-30.65465766
 10
-31.1668403902
 20
-30.659152523
 10
-31.322662308
 20
-30.6733862559
 10
-31.4784842258
 20
-30.6966097148
 10
-31.6358044313
 20
-30.7295720436
 10
-31.6358044313
 20
-30.7295720436
 10
-31.7249525477
 20
-30.7527955025
 10
-31.819344671
 20
-30.7805138244
 10
-31.819344671
 20
-30.7805138244
 10
-31.8620458697
 20
-30.7925001258
 10
-31.8927607669
 20
-30.8089812901
 10
-31.910740219
 20
-30.8284590299
 10
-31.9167333697
 20
-30.8516824888
 10
-31.9167333697
 20
-30.8516824888
 10
-31.9167333697
 20
-31.6360360847
 10
-31.9167333697
 20
-31.6360360847
 10
-31.9092419313
 20
-31.6682492696
 10
-31.8867676162
 20
-31.6907235847
 10
-31.8493104245
 20
-31.7049573175
 10
-31.796870356
 20
-31.7094521806
 10
-31.796870356
 20
-31.7094521806
 10
-31.605089534
 20
-31.7094521806
  0
LWPOLYLINE
  5
6D
330
1F
100
AcDbEntity
  8
0
  6
Continuous
 62
     7
100
AcDbPolyline
 90
       73
 70
   128
 43
0.0
 10
-33.8158011436
 20
-30.65465766
 10
-33.8660056299
 20
-30.659152523
 10
-33.901964534
 20
-30.6718879682
 10
-33.9229405614
 20
-30.6943622833
 10
-33.9304319998
 20
-30.7250771806
 10
-33.9304319998
 20
-30.7250771806
 10
-33.9304319998
 20
-33.9456465299
 10
-33.9304319998
 20
-33.9456465299
 10
-33.9266862806
 20
-33.9396533792
 10
-33.9161982669
 20
-33.9344093723
 10
-33.8982188149
 20
-33.9306636532
 10
-33.8734970683
 20
-33.9284162216
 10
-33.8734970683
 20
-33.9284162216
 10
-34.3050039176
 20
-33.9636259819
 10
-34.3050039176
 20
-33.9636259819
 10
-34.3507016916
 20
-33.9741139956
 10
-34.3836640204
 20
-33.9890968723
 10
-34.4031417601
 20
-34.0093237559
 10
-34.4098840546
 20
-34.0347946463
 10
-34.4098840546
 20
-34.0347946463
 10
-34.4098840546
 20
-34.1816268381
 10
-34.4098840546
 20
-34.1816268381
 10
-34.4023926162
 20
-34.2115925915
 10
-34.3814165888
 20
-34.2333177627
 10
-34.3447085409
 20
-34.2460532079
 10
-34.2945159039
 20
-34.250548071
 10
-34.2945159039
 20
-34.250548071
 10
-32.9430604245
 20
-34.250548071
 10
-32.9430604245
 20
-34.250548071
 10
-32.9138438149
 20
-34.2460532079
 10
-32.8928677875
 20
-34.2333177627
 10
-32.8801323423
 20
-34.2115925915
 10
-32.8756374793
 20
-34.1816268381
 10
-32.8756374793
 20
-34.1816268381
 10
-32.8756374793
 20
-34.0347946463
 10
-32.8756374793
 20
-34.0347946463
 10
-32.8786340546
 20
-34.0070763244
 10
-32.8891220683
 20
-33.986100297
 10
-32.9048540888
 20
-33.9718665641
 10
-32.9280775477
 20
-33.9643751258
 10
-32.9280775477
 20
-33.9643751258
 10
-33.3723198423
 20
-33.9284162216
 10
-33.3723198423
 20
-33.9284162216
 10
-33.3678249793
 20
-33.9291653655
 10
-33.3618318286
 20
-33.9329110847
 10
-33.3565878217
 20
-33.9389042353
 10
-33.355089534
 20
-33.9456465299
 10
-33.355089534
 20
-33.9456465299
 10
-33.355089534
 20
-31.1902955025
 10
-33.355089534
 20
-31.1902955025
 10
-33.3640792601
 20
-31.2037800915
 10
-33.391797582
 20
-31.2082749545
 10
-33.391797582
 20
-31.2082749545
 10
-32.8786340546
 20
-31.2779453312
 10
-32.8786340546
 20
-31.2779453312
 10
-32.8561597395
 20
-31.2704538929
 10
-32.8381802875
 20
-31.2577184477
 10
-32.8231974108
 20
-31.2404881395
 10
-32.8127093971
 20
-31.2180138244
 10
-32.8127093971
 20
-31.2180138244
 10
-32.7797470683
 20
-31.0659376258
 10
-32.7797470683
 20
-31.0659376258
 10
-32.7864893628
 20
-31.0412158792
 10
-32.7954790888
 20
-31.0187415641
 10
-32.7954790888
 20
-31.0187415641
 10
-32.8134585409
 20
-30.9985146806
 10
-32.8134585409
 20
-30.9985146806
 10
-33.6457573423
 20
-30.6621490984
 10
-33.6457573423
 20
-30.6621490984
 10
-33.669729945
 20
-30.6569050915
 10
-33.6847128217
 20
-30.65465766
 10
-33.6847128217
 20
-30.65465766
 10
-33.815812993
 20
-30.65465766
  0
CIRCLE
  5
70
330
1F
100
AcDbEntity
  8
0
  6
Continuous
 62
     7
370
    25
100
AcDbCircle
 10
-34.5
 20
-34.5
 30
0.0
 40
0.8000000000000043
  0
CIRCLE
  5
71
330
1F
100
AcDbEntity
  8
0
  6
Continuous
 62
     7
370
    25
100
AcDbCircle
 10
34.5
 20
-34.5
 30
0.0
 40
0.8000000000000114
  0
CIRCLE
  5
B0
330
1F
100
AcDbEntity
  8
0
  6
Continuous
 62
     7
370
    25
100
AcDbCircle
 10
-34.5
 20
34.5
 30
0.0
 40
0.8000000000000114
  0
CIRCLE
  5
B1
330
1F
100
AcDbEntity
  8
0
  6
Continuous
 62
     7
370
    25
100
AcDbCircle
 10
34.5
 20
34.5
 30
0.0
 40
0.8000000000000114
  0
SPLINE
  5
D0
330
1F
100
AcDbEntity
  8
0
  6
Continuous
 62
     7
370
    25
100
AcDbSpline
210
0.0
220
0.0
230
1.0
 70
    24
 71
     3
 72
    11
 73
     7
 74
     0
 42
0.00000001
 43
0.00000001
 40
0.0
 40
0.0
 40
0.0
 40
0.0
 40
0.4930492700717793
 40
0.7403632273899702
 40
0.9267512844834551
 40
1.0
 40
1.0
 40
1.0
 40
1.0
 10
39.00000000000001
 20
-23.5078395831247
 30
0.0
 10
39.00000000000001
 20
-23.70367249658403
 30
0.0
 10
39.0
 20
-23.99773537556733
 30
0.0
 10
39.00000000000001
 20
-24.34840493427681
 30
0.0
 10
38.99999999999999
 20
-24.53082433478338
 30
0.0
 10
39.00000000000001
 20
-24.59668342047741
 30
0.0
 10
39.0
 20
-24.61526358300095
 30
0.0
  0
SPLINE
  5
D1
330
1F
100
AcDbEntity
  8
0
  6
Continuous
 62
     7
370
    25
100
AcDbSpline
210
0.0
220
0.0
230
1.0
 70
    24
 71
     3
 72
    11
 73
     7
 74
     0
 42
0.00000001
 43
0.00000001
 40
0.0
 40
0.0
 40
0.0
 40
0.0
 40
0.101047023660848
 40
0.328046900618277
 40
0.8047444106299411
 40
1.0
 40
1.0
 40
1.0
 40
1.0
 10
39.0
 20
-18.8925134517118
 30
0.0
 10
39.0
 20
-18.91953461861455
 30
0.0
 10
39.00000000000001
 20
-19.00725823215995
 30
0.0
 10
38.99999999999999
 20
-19.30509614128261
 30
0.0
 10
39.00000000000001
 20
-19.65346505119951
 30
0.0
 10
39.00000000000001
 20
-19.9159017676024
 30
0.0
 10
39.0
 20
-19.9921604168753
 30
0.0
  0
CIRCLE
  5
D3
330
1F
100
AcDbEntity
  8
0
  6
Continuous
 62
     7
370
    25
100
AcDbCircle
 10
19.0
 20
20.0
 30
0.0
 40
0.8000000000000007
  0
CIRCLE
  5
D4
330
1F
100
AcDbEntity
  8
0
  6
Continuous
 62
     7
370
    25
100
AcDbCircle
 10
19.0
 20
20.0
 30
0.0
 40
1.650000000000016
  0
CIRCLE
  5
D5
330
1F
100
AcDbEntity
  8
0
  6
Continuous
 62
     7
370
    25
100
AcDbCircle
 10
-19.0
 20
-20.0
 30
0.0
 40
0.7999999999999936
  0
CIRCLE
  5
D6
330
1F
100
AcDbEntity
  8
0
  6
Continuous
 62
     7
370
    25
100
AcDbCircle
 10
-19.0
 20
-20.0
 30
0.0
 40
1.649999999999999
  0
CIRCLE
  5
D7
330
1F
100
AcDbEntity
  8
0
  6
Continuous
 62
     7
370
    25
100
AcDbCircle
 10
19.0
 20
-20.0
 30
0.0
 40
1.649999999999999
  0
CIRCLE
  5
D8
330
1F
100
AcDbEntity
  8
0
  6
Continuous
 62
     7
370
    25
100
AcDbCircle
 10
19.0
 20
-20.0
 30
0.0
 40
0.8000000000000007
  0
CIRCLE
  5
DE
330
1F
100
AcDbEntity
  8
0
  6
Continuous
 62
     7
370
    25
100
AcDbCircle
 10
15.0
 20
-22.0
 30
0.0
 40
0.7999999999999989
  0
CIRCLE
  5
DF
330
1F
100
AcDbEntity
  8
0
  6
Continuous
 62
     7
370
    25
100
AcDbCircle
 10
-15.0
 20
22.0
 30
0.0
 40
0.8000000000000025
  0
CIRCLE
  5
E0
330
1F
100
AcDbEntity
  8
0
  6
Continuous
 62
     7
370
    25
100
AcDbCircle
 10
0.0
 20
0.0
 30
0.0
 40
24.49999999999999
  0
CIRCLE
  5
E1
330
1F
100
AcDbEntity
  8
0
  6
Continuous
 62
     7
370
    25
100
AcDbCircle
 10
0.0
 20
0.0
 30
0.0
 40
23.75
  0
LINE
  5
E2
330
1F
100
AcDbEntity
  8
0
  6
Continuous
 62
     7
370
    25
100
AcDbLine
 10
4.25
 20
-37.0
 30
0.0
 11
4.25
 21
-30.0
 31
0.0
  0
LINE
  5
E3
330
1F
100
AcDbEntity
  8
0
  6
Continuous
 62
     7
370
    25
100
AcDbLine
 10
-4.25
 20
-30.0
 30
0.0
 11
-4.25
 21
-37.0
 31
0.0
  0
LINE
  5
E4
330
1F
100
AcDbEntity
  8
0
  6
Continuous
 62
     7
370
    25
100
AcDbLine
 10
-35.5
 20
-39.0
 30
0.0
 11
35.5
 21
-39.0
 31
0.0
  0
LINE
  5
E5
330
1F
100
AcDbEntity
  8
0
  6
Continuous
 62
     7
370
    25
100
AcDbLine
 10
-37.2
 20
-30.0
 30
0.0
 11
-39.0
 21
-30.0
 31
0.0
  0
LINE
  5
E6
330
1F
100
AcDbEntity
  8
0
  6
Continuous
 62
     7
370
    25
100
AcDbLine
 10
-37.2
 20
10.5
 30
0.0
 11
-35.5
 21
10.5
 31
0.0
  0
LINE
  5
E7
330
1F
100
AcDbEntity
  8
0
  6
Continuous
 62
     7
370
    25
100
AcDbLine
 10
-34.0
 20
-32.0
 30
0.0
 11
-33.5
 21
-32.0
 31
0.0
  0
LINE
  5
E8
330
1F
100
AcDbEntity
  8
0
  6
Continuous
 62
     7
370
    25
100
AcDbLine
 10
-32.0
 20
-35.5
 30
0.0
 11
-32.0
 21
-33.5
 31
0.0
  0
LINE
  5
E9
330
1F
100
AcDbEntity
  8
0
  6
Continuous
 62
     7
370
    25
100
AcDbLine
 10
-14.5
 20
-37.0
 30
0.0
 11
-14.5
 21
-38.0
 31
0.0
  0
LINE
  5
EA
330
1F
100
AcDbEntity
  8
0
  6
Continuous
 62
     7
370
    25
100
AcDbLine
 10
-3.5
 20
-38.0
 30
0.0
 11
-14.5
 21
-38.0
 31
0.0
  0
LINE
  5
EB
330
1F
100
AcDbEntity
  8
0
  6
Continuous
 62
     7
370
    25
100
AcDbLine
 10
-3.5
 20
-37.0
 30
0.0
 11
-3.5
 21
-38.0
 31
0.0
  0
LINE
  5
EC
330
1F
100
AcDbEntity
  8
0
  6
Continuous
 62
     7
370
    25
100
AcDbLine
 10
3.5
 20
-37.0
 30
0.0
 11
3.5
 21
-38.0
 31
0.0
  0
LINE
  5
ED
330
1F
100
AcDbEntity
  8
0
  6
Continuous
 62
     7
370
    25
100
AcDbLine
 10
14.5
 20
-38.0
 30
0.0
 11
3.5
 21
-38.0
 31
0.0
  0
LINE
  5
EE
330
1F
100
AcDbEntity
  8
0
  6
Continuous
 62
     7
370
    25
100
AcDbLine
 10
14.5
 20
-37.0
 30
0.0
 11
14.5
 21
-38.0
 31
0.0
  0
LINE
  5
EF
330
1F
100
AcDbEntity
  8
0
  6
Continuous
 62
     7
370
    25
100
AcDbLine
 10
30.5
 20
-37.0
 30
0.0
 11
-30.5
 21
-37.0
 31
0.0
  0
LINE
  5
F0
330
1F
100
AcDbEntity
  8
0
  6
Continuous
 62
     7
370
    25
100
AcDbLine
 10
32.0
 20
-35.5
 30
0.0
 11
32.0
 21
-33.5
 31
0.0
  0
LINE
  5
F1
330
1F
100
AcDbEntity
  8
0
  6
Continuous
 62
     7
370
    25
100
AcDbLine
 10
35.5
 20
-32.0
 30
0.0
 11
33.5
 21
-32.0
 31
0.0
  0
LINE
  5
F2
330
1F
100
AcDbEntity
  8
0
  6
Continuous
 62
     7
370
    25
100
AcDbLine
 10
39.0
 20
-14.420485754
 30
0.0
 11
37.0
 21
-14.420485754
 31
0.0
  0
LINE
  5
F3
330
1F
100
AcDbEntity
  8
0
  6
Continuous
 62
     7
370
    25
100
AcDbLine
 10
39.0
 20
-35.5
 30
0.0
 11
39.0
 21
-24.6893876913
 31
0.0
  0
LINE
  5
F4
330
1F
100
AcDbEntity
  8
0
  6
Continuous
 62
     7
370
    25
100
AcDbLine
 10
39.0
 20
0.6
 30
0.0
 11
37.0
 21
0.6
 31
0.0
  0
LINE
  5
F5
330
1F
100
AcDbEntity
  8
0
  6
Continuous
 62
     7
370
    25
100
AcDbLine
 10
37.0
 20
-5.979514246
 30
0.0
 11
39.0
 21
-5.979514246
 31
0.0
  0
LINE
  5
F6
330
1F
100
AcDbEntity
  8
0
  6
Continuous
 62
     7
370
    25
100
AcDbLine
 10
37.0
 20
4.8
 30
0.0
 11
39.0
 21
4.8
 31
0.0
  0
LINE
  5
F7
330
1F
100
AcDbEntity
  8
0
  6
Continuous
 62
     7
370
    25
100
AcDbLine
 10
37.0
 20
6.0
 30
0.0
 11
39.0
 21
6.0
 31
0.0
  0
LINE
  5
F8
330
1F
100
AcDbEntity
  8
0
  6
Continuous
 62
     7
370
    25
100
AcDbLine
 10
35.5
 20
32.0
 30
0.0
 11
33.5
 21
32.0
 31
0.0
  0
LINE
  5
F9
330
1F
100
AcDbEntity
  8
0
  6
Continuous
 62
     7
370
    25
100
AcDbLine
 10
32.0
 20
35.5
 30
0.0
 11
32.0
 21
33.5
 31
0.0
  0
LINE
  5
FA
330
1F
100
AcDbEntity
  8
0
  6
Continuous
 62
     7
370
    25
100
AcDbLine
 10
14.5
 20
37.0
 30
0.0
 11
14.5
 21
38.0
 31
0.0
  0
LINE
  5
FB
330
1F
100
AcDbEntity
  8
0
  6
Continuous
 62
     7
370
    25
100
AcDbLine
 10
-14.5
 20
38.0
 30
0.0
 11
14.5
 21
38.0
 31
0.0
  0
LINE
  5
FC
330
1F
100
AcDbEntity
  8
0
  6
Continuous
 62
     7
370
    25
100
AcDbLine
 10
-14.5
 20
37.0
 30
0.0
 11
-14.5
 21
38.0
 31
0.0
  0
LINE
  5
FD
330
1F
100
AcDbEntity
  8
0
  6
Continuous
 62
     7
370
    25
100
AcDbLine
 10
-30.5
 20
37.0
 30
0.0
 11
30.5
 21
37.0
 31
0.0
  0
LINE
  5
FE
330
1F
100
AcDbEntity
  8
0
  6
Continuous
 62
     7
370
    25
100
AcDbLine
 10
-32.0
 20
35.5
 30
0.0
 11
-32.0
 21
33.5
 31
0.0
  0
LINE
  5
FF
330
1F
100
AcDbEntity
  8
0
  6
Continuous
 62
     7
370
    25
100
AcDbLine
 10
-34.0
 20
32.0
 30
0.0
 11
-33.5
 21
32.0
 31
0.0
  0
LINE
  5
100
330
1F
100
AcDbEntity
  8
0
  6
Continuous
 62
     7
370
    25
100
AcDbLine
 10
-35.5
 20
30.5
 30
0.0
 11
-35.5
 21
-30.5
 31
0.0
  0
LINE
  5
101
330
1F
100
AcDbEntity
  8
0
  6
Continuous
 62
     7
370
    25
100
AcDbLine
 10
-35.5
 20
20.0
 30
0.0
 11
-37.2
 21
20.0
 31
0.0
  0
LINE
  5
102
330
1F
100
AcDbEntity
  8
0
  6
Continuous
 62
     7
370
    25
100
AcDbLine
 10
-37.2
 20
30.0
 30
0.0
 11
-37.2
 21
-30.0
 31
0.0
  0
LINE
  5
103
330
1F
100
AcDbEntity
  8
0
  6
Continuous
 62
     7
370
    25
100
AcDbLine
 10
-37.2
 20
30.0
 30
0.0
 11
-39.0
 21
30.0
 31
0.0
  0
LINE
  5
104
330
1F
100
AcDbEntity
  8
0
  6
Continuous
 62
     7
370
    25
100
AcDbLine
 10
-39.0
 20
-35.5
 30
0.0
 11
-39.0
 21
35.5
 31
0.0
  0
LINE
  5
105
330
1F
100
AcDbEntity
  8
0
  6
Continuous
 62
     7
370
    25
100
AcDbLine
 10
35.5
 20
39.0
 30
0.0
 11
-35.5
 21
39.0
 31
0.0
  0
LINE
  5
106
330
1F
100
AcDbEntity
  8
0
  6
Continuous
 62
     7
370
    25
100
AcDbLine
 10
37.0
 20
29.5
 30
0.0
 11
39.0
 21
29.5
 31
0.0
  0
LINE
  5
107
330
1F
100
AcDbEntity
  8
0
  6
Continuous
 62
     7
370
    25
100
AcDbLine
 10
37.0
 20
14.0
 30
0.0
 11
39.0
 21
14.0
 31
0.0
  0
LINE
  5
108
330
1F
100
AcDbEntity
  8
0
  6
Continuous
 62
     7
370
    25
100
AcDbLine
 10
37.0
 20
-30.5
 30
0.0
 11
37.0
 21
30.5
 31
0.0
  0
LINE
  5
109
330
1F
100
AcDbEntity
  8
0
  6
Continuous
 62
     7
370
    25
100
AcDbLine
 10
37.0
 20
20.4
 30
0.0
 11
39.0
 21
20.4
 31
0.0
  0
LINE
  5
10A
330
1F
100
AcDbEntity
  8
0
  6
Continuous
 62
     7
370
    25
100
AcDbLine
 10
39.0
 20
35.5
 30
0.0
 11
39.0
 21
-18.8106123087
 31
0.0
  0
LINE
  5
10B
330
1F
100
AcDbEntity
  8
0
  6
Continuous
 62
     7
370
    25
100
AcDbLine
 10
5.0990195136
 20
-30.0
 30
0.0
 11
-5.0990195136
 21
-30.0
 31
0.0
  0
LINE
  5
10C
330
1F
100
AcDbEntity
  8
0
  6
Continuous
 62
     7
370
    25
100
AcDbLine
 10
37.0
 20
21.6
 30
0.0
 11
39.0
 21
21.6
 31
0.0
  0
LINE
  5
10D
330
1F
100
AcDbEntity
  8
0
  6
Continuous
 62
     7
370
    25
100
AcDbLine
 10
37.0
 20
28.3
 30
0.0
 11
39.0
 21
28.3
 31
0.0
  0
LINE
  5
10E
330
1F
100
AcDbEntity
  8
0
  6
Continuous
 62
     7
370
    25
100
AcDbLine
 10
39.0
 20
-19.9921604169
 30
0.0
 11
39.0
 21
-23.5078395831
 31
0.0
  0
LINE
  5
10F
330
1F
100
AcDbEntity
  8
0
  6
Continuous
 62
     7
370
    25
100
AcDbLine
 10
-5.0990195136
 20
-37.0
 30
0.0
 11
-5.0990195136
 21
-30.0
 31
0.0
  0
LINE
  5
110
330
1F
100
AcDbEntity
  8
0
  6
Continuous
 62
     7
370
    25
100
AcDbLine
 10
5.0990195136
 20
-30.0
 30
0.0
 11
5.0990195136
 21
-37.0
 31
0.0
  0
ARC
  5
111
330
1F
100
AcDbEntity
  8
0
  6
Continuous
 62
     7
370
    25
100
AcDbCircle
 10
-34.0
 20
-30.5
 30
0.0
 40
1.499999999999996
100
AcDbArc
 50
180.0
 51
270.0
  0
ARC
  5
112
330
1F
100
AcDbEntity
  8
0
  6
Continuous
 62
     7
370
    25
100
AcDbCircle
 10
-33.5
 20
-33.5
 30
0.0
 40
1.500000000000014
100
AcDbArc
 50
0.0
 51
90.0
  0
ARC
  5
113
330
1F
100
AcDbEntity
  8
0
  6
Continuous
 62
     7
370
    25
100
AcDbCircle
 10
35.5
 20
-30.5
 30
0.0
 40
1.500000000000007
100
AcDbArc
 50
270.0
 51
0.0
  0
ARC
  5
114
330
1F
100
AcDbEntity
  8
0
  6
Continuous
 62
     7
370
    25
100
AcDbCircle
 10
44.0
 20
-21.75
 30
0.0
 40
5.799999999999997
100
AcDbArc
 50
149.5496859786
 51
210.4503140214
  0
ARC
  5
115
330
1F
100
AcDbEntity
  8
0
  6
Continuous
 62
     7
370
    25
100
AcDbCircle
 10
35.5
 20
-35.5
 30
0.0
 40
3.5
100
AcDbArc
 50
270.0
 51
0.0
  0
ARC
  5
116
330
1F
100
AcDbEntity
  8
0
  6
Continuous
 62
     7
370
    25
100
AcDbCircle
 10
-35.5
 20
-35.5
 30
0.0
 40
3.5
100
AcDbArc
 50
180.0
 51
270.0
  0
ARC
  5
117
330
1F
100
AcDbEntity
  8
0
  6
Continuous
 62
     7
370
    25
100
AcDbCircle
 10
33.5
 20
-33.5
 30
0.0
 40
1.500000000000014
100
AcDbArc
 50
90.0
 51
180.0
  0
ARC
  5
118
330
1F
100
AcDbEntity
  8
0
  6
Continuous
 62
     7
370
    25
100
AcDbCircle
 10
-30.5
 20
-35.5
 30
0.0
 40
1.5
100
AcDbArc
 50
180.0
 51
270.0
  0
ARC
  5
119
330
1F
100
AcDbEntity
  8
0
  6
Continuous
 62
     7
370
    25
100
AcDbCircle
 10
30.5
 20
-35.5
 30
0.0
 40
1.499999999999996
100
AcDbArc
 50
270.0
 51
0.0
  0
ARC
  5
11A
330
1F
100
AcDbEntity
  8
0
  6
Continuous
 62
     7
370
    25
100
AcDbCircle
 10
35.5
 20
30.5
 30
0.0
 40
1.500000000000007
100
AcDbArc
 50
0.0
 51
90.0
  0
ARC
  5
11B
330
1F
100
AcDbEntity
  8
0
  6
Continuous
 62
     7
370
    25
100
AcDbCircle
 10
-34.0
 20
30.5
 30
0.0
 40
1.499999999999996
100
AcDbArc
 50
90.0
 51
180.0
  0
ARC
  5
11C
330
1F
100
AcDbEntity
  8
0
  6
Continuous
 62
     7
370
    25
100
AcDbCircle
 10
-35.5
 20
35.5
 30
0.0
 40
3.5
100
AcDbArc
 50
90.0
 51
180.0
  0
ARC
  5
11D
330
1F
100
AcDbEntity
  8
0
  6
Continuous
 62
     7
370
    25
100
AcDbCircle
 10
35.5
 20
35.5
 30
0.0
 40
3.5
100
AcDbArc
 50
0.0
 51
90.0
  0
ARC
  5
11E
330
1F
100
AcDbEntity
  8
0
  6
Continuous
 62
     7
370
    25
100
AcDbCircle
 10
-33.5
 20
33.5
 30
0.0
 40
1.500000000000014
100
AcDbArc
 50
270.0
 51
0.0
  0
ARC
  5
11F
330
1F
100
AcDbEntity
  8
0
  6
Continuous
 62
     7
370
    25
100
AcDbCircle
 10
-30.5
 20
35.5
 30
0.0
 40
1.500000000000007
100
AcDbArc
 50
90.0
 51
180.0
  0
ARC
  5
120
330
1F
100
AcDbEntity
  8
0
  6
Continuous
 62
     7
370
    25
100
AcDbCircle
 10
33.5
 20
33.5
 30
0.0
 40
1.500000000000014
100
AcDbArc
 50
180.0
 51
270.0
  0
ARC
  5
121
330
1F
100
AcDbEntity
  8
0
  6
Continuous
 62
     7
370
    25
100
AcDbCircle
 10
30.5
 20
35.5
 30
0.0
 40
1.500000000000004
100
AcDbArc
 50
0.0
 51
90.0
  0
ARC
  5
122
330
1F
100
AcDbEntity
  8
0
  6
Continuous
 62
     7
370
    25
100
AcDbCircle
 10
44.0
 20
-21.75
 30
0.0
 40
5.299999999999929
100
AcDbArc
 50
160.6299617545
 51
199.3700382455
  0
MTEXT
  5
124
330
1F
100
AcDbEntity
  8
0
  6
Continuous
 62
     7
100
AcDbMText
 10
-39.0
 20
-47.2699963917
 30
0.0
 40
4.83362
 41
0.0
 71
     1
 72
     1
  1
SOLIDWORKS \U+6559\U+80B2\U+7248\U+54C1\U+3002\U+4F9B\U+6559\U+5B66\U+4F7F\U+7528\U+3002
  7
SLDTEXTSTYLE0
 73
     1
 44
1.0
  0
ENDSEC
  0
SECTION
  2
OBJECTS
  0
DICTIONARY
  5
C
330
0
100
AcDbDictionary
281
     1
  3
ACAD_GROUP
350
D
  3
ACAD_LAYOUT
350
1A
  3
ACAD_MLINESTYLE
350
17
  3
ACAD_PLOTSETTINGS
350
19
  3
ACAD_PLOTSTYLENAME
350
E
  3
ACAD_SCALELIST
350
47
  3
DWGPROPS
350
125
  0
DICTIONARY
  5
D
102
{ACAD_REACTORS
330
C
102
}
330
C
100
AcDbDictionary
281
     1
  0
DICTIONARY
  5
1A
102
{ACAD_REACTORS
330
C
102
}
330
C
100
AcDbDictionary
281
     1
  3
Layout1
350
1E
  3
Layout2
350
26
  3
Model
350
22
  0
DICTIONARY
  5
17
102
{ACAD_REACTORS
330
C
102
}
330
C
100
AcDbDictionary
281
     1
  3
Standard
350
18
  0
DICTIONARY
  5
19
102
{ACAD_REACTORS
330
C
102
}
330
C
100
AcDbDictionary
281
     1
  0
ACDBDICTIONARYWDFLT
  5
E
102
{ACAD_REACTORS
330
C
102
}
330
C
100
AcDbDictionary
281
     1
  3
Normal
350
F
100
AcDbDictionaryWithDefault
340
F
  0
DICTIONARY
  5
47
102
{ACAD_REACTORS
330
C
102
}
330
C
100
AcDbDictionary
281
     1
  3
A0
350
48
  3
A1
350
49
  3
A2
350
4A
  3
A3
350
4B
  3
A4
350
4C
  3
A5
350
4D
  3
A6
350
4E
  3
A7
350
4F
  3
A8
350
50
  3
A9
350
51
  3
B0
350
52
  3
B1
350
53
  3
B2
350
54
  3
B3
350
55
  3
B4
350
56
  3
B5
350
57
  3
B6
350
58
  0
XRECORD
  5
125
102
{ACAD_REACTORS
330
C
102
}
330
C
100
AcDbXrecord
280
     1
  1
DWGPROPS COOKIE
  2

  3

  4

  6

  7

  8
Wenting
  9

300
=
301
=
302
=
303
=
304
=
305
=
306
=
307
=
308
=
309
=
 40
0.0
 41
2460533.532271424
 42
2460533.532379283
  1

 90
        0
  0
LAYOUT
  5
1E
102
{ACAD_REACTORS
330
1A
102
}
330
1A
100
AcDbPlotSettings
  1

  2
none_device
  4

  6

 40
0.0
 41
0.0
 42
0.0
 43
0.0
 44
0.0
 45
0.0
 46
0.0
 47
0.0
 48
0.0
 49
0.0
140
0.0
141
0.0
142
1.0
143
1.0
 70
   688
 72
     1
 73
     0
 74
     5
  7

 75
    16
147
1.0
148
0.0
149
0.0
100
AcDbLayout
  1
Layout1
 70
     1
 71
     1
 10
0.0
 20
0.0
 11
420.0
 21
297.0
 12
0.0
 22
0.0
 32
0.0
 14
1.0000000000E+20
 24
1.0000000000E+20
 34
1.0000000000E+20
 15
-1.0000000000E+20
 25
-1.0000000000E+20
 35
-1.0000000000E+20
146
0.0
 13
0.0
 23
0.0
 33
0.0
 16
1.0
 26
0.0
 36
0.0
 17
0.0
 27
1.0
 37
0.0
 76
     0
330
1B
  0
LAYOUT
  5
26
102
{ACAD_REACTORS
330
1A
102
}
330
1A
100
AcDbPlotSettings
  1

  2
none_device
  4

  6

 40
0.0
 41
0.0
 42
0.0
 43
0.0
 44
0.0
 45
0.0
 46
0.0
 47
0.0
 48
0.0
 49
0.0
140
0.0
141
0.0
142
1.0
143
1.0
 70
   688
 72
     1
 73
     0
 74
     5
  7

 75
    16
147
1.0
148
0.0
149
0.0
100
AcDbLayout
  1
Layout2
 70
     1
 71
     2
 10
0.0
 20
0.0
 11
0.0
 21
0.0
 12
0.0
 22
0.0
 32
0.0
 14
0.0
 24
0.0
 34
0.0
 15
0.0
 25
0.0
 35
0.0
146
0.0
 13
0.0
 23
0.0
 33
0.0
 16
1.0
 26
0.0
 36
0.0
 17
0.0
 27
1.0
 37
0.0
 76
     0
330
23
  0
LAYOUT
  5
22
102
{ACAD_REACTORS
330
1A
102
}
330
1A
100
AcDbPlotSettings
  1

  2
none_device
  4
ANSI_A_(11.00_x_8.50_Inches)
  6

 40
6.35
 41
19.05
 42
6.35000508
 43
19.05000254
 44
279.4
 45
215.9
 46
133.34999746
 47
88.89999873
 48
0.0
 49
0.0
140
0.0
141
0.0
142
0.1078846154
143
1.0
 70
  1696
 72
     0
 73
     0
 74
     0
  7

 75
     0
147
0.0179189148
148
-1300.4909072572
149
0.0
100
AcDbLayout
  1
Model
 70
     1
 71
     0
 10
0.0
 20
0.0
 11
420.0
 21
297.0
 12
0.0
 22
0.0
 32
0.0
 14
-39.0
 24
-39.0
 34
0.0
 15
39.0
 25
39.0
 35
0.0
146
0.0
 13
0.0
 23
0.0
 33
0.0
 16
1.0
 26
0.0
 36
0.0
 17
0.0
 27
1.0
 37
0.0
 76
     0
330
1F
331
29
  0
MLINESTYLE
  5
18
102
{ACAD_REACTORS
330
17
102
}
330
17
100
AcDbMlineStyle
  2
Standard
 70
     0
  3

 62
   256
 51
90.0
 52
90.0
 71
     2
 49
0.5
 62
   256
  6
BYLAYER
 49
-0.5
 62
   256
  6
BYLAYER
  0
ACDBPLACEHOLDER
  5
F
102
{ACAD_REACTORS
330
E
102
}
330
E
  0
SCALE
  5
48
102
{ACAD_REACTORS
330
47
102
}
330
47
100
AcDbScale
 70
     0
300
1:1
140
1.0
141
1.0
290
     1
  0
SCALE
  5
49
102
{ACAD_REACTORS
330
47
102
}
330
47
100
AcDbScale
 70
     0
300
1:2
140
1.0
141
2.0
290
     0
  0
SCALE
  5
4A
102
{ACAD_REACTORS
330
47
102
}
330
47
100
AcDbScale
 70
     0
300
1:4
140
1.0
141
4.0
290
     0
  0
SCALE
  5
4B
102
{ACAD_REACTORS
330
47
102
}
330
47
100
AcDbScale
 70
     0
300
1:5
140
1.0
141
5.0
290
     0
  0
SCALE
  5
4C
102
{ACAD_REACTORS
330
47
102
}
330
47
100
AcDbScale
 70
     0
300
1:8
140
1.0
141
8.0
290
     0
  0
SCALE
  5
4D
102
{ACAD_REACTORS
330
47
102
}
330
47
100
AcDbScale
 70
     0
300
1:10
140
1.0
141
10.0
290
     0
  0
SCALE
  5
4E
102
{ACAD_REACTORS
330
47
102
}
330
47
100
AcDbScale
 70
     0
300
1:16
140
1.0
141
16.0
290
     0
  0
SCALE
  5
4F
102
{ACAD_REACTORS
330
47
102
}
330
47
100
AcDbScale
 70
     0
300
1:20
140
1.0
141
20.0
290
     0
  0
SCALE
  5
50
102
{ACAD_REACTORS
330
47
102
}
330
47
100
AcDbScale
 70
     0
300
1:30
140
1.0
141
30.0
290
     0
  0
SCALE
  5
51
102
{ACAD_REACTORS
330
47
102
}
330
47
100
AcDbScale
 70
     0
300
1:40
140
1.0
141
40.0
290
     0
  0
SCALE
  5
52
102
{ACAD_REACTORS
330
47
102
}
330
47
100
AcDbScale
 70
     0
300
1:50
140
1.0
141
50.0
290
     0
  0
SCALE
  5
53
102
{ACAD_REACTORS
330
47
102
}
330
47
100
AcDbScale
 70
     0
300
1:100
140
1.0
141
100.0
290
     0
  0
SCALE
  5
54
102
{ACAD_REACTORS
330
47
102
}
330
47
100
AcDbScale
 70
     0
300
2:1
140
2.0
141
1.0
290
     0
  0
SCALE
  5
55
102
{ACAD_REACTORS
330
47
102
}
330
47
100
AcDbScale
 70
     0
300
4:1
140
4.0
141
1.0
290
     0
  0
SCALE
  5
56
102
{ACAD_REACTORS
330
47
102
}
330
47
100
AcDbScale
 70
     0
300
8:1
140
8.0
141
1.0
290
     0
  0
SCALE
  5
57
102
{ACAD_REACTORS
330
47
102
}
330
47
100
AcDbScale
 70
     0
300
10:1
140
10.0
141
1.0
290
     0
  0
SCALE
  5
58
102
{ACAD_REACTORS
330
47
102
}
330
47
100
AcDbScale
 70
     0
300
100:1
140
100.0
141
1.0
290
     0
  0
ENDSEC
  0
EOF
