*
*
G04 PADS VX.2 Build Number: 5060570 generated Gerber (RS-274-X) file*
G04 PC Version=2.1*
*
%IN "CaptureBoard.pcb"*%
*
%MOIN*%
*
%FSLAX35Y35*%
*
*
*
*
G04 PC Standard Apertures*
*
*
G04 Thermal Relief Aperture macro.*
%AMTER*
1,1,$1,0,0*
1,0,$1-$2,0,0*
21,0,$3,$4,0,0,45*
21,0,$3,$4,0,0,135*
%
*
*
G04 Annular Aperture macro.*
%AMANN*
1,1,$1,0,0*
1,0,$2,0,0*
%
*
*
G04 Odd Aperture macro.*
%AMODD*
1,1,$1,0,0*
1,0,$1-0.005,0,0*
%
*
*
G04 PC Custom Aperture Macros*
*
*
*
*
*
*
G04 PC Aperture Table*
*
%ADD010C,0.001*%
%ADD011R,0.017X0.01968*%
%ADD012R,0.01181X0.01968*%
%ADD013R,0.0315X0.03543*%
%ADD019R,0.05906X0.05906*%
%ADD029R,0.04488X0.05*%
%ADD030R,0.04724X0.04724*%
%ADD043R,0.06X0.06*%
%ADD044C,0.06*%
%ADD053R,0.07874X0.08661*%
%ADD058C,0.01*%
%ADD073C,0.07874*%
%ADD075C,0.09843*%
%ADD076C,0.0394*%
%ADD077R,0.03543X0.05906*%
%ADD078R,0.05906X0.03543*%
%ADD079R,0.05315X0.01575*%
%ADD080R,0.0748X0.0748*%
%ADD081C,0.02559*%
%ADD126C,0.005*%
%ADD138C,0.00709*%
*
*
*
*
G04 PC Circuitry*
G04 Layer Name CaptureBoard.pcb - circuitry*
%LPD*%
*
*
G04 PC Custom Flashes*
G04 Layer Name CaptureBoard.pcb - flashes*
%LPD*%
*
*
G04 PC Circuitry*
G04 Layer Name CaptureBoard.pcb - circuitry*
%LPD*%
*
G54D10*
G01X103161Y370430D02*
X103605Y371243D01*
X103161Y340167D02*
X105633Y341519D01*
X103605Y339354D02*
X106125Y340732D01*
X112326Y372621D02*
X115869D01*
X106125Y369865D02*
X112326D01*
X115869D02*
X125318D01*
X105633Y367897D02*
X104243D01*
X125318Y360928D02*
X126696D01*
Y359905D02*
X125318D01*
Y358369D02*
X126696D01*
Y357346D02*
X125318D01*
Y353251D02*
X126696D01*
Y352228D02*
X125318D01*
Y350692D02*
X126696D01*
Y349669D02*
X125318D01*
X105633Y342700D02*
X104243D01*
X125318Y340732D02*
X115869D01*
X112326D02*
X106125D01*
X115869Y337976D02*
X112326D01*
X103605Y371243D02*
X106125Y369865D01*
X105633Y369078D02*
X103161Y370430D01*
X126696Y360928D02*
Y359905D01*
Y358369D02*
Y357346D01*
Y353251D02*
Y352228D01*
Y350692D02*
Y349669D01*
X125318Y340732D02*
Y369865D01*
X115869Y372621D02*
Y369865D01*
Y340732D02*
Y337976D01*
X112326D02*
Y340732D01*
Y369865D02*
Y372621D01*
X103605Y339354D02*
X103161Y340167D01*
X105633Y341519D02*
Y342700D01*
Y367897D02*
Y369078D01*
X103161Y343881D02*
Y366716D01*
X103605Y339354D02*
X103161Y340167D01*
X105633Y369078D02*
X103161Y370430D01*
X103605Y371243D02*
X106125Y369865D01*
X110455Y340732D02*
X106125D01*
X105633Y342700D02*
X104243D01*
X105633Y367897D02*
X104243D01*
X106125Y369865D02*
X110455D01*
X103605Y339354D02*
X106125Y340732D01*
X103161Y340167D02*
X105633Y341519D01*
X103161Y370430D02*
X103605Y371243D01*
X105633Y341519D02*
Y342700D01*
Y367897D02*
Y369078D01*
X103161Y343881D02*
Y366716D01*
X103162Y366715D02*
Y366727D01*
X103166Y366739*
Y366751*
X103170Y366762*
Y366774*
X103174Y366786*
X103178Y366798*
Y366810*
X103182Y366821*
Y366833*
X103186Y366845*
X103190Y366857*
Y366869*
X103194Y366877*
Y366888*
X103198Y366900*
X103202Y366912*
Y366924*
X103206Y366936*
X103210Y366947*
Y366959*
X103214Y366971*
X103218Y366983*
Y366991*
X103222Y367003*
X103225Y367014*
Y367026*
X103229Y367038*
X103233Y367050*
X103237Y367062*
Y367069*
X103241Y367081*
X103245Y367093*
X103249Y367105*
X103253Y367113*
Y367125*
X103257Y367136*
X103261Y367148*
X103265Y367156*
X103269Y367168*
X103273Y367180*
Y367188*
X103277Y367199*
X103281Y367211*
X103285Y367219*
X103288Y367231*
X103292Y367243*
X103296Y367251*
X103300Y367262*
X103304Y367270*
X103308Y367282*
X103312Y367290*
X103316Y367302*
X103320Y367310*
X103328Y367321*
X103332Y367329*
X103336Y367341*
X103340Y367349*
X103344Y367357*
X103348Y367369*
X103355Y367377*
X103359Y367388*
X103363Y367396*
X103367Y367404*
X103375Y367412*
X103379Y367424*
X103383Y367432*
X103391Y367440*
X103395Y367447*
X103403Y367455*
X103407Y367467*
X103414Y367475*
X103418Y367483*
X103426Y367491*
X103430Y367499*
X103438Y367506*
X103446Y367514*
X103450Y367522*
X103458Y367530*
X103466Y367538*
X103470Y367546*
X103477Y367550*
X103485Y367558*
X103493Y367566*
X103501Y367573*
X103505Y367581*
X103513Y367585*
X103521Y367593*
X103529Y367601*
X103537Y367605*
X103544Y367613*
X103552Y367617*
X103560Y367625*
X103568Y367632*
X103576Y367636*
X103588Y367644*
X103596Y367648*
X103603Y367656*
X103611Y367660*
X103619Y367664*
X103631Y367672*
X103639Y367676*
X103647Y367684*
X103659Y367688*
X103666Y367692*
X103666D02*
X103674Y367699D01*
X103686Y367703*
X103694Y367707*
X103702Y367711*
X103714Y367719*
X103722Y367723*
X103733Y367727*
X103741Y367731*
X103753Y367735*
X103761Y367739*
X103773Y367747*
X103781Y367751*
X103792Y367754*
X103804Y367758*
X103812Y367762*
X103824Y367766*
X103832Y367770*
X103844Y367774*
X103855Y367778*
X103863Y367782*
X103875Y367786*
X103887Y367790*
X103895Y367794*
X103907Y367798*
X103918Y367802*
X103930Y367806*
X103938Y367810*
X103950Y367814*
X103962Y367817*
X103974*
X103981Y367821*
X103993Y367825*
X104005Y367829*
X104017Y367833*
X104029Y367837*
X104040Y367841*
X104048*
X104060Y367845*
X104072Y367849*
X104084Y367853*
X104096Y367857*
X104107Y367861*
X104119*
X104127Y367865*
X104139Y367869*
X104151Y367873*
X104162Y367877*
X104174*
X104186Y367880*
X104198Y367884*
X104210Y367888*
X104222Y367892*
X104229*
X104241Y367896*
Y342699D02*
X104229Y342703D01*
X104222Y342707*
X104210Y342711*
X104198*
X104186Y342715*
X104174Y342719*
X104162Y342723*
X104151Y342727*
X104139*
X104127Y342731*
X104119Y342735*
X104107Y342739*
X104096Y342743*
X104084*
X104072Y342747*
X104060Y342751*
X104048Y342754*
X104040Y342758*
X104029Y342762*
X104017*
X104005Y342766*
X103993Y342770*
X103981Y342774*
X103974Y342778*
X103962Y342782*
X103950Y342786*
X103938Y342790*
X103930Y342794*
X103918Y342798*
X103907*
X103895Y342802*
X103887Y342806*
X103875Y342810*
X103863Y342814*
X103855Y342817*
X103844Y342821*
X103832Y342825*
X103824Y342829*
X103812Y342833*
X103804Y342841*
X103792Y342845*
X103781Y342849*
X103773Y342853*
X103761Y342857*
X103753Y342861*
X103741Y342865*
X103733Y342869*
X103722Y342877*
X103714Y342880*
X103702Y342884*
X103694Y342888*
X103686Y342896*
X103674Y342900*
X103666Y342904*
X103659Y342908*
X103647Y342916*
X103639Y342920*
X103631Y342928*
X103619Y342932*
X103611Y342936*
X103603Y342943*
X103596Y342947*
X103588Y342955*
X103576Y342959*
X103568Y342967*
X103560Y342971*
X103552Y342979*
X103544Y342983*
X103537Y342991*
X103529Y342999*
X103521Y343003*
X103513Y343010*
X103505Y343018*
X103501Y343026*
X103493Y343030*
X103485Y343038*
X103477Y343046*
X103470Y343054*
X103466Y343062*
X103458Y343069*
X103450Y343077*
X103446Y343085*
X103438Y343093*
X103430Y343101*
X103426Y343109*
X103418Y343117*
X103414Y343125*
X103407Y343132*
X103403Y343140*
X103395Y343148*
X103391Y343156*
X103383Y343164*
X103379Y343176*
X103375Y343184*
X103367Y343192*
X103367D02*
X103363Y343203D01*
X103359Y343211*
X103355Y343219*
X103348Y343231*
X103344Y343239*
X103340Y343247*
X103336Y343258*
X103332Y343266*
X103328Y343278*
X103320Y343286*
X103316Y343298*
X103312Y343306*
X103308Y343317*
X103304Y343325*
X103300Y343337*
X103296Y343345*
X103292Y343357*
X103288Y343365*
X103285Y343377*
X103281Y343388*
X103277Y343396*
X103273Y343408*
Y343420*
X103269Y343428*
X103265Y343440*
X103261Y343451*
X103257Y343459*
X103253Y343471*
Y343483*
X103249Y343495*
X103245Y343503*
X103241Y343514*
X103237Y343526*
Y343538*
X103233Y343550*
X103229Y343558*
X103225Y343569*
Y343581*
X103222Y343593*
X103218Y343605*
Y343617*
X103214Y343629*
X103210Y343640*
Y343648*
X103206Y343660*
X103202Y343672*
Y343684*
X103198Y343695*
X103194Y343707*
Y343719*
X103190Y343731*
Y343743*
X103186Y343754*
X103182Y343766*
Y343778*
X103178Y343790*
Y343798*
X103174Y343810*
X103170Y343821*
Y343833*
X103166Y343845*
Y343857*
X103162Y343869*
Y343880*
Y366715D02*
Y366727D01*
X103166Y366739*
Y366751*
X103170Y366762*
Y366774*
X103174Y366786*
X103178Y366798*
Y366810*
X103182Y366821*
Y366833*
X103186Y366845*
X103190Y366857*
Y366869*
X103194Y366877*
Y366888*
X103198Y366900*
X103202Y366912*
Y366924*
X103206Y366936*
X103210Y366947*
Y366959*
X103214Y366971*
X103218Y366983*
Y366991*
X103222Y367003*
X103225Y367014*
Y367026*
X103229Y367038*
X103233Y367050*
X103237Y367062*
Y367069*
X103241Y367081*
X103245Y367093*
X103249Y367105*
X103253Y367113*
Y367125*
X103257Y367136*
X103261Y367148*
X103265Y367156*
X103269Y367168*
X103273Y367180*
Y367188*
X103277Y367199*
X103281Y367211*
X103285Y367219*
X103288Y367231*
X103292Y367243*
X103296Y367251*
X103300Y367262*
X103304Y367270*
X103308Y367282*
X103312Y367290*
X103316Y367302*
X103320Y367310*
X103328Y367321*
X103332Y367329*
X103336Y367341*
X103340Y367349*
X103344Y367357*
X103348Y367369*
X103355Y367377*
X103359Y367388*
X103363Y367396*
X103367Y367404*
X103375Y367412*
X103379Y367424*
X103383Y367432*
X103391Y367440*
X103395Y367447*
X103403Y367455*
X103407Y367467*
X103414Y367475*
X103418Y367483*
X103426Y367491*
X103430Y367499*
X103438Y367506*
X103446Y367514*
X103450Y367522*
X103458Y367530*
X103466Y367538*
X103470Y367546*
X103477Y367550*
X103485Y367558*
X103493Y367566*
X103501Y367573*
X103505Y367581*
X103513Y367585*
X103521Y367593*
X103529Y367601*
X103537Y367605*
X103544Y367613*
X103552Y367617*
X103560Y367625*
X103568Y367632*
X103576Y367636*
X103588Y367644*
X103596Y367648*
X103603Y367656*
X103611Y367660*
X103619Y367664*
X103631Y367672*
X103639Y367676*
X103647Y367684*
X103659Y367688*
X103666Y367692*
X103666D02*
X103674Y367699D01*
X103686Y367703*
X103694Y367707*
X103702Y367711*
X103714Y367719*
X103722Y367723*
X103733Y367727*
X103741Y367731*
X103753Y367735*
X103761Y367739*
X103773Y367747*
X103781Y367751*
X103792Y367754*
X103804Y367758*
X103812Y367762*
X103824Y367766*
X103832Y367770*
X103844Y367774*
X103855Y367778*
X103863Y367782*
X103875Y367786*
X103887Y367790*
X103895Y367794*
X103907Y367798*
X103918Y367802*
X103930Y367806*
X103938Y367810*
X103950Y367814*
X103962Y367817*
X103974*
X103981Y367821*
X103993Y367825*
X104005Y367829*
X104017Y367833*
X104029Y367837*
X104040Y367841*
X104048*
X104060Y367845*
X104072Y367849*
X104084Y367853*
X104096Y367857*
X104107Y367861*
X104119*
X104127Y367865*
X104139Y367869*
X104151Y367873*
X104162Y367877*
X104174*
X104186Y367880*
X104198Y367884*
X104210Y367888*
X104222Y367892*
X104229*
X104241Y367896*
Y342699D02*
X104229Y342703D01*
X104222Y342707*
X104210Y342711*
X104198*
X104186Y342715*
X104174Y342719*
X104162Y342723*
X104151Y342727*
X104139*
X104127Y342731*
X104119Y342735*
X104107Y342739*
X104096Y342743*
X104084*
X104072Y342747*
X104060Y342751*
X104048Y342754*
X104040Y342758*
X104029Y342762*
X104017*
X104005Y342766*
X103993Y342770*
X103981Y342774*
X103974Y342778*
X103962Y342782*
X103950Y342786*
X103938Y342790*
X103930Y342794*
X103918Y342798*
X103907*
X103895Y342802*
X103887Y342806*
X103875Y342810*
X103863Y342814*
X103855Y342817*
X103844Y342821*
X103832Y342825*
X103824Y342829*
X103812Y342833*
X103804Y342841*
X103792Y342845*
X103781Y342849*
X103773Y342853*
X103761Y342857*
X103753Y342861*
X103741Y342865*
X103733Y342869*
X103722Y342877*
X103714Y342880*
X103702Y342884*
X103694Y342888*
X103686Y342896*
X103674Y342900*
X103666Y342904*
X103659Y342908*
X103647Y342916*
X103639Y342920*
X103631Y342928*
X103619Y342932*
X103611Y342936*
X103603Y342943*
X103596Y342947*
X103588Y342955*
X103576Y342959*
X103568Y342967*
X103560Y342971*
X103552Y342979*
X103544Y342983*
X103537Y342991*
X103529Y342999*
X103521Y343003*
X103513Y343010*
X103505Y343018*
X103501Y343026*
X103493Y343030*
X103485Y343038*
X103477Y343046*
X103470Y343054*
X103466Y343062*
X103458Y343069*
X103450Y343077*
X103446Y343085*
X103438Y343093*
X103430Y343101*
X103426Y343109*
X103418Y343117*
X103414Y343125*
X103407Y343132*
X103403Y343140*
X103395Y343148*
X103391Y343156*
X103383Y343164*
X103379Y343176*
X103375Y343184*
X103367Y343192*
X103367D02*
X103363Y343203D01*
X103359Y343211*
X103355Y343219*
X103348Y343231*
X103344Y343239*
X103340Y343247*
X103336Y343258*
X103332Y343266*
X103328Y343278*
X103320Y343286*
X103316Y343298*
X103312Y343306*
X103308Y343317*
X103304Y343325*
X103300Y343337*
X103296Y343345*
X103292Y343357*
X103288Y343365*
X103285Y343377*
X103281Y343388*
X103277Y343396*
X103273Y343408*
Y343420*
X103269Y343428*
X103265Y343440*
X103261Y343451*
X103257Y343459*
X103253Y343471*
Y343483*
X103249Y343495*
X103245Y343503*
X103241Y343514*
X103237Y343526*
Y343538*
X103233Y343550*
X103229Y343558*
X103225Y343569*
Y343581*
X103222Y343593*
X103218Y343605*
Y343617*
X103214Y343629*
X103210Y343640*
Y343648*
X103206Y343660*
X103202Y343672*
Y343684*
X103198Y343695*
X103194Y343707*
Y343719*
X103190Y343731*
Y343743*
X103186Y343754*
X103182Y343766*
Y343778*
X103178Y343790*
Y343798*
X103174Y343810*
X103170Y343821*
Y343833*
X103166Y343845*
Y343857*
X103162Y343869*
Y343880*
G54D11*
X457877Y120425D03*
X463979D03*
Y116487D03*
X457877D03*
G54D12*
X459944Y120424D03*
X461912D03*
Y116487D03*
X459944D03*
G54D13*
X316928Y117456D03*
X323818D03*
X278928D03*
X285818D03*
X392928D03*
X399818D03*
X354928D03*
X361818D03*
G54D19*
X115928Y120314D03*
X125928D03*
X135928D03*
G54D29*
X311668Y117456D03*
X304188D03*
X273668D03*
X266188D03*
X387668D03*
X380188D03*
X349668D03*
X342188D03*
G54D30*
X258601Y166381D03*
X265601D03*
X272601D03*
X279601D03*
X286601D03*
X293601D03*
X300601D03*
X307601D03*
X314601D03*
X321601D03*
X328601D03*
X335601D03*
X342601D03*
X349601D03*
X356601D03*
X363601D03*
X370601D03*
X377601D03*
X384601D03*
X391601D03*
Y295869D03*
X384601D03*
X377601D03*
X370601D03*
X363601D03*
X356601D03*
X349601D03*
X342601D03*
X335601D03*
X328601D03*
X321601D03*
X314601D03*
X307601D03*
X300601D03*
X293601D03*
X286601D03*
X279601D03*
X272601D03*
X265601D03*
X258601D03*
G54D43*
X408928Y114456D03*
X418928Y298456D03*
Y318456D03*
G54D44*
X408928Y124456D03*
X418928Y114456D03*
Y124456D03*
X428928Y114456D03*
Y124456D03*
X438928Y114456D03*
Y124456D03*
X448928Y114456D03*
Y124456D03*
X418928Y308456D03*
X428928Y298456D03*
Y308456D03*
X438928Y298456D03*
Y308456D03*
X448928Y298456D03*
Y308456D03*
X458928Y298456D03*
Y308456D03*
X418928Y328456D03*
X428928Y318456D03*
Y328456D03*
X438928Y318456D03*
Y328456D03*
X448928Y318456D03*
Y328456D03*
X458928Y318456D03*
Y328456D03*
G54D53*
X114101Y366578D03*
Y344334D03*
G54D58*
X499473Y373359D02*
Y109579D01*
X261048*
Y126510*
X182308*
Y109579*
X105772*
Y373359*
X231756*
Y333989*
X381363*
Y373359*
X499473*
X162928Y197456D02*
Y144456D01*
X183928*
Y197456*
X162928*
G54D73*
X311928Y194456D03*
X344928Y316456D03*
X209883Y253901D03*
X311928Y241456D03*
G54D75*
X145928Y228456D03*
G54D76*
X398798Y202326D03*
X393798Y264326D03*
X387798Y259326D03*
Y264326D03*
X389798Y197326D03*
X377798D03*
X407798Y257326D03*
X422798D03*
X417798D03*
X412798D03*
X428798Y208326D03*
X432798Y205326D03*
X428798Y202326D03*
X381798D03*
X383798Y197326D03*
X386798Y202326D03*
X420798Y264326D03*
X415798D03*
X410798D03*
X405798D03*
G54D77*
X146129Y129499D03*
X131562D03*
X146129Y151547D03*
X131562D03*
X147129Y217499D03*
X132562D03*
X147129Y239547D03*
X132562D03*
X147129Y259499D03*
X132562D03*
X147129Y281547D03*
X132562D03*
X128129Y238499D03*
X113562D03*
X128129Y260547D03*
X113562D03*
X166129Y238499D03*
X151562D03*
X166129Y260547D03*
X151562D03*
X489129Y246499D03*
X474562D03*
X489129Y268547D03*
X474562D03*
X489129Y304499D03*
X474562D03*
X489129Y326547D03*
X474562D03*
X489129Y187499D03*
X474562D03*
X489129Y209547D03*
X474562D03*
X489129Y129499D03*
X474562D03*
X489129Y151547D03*
X474562D03*
X146129Y304499D03*
X131562D03*
X146129Y326547D03*
X131562D03*
X146129Y162499D03*
X131562D03*
X146129Y184547D03*
X131562D03*
G54D78*
X455972Y346255D03*
Y360822D03*
X478019Y346255D03*
Y360822D03*
X401972Y346255D03*
Y360822D03*
X424019Y346255D03*
Y360822D03*
G54D79*
X124928Y350338D03*
Y352897D03*
Y355456D03*
Y358015D03*
Y360574D03*
G54D80*
X114101Y350732D03*
Y360180D03*
G54D81*
X122566Y347582D03*
Y363330D03*
G54D126*
X142980Y142439D02*
Y139814D01*
X141708Y142439D02*
X142980Y140689D01*
X142526Y141314D02*
X141708Y139814D01*
X140889Y142439D02*
Y139814D01*
Y142439D02*
X139708D01*
X140889Y141189D02*
X140162D01*
X140889Y139814D02*
X139708D01*
X138889Y142439D02*
X138162Y141189D01*
Y139814*
X137435Y142439D02*
X138162Y141189D01*
X135435Y141564D02*
X135526Y141189D01*
X135708Y140939*
X135980Y140814*
X136071*
X136344Y140939*
X136526Y141189*
X136617Y141564*
Y141689*
X136526Y142064*
X136344Y142314*
X136071Y142439*
X135980*
X135708Y142314*
X135526Y142064*
X135435Y141564*
Y140939*
X135526Y140314*
X135708Y139939*
X135980Y139814*
X136162*
X136435Y139939*
X136526Y140189*
X139455Y224633D02*
X136830D01*
X139455Y225906D02*
X137705Y224633D01*
X138330Y225088D02*
X136830Y225906D01*
X139455Y226724D02*
X136830D01*
X139455D02*
Y227906D01*
X138205Y226724D02*
Y227452D01*
X136830Y226724D02*
Y227906D01*
X139455Y228724D02*
X138205Y229452D01*
X136830*
X139455Y230179D02*
X138205Y229452D01*
X139455Y232270D02*
X136830Y231361D01*
X139455Y230997D02*
Y232270D01*
X143933Y272214D02*
Y269589D01*
X142660Y272214D02*
X143933Y270464D01*
X143478Y271089D02*
X142660Y269589D01*
X141842Y272214D02*
Y269589D01*
Y272214D02*
X140660D01*
X141842Y270964D02*
X141114D01*
X141842Y269589D02*
X140660D01*
X139842Y272214D02*
X139114Y270964D01*
Y269589*
X138387Y272214D02*
X139114Y270964D01*
X137569Y271714D02*
X137387Y271839D01*
X137114Y272214*
Y269589*
X136296Y271714D02*
X136114Y271839D01*
X135842Y272214*
Y269589*
X471609Y354347D02*
Y351722D01*
X470336Y354347D02*
X471609Y352597D01*
X471154Y353222D02*
X470336Y351722D01*
X469518Y354347D02*
Y351722D01*
Y354347D02*
X468336D01*
X469518Y353097D02*
X468791D01*
X469518Y351722D02*
X468336D01*
X467518Y354347D02*
X466791Y353097D01*
Y351722*
X466064Y354347D02*
X466791Y353097D01*
X464791Y354347D02*
X465064Y354222D01*
X465154Y353972*
Y353722*
X465064Y353472*
X464882Y353347*
X464518Y353222*
X464245Y353097*
X464064Y352847*
X463973Y352597*
Y352222*
X464064Y351972*
X464154Y351847*
X464427Y351722*
X464791*
X465064Y351847*
X465154Y351972*
X465245Y352222*
Y352597*
X465154Y352847*
X464973Y353097*
X464700Y353222*
X464336Y353347*
X464154Y353472*
X464064Y353722*
Y353972*
X464154Y354222*
X464427Y354347*
X464791*
X125367Y251188D02*
Y248563D01*
X124094Y251188D02*
X125367Y249438D01*
X124913Y250063D02*
X124094Y248563D01*
X123276Y251188D02*
Y248563D01*
Y251188D02*
X122094D01*
X123276Y249938D02*
X122549D01*
X123276Y248563D02*
X122094D01*
X121276Y251188D02*
X120549Y249938D01*
Y248563*
X119822Y251188D02*
X120549Y249938D01*
X117913Y250813D02*
X118003Y251063D01*
X118276Y251188*
X118458*
X118731Y251063*
X118913Y250688*
X119003Y250063*
Y249438*
X118913Y248938*
X118731Y248688*
X118458Y248563*
X118367*
X118094Y248688*
X117913Y248938*
X117822Y249313*
Y249438*
X117913Y249813*
X118094Y250063*
X118367Y250188*
X118458*
X118731Y250063*
X118913Y249813*
X119003Y249438*
X162498Y250741D02*
Y248116D01*
X161225Y250741D02*
X162498Y248991D01*
X162043Y249616D02*
X161225Y248116D01*
X160407Y250741D02*
Y248116D01*
Y250741D02*
X159225D01*
X160407Y249491D02*
X159680D01*
X160407Y248116D02*
X159225D01*
X158407Y250741D02*
X157680Y249491D01*
Y248116*
X156953Y250741D02*
X157680Y249491D01*
X154953Y250741D02*
X155862D01*
X155953Y249616*
X155862Y249741*
X155589Y249866*
X155316*
X155043Y249741*
X154862Y249491*
X154771Y249116*
X154862Y248866*
X154953Y248491*
X155134Y248241*
X155407Y248116*
X155680*
X155953Y248241*
X156043Y248366*
X156134Y248616*
X485856Y258748D02*
Y256123D01*
X484583Y258748D02*
X485856Y256998D01*
X485402Y257623D02*
X484583Y256123D01*
X483765Y258748D02*
Y256123D01*
Y258748D02*
X482583D01*
X483765Y257498D02*
X483038D01*
X483765Y256123D02*
X482583D01*
X481765Y258748D02*
X481038Y257498D01*
Y256123*
X480311Y258748D02*
X481038Y257498D01*
X479402Y258123D02*
Y258248D01*
X479311Y258498*
X479220Y258623*
X479038Y258748*
X478674*
X478492Y258623*
X478402Y258498*
X478311Y258248*
Y257998*
X478402Y257748*
X478583Y257373*
X479492Y256123*
X478220*
X311044Y128672D02*
Y126047D01*
Y128672D02*
X310407D01*
X310135Y128547*
X309953Y128297*
X309862Y128047*
X309771Y127672*
Y127047*
X309862Y126672*
X309953Y126422*
X310135Y126172*
X310407Y126047*
X311044*
X308953Y128172D02*
X308771Y128297D01*
X308498Y128672*
Y126047*
X307135Y128672D02*
X307407Y128547D01*
X307589Y128172*
X307680Y127547*
Y127172*
X307589Y126547*
X307407Y126172*
X307135Y126047*
X306953*
X306680Y126172*
X306498Y126547*
X306407Y127172*
Y127547*
X306498Y128172*
X306680Y128547*
X306953Y128672*
X307135*
X305407D02*
X304407D01*
X304953Y127672*
X304680*
X304498Y127547*
X304407Y127422*
X304316Y127047*
Y126797*
X304407Y126422*
X304589Y126172*
X304862Y126047*
X305135*
X305407Y126172*
X305498Y126297*
X305589Y126547*
X273146Y129099D02*
Y126474D01*
Y129099D02*
X272510D01*
X272237Y128974*
X272055Y128724*
X271964Y128474*
X271874Y128099*
Y127474*
X271964Y127099*
X272055Y126849*
X272237Y126599*
X272510Y126474*
X273146*
X271055Y128599D02*
X270874Y128724D01*
X270601Y129099*
Y126474*
X269237Y129099D02*
X269510Y128974D01*
X269692Y128599*
X269783Y127974*
Y127599*
X269692Y126974*
X269510Y126599*
X269237Y126474*
X269055*
X268783Y126599*
X268601Y126974*
X268510Y127599*
Y127974*
X268601Y128599*
X268783Y128974*
X269055Y129099*
X269237*
X267601Y128474D02*
Y128599D01*
X267510Y128849*
X267419Y128974*
X267237Y129099*
X266874*
X266692Y128974*
X266601Y128849*
X266510Y128599*
Y128349*
X266601Y128099*
X266783Y127724*
X267692Y126474*
X266419*
X387693Y128672D02*
Y126047D01*
Y128672D02*
X387057D01*
X386784Y128547*
X386602Y128297*
X386511Y128047*
X386421Y127672*
Y127047*
X386511Y126672*
X386602Y126422*
X386784Y126172*
X387057Y126047*
X387693*
X385602Y128172D02*
X385421Y128297D01*
X385148Y128672*
Y126047*
X383784Y128672D02*
X384057Y128547D01*
X384239Y128172*
X384330Y127547*
Y127172*
X384239Y126547*
X384057Y126172*
X383784Y126047*
X383602*
X383330Y126172*
X383148Y126547*
X383057Y127172*
Y127547*
X383148Y128172*
X383330Y128547*
X383602Y128672*
X383784*
X381057D02*
X381966D01*
X382057Y127547*
X381966Y127672*
X381693Y127797*
X381421*
X381148Y127672*
X380966Y127422*
X380875Y127047*
X380966Y126797*
X381057Y126422*
X381239Y126172*
X381511Y126047*
X381784*
X382057Y126172*
X382148Y126297*
X382239Y126547*
X349368Y128814D02*
Y126189D01*
Y128814D02*
X348732D01*
X348459Y128689*
X348278Y128439*
X348187Y128189*
X348096Y127814*
Y127189*
X348187Y126814*
X348278Y126564*
X348459Y126314*
X348732Y126189*
X349368*
X347278Y128314D02*
X347096Y128439D01*
X346823Y128814*
Y126189*
X345459Y128814D02*
X345732Y128689D01*
X345914Y128314*
X346005Y127689*
Y127314*
X345914Y126689*
X345732Y126314*
X345459Y126189*
X345278*
X345005Y126314*
X344823Y126689*
X344732Y127314*
Y127689*
X344823Y128314*
X345005Y128689*
X345278Y128814*
X345459*
X343005D02*
X343914Y127064D01*
X342550*
X343005Y128814D02*
Y126189D01*
X485714Y317162D02*
Y314537D01*
X484441Y317162D02*
X485714Y315412D01*
X485259Y316037D02*
X484441Y314537D01*
X483623Y317162D02*
Y314537D01*
Y317162D02*
X482441D01*
X483623Y315912D02*
X482895D01*
X483623Y314537D02*
X482441D01*
X481623Y317162D02*
X480895Y315912D01*
Y314537*
X480168Y317162D02*
X480895Y315912D01*
X479350Y316662D02*
X479168Y316787D01*
X478895Y317162*
Y314537*
X485571Y200335D02*
Y197710D01*
X484298Y200335D02*
X485571Y198585D01*
X485117Y199210D02*
X484298Y197710D01*
X483480Y200335D02*
Y197710D01*
Y200335D02*
X482298D01*
X483480Y199085D02*
X482753D01*
X483480Y197710D02*
X482298D01*
X481480Y200335D02*
X480753Y199085D01*
Y197710*
X480026Y200335D02*
X480753Y199085D01*
X479026Y200335D02*
X478026D01*
X478571Y199335*
X478298*
X478117Y199210*
X478026Y199085*
X477935Y198710*
Y198460*
X478026Y198085*
X478208Y197835*
X478480Y197710*
X478753*
X479026Y197835*
X479117Y197960*
X479208Y198210*
X485429Y142492D02*
Y139867D01*
X484156Y142492D02*
X485429Y140742D01*
X484974Y141367D02*
X484156Y139867D01*
X483338Y142492D02*
Y139867D01*
Y142492D02*
X482156D01*
X483338Y141242D02*
X482611D01*
X483338Y139867D02*
X482156D01*
X481338Y142492D02*
X480611Y141242D01*
Y139867*
X479883Y142492D02*
X480611Y141242D01*
X478156Y142492D02*
X479065Y140742D01*
X477701*
X478156Y142492D02*
Y139867D01*
X143261Y316950D02*
Y314325D01*
X141989Y316950D02*
X143261Y315200D01*
X142807Y315825D02*
X141989Y314325D01*
X141171Y316950D02*
Y314325D01*
Y316950D02*
X139989D01*
X141171Y315700D02*
X140443D01*
X141171Y314325D02*
X139989D01*
X139171Y316950D02*
X138443Y315700D01*
Y314325*
X137716Y316950D02*
X138443Y315700D01*
X136898Y316450D02*
X136716Y316575D01*
X136443Y316950*
Y314325*
X135080Y316950D02*
X135352Y316825D01*
X135534Y316450*
X135625Y315825*
Y315450*
X135534Y314825*
X135352Y314450*
X135080Y314325*
X134898*
X134625Y314450*
X134443Y314825*
X134352Y315450*
Y315825*
X134443Y316450*
X134625Y316825*
X134898Y316950*
X135080*
X416900Y354632D02*
Y352007D01*
X415627Y354632D02*
X416900Y352882D01*
X416445Y353507D02*
X415627Y352007D01*
X414809Y354632D02*
Y352007D01*
Y354632D02*
X413627D01*
X414809Y353382D02*
X414082D01*
X414809Y352007D02*
X413627D01*
X412809Y354632D02*
X412082Y353382D01*
Y352007*
X411354Y354632D02*
X412082Y353382D01*
X410536Y354132D02*
X410354Y354257D01*
X410082Y354632*
Y352007*
X409173Y354007D02*
Y354132D01*
X409082Y354382*
X408991Y354507*
X408809Y354632*
X408445*
X408264Y354507*
X408173Y354382*
X408082Y354132*
Y353882*
X408173Y353632*
X408354Y353257*
X409264Y352007*
X407991*
X142278Y175098D02*
Y172473D01*
Y175098D02*
X141460D01*
X141187Y174973*
X141096Y174848*
X141005Y174598*
Y174223*
X141096Y173973*
X141187Y173848*
X141460Y173723*
X142278*
X140187Y175098D02*
X139733Y172473D01*
X139278Y175098D02*
X139733Y172473D01*
X139278Y175098D02*
X138823Y172473D01*
X138369Y175098D02*
X138823Y172473D01*
X137551Y175098D02*
Y172473D01*
Y175098D02*
X136733D01*
X136460Y174973*
X136369Y174848*
X136278Y174598*
Y174348*
X136369Y174098*
X136460Y173973*
X136733Y173848*
X137551*
X136914D02*
X136278Y172473D01*
X462348Y129242D02*
Y126617D01*
Y129242D02*
X461530D01*
X461257Y129117*
X461167Y128992*
X461076Y128742*
Y128492*
X461167Y128242*
X461257Y128117*
X461530Y127992*
X462348*
X461712D02*
X461076Y126617D01*
X460257Y129242D02*
Y126617D01*
Y129242D02*
X459439D01*
X459167Y129117*
X459076Y128992*
X458985Y128742*
Y128367*
X459076Y128117*
X459167Y127992*
X459439Y127867*
X460257*
X458167Y128742D02*
X457985Y128867D01*
X457712Y129242*
Y126617*
X456348Y129242D02*
X456621Y129117D01*
X456803Y128742*
X456894Y128117*
Y127742*
X456803Y127117*
X456621Y126742*
X456348Y126617*
X456167*
X455894Y126742*
X455712Y127117*
X455621Y127742*
Y128117*
X455712Y128742*
X455894Y129117*
X456167Y129242*
X456348*
X454803Y128742D02*
X454621Y128867D01*
X454348Y129242*
Y126617*
X132580Y351342D02*
X130236D01*
X129767Y351455*
X129455Y351683*
X129298Y352024*
Y352251*
X129455Y352592*
X129767Y352819*
X130236Y352933*
X132580*
X132111Y355546D02*
X132423Y355319D01*
X132580Y354978*
Y354524*
X132423Y354183*
X132111Y353955*
X131798*
X131486Y354069*
X131330Y354183*
X131173Y354410*
X130861Y355092*
X130705Y355319*
X130548Y355433*
X130236Y355546*
X129767*
X129455Y355319*
X129298Y354978*
Y354524*
X129455Y354183*
X129767Y353955*
X132580Y356569D02*
X129298D01*
X132580D02*
Y357592D01*
X132423Y357933*
X132267Y358046*
X131955Y358160*
X131642*
X131330Y358046*
X131173Y357933*
X131017Y357592*
Y356569D02*
Y357592D01*
X130861Y357933*
X130705Y358046*
X130392Y358160*
X129923*
X129611Y358046*
X129455Y357933*
X129298Y357592*
Y356569*
G54D138*
X150263Y146428D02*
X143373D01*
Y151940*
X134318*
Y146428*
X127428*
Y134617*
X134318*
Y129106*
X143373*
Y134617*
X150263*
Y146428*
X142979Y140523D02*
G75*
G03X142979I-4133J0D01*
G01X138846Y144657D02*
Y136586D01*
X142586Y140523D02*
X134712D01*
X151263Y234428D02*
X144373D01*
Y239940*
X135318*
Y234428*
X128428*
Y222617*
X135318*
Y217106*
X144373*
Y222617*
X151263*
Y234428*
X143979Y228523D02*
G03X143979I-4133J0D01*
G01X139846Y232657D02*
Y224586D01*
X143586Y228523D02*
X135712D01*
X151263Y276428D02*
X144373D01*
Y281940*
X135318*
Y276428*
X128428*
Y264617*
X135318*
Y259106*
X144373*
Y264617*
X151263*
Y276428*
X143979Y270523D02*
G03X143979I-4133J0D01*
G01X139846Y274657D02*
Y266586D01*
X143586Y270523D02*
X135712D01*
X472901Y342121D02*
Y349011D01*
X478412*
Y358066*
X472901*
Y364956*
X461090*
Y358066*
X455578*
Y349011*
X461090*
Y342121*
X472901*
X471129Y353539D02*
G03X471129I-4134J0D01*
G01X463058*
X466995Y349799D02*
Y357673D01*
X132263Y255428D02*
X125373D01*
Y260940*
X116318*
Y255428*
X109428*
Y243617*
X116318*
Y238106*
X125373*
Y243617*
X132263*
Y255428*
X124979Y249523D02*
G03X124979I-4133J0D01*
G01X120846Y253657D02*
Y245586D01*
X124586Y249523D02*
X116712D01*
X170263Y255428D02*
X163373D01*
Y260940*
X154318*
Y255428*
X147428*
Y243617*
X154318*
Y238106*
X163373*
Y243617*
X170263*
Y255428*
X162979Y249523D02*
G03X162979I-4133J0D01*
G01X158846Y253657D02*
Y245586D01*
X162586Y249523D02*
X154712D01*
X493263Y263428D02*
X486373D01*
Y268940*
X477318*
Y263428*
X470428*
Y251617*
X477318*
Y246106*
X486373*
Y251617*
X493263*
Y263428*
X485979Y257523D02*
G03X485979I-4133J0D01*
G01X481846Y261657D02*
Y253586D01*
X485586Y257523D02*
X477712D01*
X493263Y321428D02*
X486373D01*
Y326940*
X477318*
Y321428*
X470428*
Y309617*
X477318*
Y304106*
X486373*
Y309617*
X493263*
Y321428*
X485979Y315523D02*
G03X485979I-4133J0D01*
G01X481846Y319657D02*
Y311586D01*
X485586Y315523D02*
X477712D01*
X493263Y204428D02*
X486373D01*
Y209940*
X477318*
Y204428*
X470428*
Y192617*
X477318*
Y187106*
X486373*
Y192617*
X493263*
Y204428*
X485979Y198523D02*
G03X485979I-4133J0D01*
G01X481846Y202657D02*
Y194586D01*
X485586Y198523D02*
X477712D01*
X493263Y146428D02*
X486373D01*
Y151940*
X477318*
Y146428*
X470428*
Y134617*
X477318*
Y129106*
X486373*
Y134617*
X493263*
Y146428*
X485979Y140523D02*
G03X485979I-4133J0D01*
G01X481846Y144657D02*
Y136586D01*
X485586Y140523D02*
X477712D01*
X150263Y321428D02*
X143373D01*
Y326940*
X134318*
Y321428*
X127428*
Y309617*
X134318*
Y304106*
X143373*
Y309617*
X150263*
Y321428*
X142979Y315523D02*
G03X142979I-4133J0D01*
G01X138846Y319657D02*
Y311586D01*
X142586Y315523D02*
X134712D01*
X418901Y342121D02*
Y349011D01*
X424412*
Y358066*
X418901*
Y364956*
X407090*
Y358066*
X401578*
Y349011*
X407090*
Y342121*
X418901*
X417129Y353539D02*
G03X417129I-4134J0D01*
G01X409058*
X412995Y349799D02*
Y357673D01*
X150263Y179428D02*
X143373D01*
Y184940*
X134318*
Y179428*
X127428*
Y167617*
X134318*
Y162106*
X143373*
Y167617*
X150263*
Y179428*
X142979Y173523D02*
G03X142979I-4133J0D01*
G01X138846Y177657D02*
Y169586D01*
X142586Y173523D02*
X134712D01*
G74*
X0Y0D02*
M02*
