*
*
G04 PADS VX.2 Build Number: 5060570 generated Gerber (RS-274-X) file*
G04 PC Version=2.1*
*
%IN "CaptureBoard.pcb"*%
*
%MOIN*%
*
%FSLAX35Y35*%
*
*
*
*
G04 PC Standard Apertures*
*
*
G04 Thermal Relief Aperture macro.*
%AMTER*
1,1,$1,0,0*
1,0,$1-$2,0,0*
21,0,$3,$4,0,0,45*
21,0,$3,$4,0,0,135*
%
*
*
G04 Annular Aperture macro.*
%AMANN*
1,1,$1,0,0*
1,0,$2,0,0*
%
*
*
G04 Odd Aperture macro.*
%AMODD*
1,1,$1,0,0*
1,0,$1-0.005,0,0*
%
*
*
G04 PC Custom Aperture Macros*
*
*
*
*
*
*
G04 PC Aperture Table*
*
%ADD010C,0.001*%
%ADD058C,0.01*%
*
*
*
*
G04 PC Circuitry*
G04 Layer Name CaptureBoard.pcb - circuitry*
%LPD*%
*
*
G04 PC Custom Flashes*
G04 Layer Name CaptureBoard.pcb - flashes*
%LPD*%
*
*
G04 PC Circuitry*
G04 Layer Name CaptureBoard.pcb - circuitry*
%LPD*%
*
G54D10*
G54D58*
G01X112267Y366578D02*
X120267D01*
X116267Y362578D02*
Y370578D01*
X118267Y371859D02*
Y368578D01*
Y371859D02*
X119290D01*
X119630Y371703*
X119744Y371547*
X119858Y371234*
Y370922*
X119744Y370609*
X119630Y370453*
X119290Y370297*
X118267D02*
X119290D01*
X119630Y370141*
X119744Y369984*
X119858Y369672*
Y369203*
X119744Y368891*
X119630Y368734*
X119290Y368578*
X118267*
X107936Y366578D02*
X115936D01*
X111936Y362578D02*
Y370578D01*
X113936Y371859D02*
Y368578D01*
Y371859D02*
X114959D01*
X115300Y371703*
X115413Y371547*
X115527Y371234*
Y370922*
X115413Y370609*
X115300Y370453*
X114959Y370297*
X113936D02*
X114959D01*
X115300Y370141*
X115413Y369984*
X115527Y369672*
Y369203*
X115413Y368891*
X115300Y368734*
X114959Y368578*
X113936*
X116267Y365692D02*
G75*
G03Y367464I-0J886D01*
G01X111936*
G03Y365692I0J-886*
G01X116267*
X112267Y344334D02*
X120267D01*
X116267Y340334D02*
Y348334D01*
X118267Y349615D02*
Y346334D01*
Y349615D02*
X119290D01*
X119630Y349459*
X119744Y349303*
X119858Y348990*
Y348678*
X119744Y348365*
X119630Y348209*
X119290Y348053*
X118267D02*
X119290D01*
X119630Y347896*
X119744Y347740*
X119858Y347428*
Y346959*
X119744Y346646*
X119630Y346490*
X119290Y346334*
X118267*
X107936Y344334D02*
X115936D01*
X111936Y340334D02*
Y348334D01*
X113936Y349615D02*
Y346334D01*
Y349615D02*
X114959D01*
X115300Y349459*
X115413Y349303*
X115527Y348990*
Y348678*
X115413Y348365*
X115300Y348209*
X114959Y348053*
X113936D02*
X114959D01*
X115300Y347896*
X115413Y347740*
X115527Y347428*
Y346959*
X115413Y346646*
X115300Y346490*
X114959Y346334*
X113936*
X116267Y343448D02*
G03Y345220I-0J886D01*
G01X111936*
G03Y343448I0J-886*
G01X116267*
X111928Y116314D02*
X119928Y124314D01*
X111928D02*
X119928Y116314D01*
X121928D02*
X129928Y124314D01*
X121928D02*
X129928Y116314D01*
X131928D02*
X139928Y124314D01*
X131928D02*
X139928Y116314D01*
X307928Y190456D02*
X315928D01*
X307928Y198456*
X315928*
X307928Y190456*
X340928Y312456D02*
X348928Y320456D01*
Y312456*
X340928Y320456*
Y312456*
X205883Y249901D02*
X213883Y257901D01*
Y249901*
X205883Y257901*
Y249901*
X258601Y162381D02*
X262601Y166381D01*
X258601Y170381*
X254601Y166381*
X258601Y162381*
Y166381D02*
Y170381D01*
X265601Y162381D02*
X269601Y166381D01*
X265601Y170381*
X261601Y166381*
X265601Y162381*
Y166381D02*
Y170381D01*
X272601Y162381D02*
X276601Y166381D01*
X272601Y170381*
X268601Y166381*
X272601Y162381*
Y166381D02*
Y170381D01*
X279601Y162381D02*
X283601Y166381D01*
X279601Y170381*
X275601Y166381*
X279601Y162381*
Y166381D02*
Y170381D01*
X286601Y162381D02*
X290601Y166381D01*
X286601Y170381*
X282601Y166381*
X286601Y162381*
Y166381D02*
Y170381D01*
X293601Y162381D02*
X297601Y166381D01*
X293601Y170381*
X289601Y166381*
X293601Y162381*
Y166381D02*
Y170381D01*
X300601Y162381D02*
X304601Y166381D01*
X300601Y170381*
X296601Y166381*
X300601Y162381*
Y166381D02*
Y170381D01*
X307601Y162381D02*
X311601Y166381D01*
X307601Y170381*
X303601Y166381*
X307601Y162381*
Y166381D02*
Y170381D01*
X314601Y162381D02*
X318601Y166381D01*
X314601Y170381*
X310601Y166381*
X314601Y162381*
Y166381D02*
Y170381D01*
X321601Y162381D02*
X325601Y166381D01*
X321601Y170381*
X317601Y166381*
X321601Y162381*
Y166381D02*
Y170381D01*
X328601Y162381D02*
X332601Y166381D01*
X328601Y170381*
X324601Y166381*
X328601Y162381*
Y166381D02*
Y170381D01*
X335601Y162381D02*
X339601Y166381D01*
X335601Y170381*
X331601Y166381*
X335601Y162381*
Y166381D02*
Y170381D01*
X342601Y162381D02*
X346601Y166381D01*
X342601Y170381*
X338601Y166381*
X342601Y162381*
Y166381D02*
Y170381D01*
X349601Y162381D02*
X353601Y166381D01*
X349601Y170381*
X345601Y166381*
X349601Y162381*
Y166381D02*
Y170381D01*
X356601Y162381D02*
X360601Y166381D01*
X356601Y170381*
X352601Y166381*
X356601Y162381*
Y166381D02*
Y170381D01*
X363601Y162381D02*
X367601Y166381D01*
X363601Y170381*
X359601Y166381*
X363601Y162381*
Y166381D02*
Y170381D01*
X370601Y162381D02*
X374601Y166381D01*
X370601Y170381*
X366601Y166381*
X370601Y162381*
Y166381D02*
Y170381D01*
X377601Y162381D02*
X381601Y166381D01*
X377601Y170381*
X373601Y166381*
X377601Y162381*
Y166381D02*
Y170381D01*
X384601Y162381D02*
X388601Y166381D01*
X384601Y170381*
X380601Y166381*
X384601Y162381*
Y166381D02*
Y170381D01*
X391601Y162381D02*
X395601Y166381D01*
X391601Y170381*
X387601Y166381*
X391601Y162381*
Y166381D02*
Y170381D01*
Y291869D02*
X395601Y295869D01*
X391601Y299869*
X387601Y295869*
X391601Y291869*
Y295869D02*
Y299869D01*
X384601Y291869D02*
X388601Y295869D01*
X384601Y299869*
X380601Y295869*
X384601Y291869*
Y295869D02*
Y299869D01*
X377601Y291869D02*
X381601Y295869D01*
X377601Y299869*
X373601Y295869*
X377601Y291869*
Y295869D02*
Y299869D01*
X370601Y291869D02*
X374601Y295869D01*
X370601Y299869*
X366601Y295869*
X370601Y291869*
Y295869D02*
Y299869D01*
X363601Y291869D02*
X367601Y295869D01*
X363601Y299869*
X359601Y295869*
X363601Y291869*
Y295869D02*
Y299869D01*
X356601Y291869D02*
X360601Y295869D01*
X356601Y299869*
X352601Y295869*
X356601Y291869*
Y295869D02*
Y299869D01*
X349601Y291869D02*
X353601Y295869D01*
X349601Y299869*
X345601Y295869*
X349601Y291869*
Y295869D02*
Y299869D01*
X342601Y291869D02*
X346601Y295869D01*
X342601Y299869*
X338601Y295869*
X342601Y291869*
Y295869D02*
Y299869D01*
X335601Y291869D02*
X339601Y295869D01*
X335601Y299869*
X331601Y295869*
X335601Y291869*
Y295869D02*
Y299869D01*
X328601Y291869D02*
X332601Y295869D01*
X328601Y299869*
X324601Y295869*
X328601Y291869*
Y295869D02*
Y299869D01*
X321601Y291869D02*
X325601Y295869D01*
X321601Y299869*
X317601Y295869*
X321601Y291869*
Y295869D02*
Y299869D01*
X314601Y291869D02*
X318601Y295869D01*
X314601Y299869*
X310601Y295869*
X314601Y291869*
Y295869D02*
Y299869D01*
X307601Y291869D02*
X311601Y295869D01*
X307601Y299869*
X303601Y295869*
X307601Y291869*
Y295869D02*
Y299869D01*
X300601Y291869D02*
X304601Y295869D01*
X300601Y299869*
X296601Y295869*
X300601Y291869*
Y295869D02*
Y299869D01*
X293601Y291869D02*
X297601Y295869D01*
X293601Y299869*
X289601Y295869*
X293601Y291869*
Y295869D02*
Y299869D01*
X286601Y291869D02*
X290601Y295869D01*
X286601Y299869*
X282601Y295869*
X286601Y291869*
Y295869D02*
Y299869D01*
X279601Y291869D02*
X283601Y295869D01*
X279601Y299869*
X275601Y295869*
X279601Y291869*
Y295869D02*
Y299869D01*
X272601Y291869D02*
X276601Y295869D01*
X272601Y299869*
X268601Y295869*
X272601Y291869*
Y295869D02*
Y299869D01*
X265601Y291869D02*
X269601Y295869D01*
X265601Y299869*
X261601Y295869*
X265601Y291869*
Y295869D02*
Y299869D01*
X258601Y291869D02*
X262601Y295869D01*
X258601Y299869*
X254601Y295869*
X258601Y291869*
Y295869D02*
Y299869D01*
X404928Y110456D02*
X412928D01*
Y118456*
X404928*
Y110456*
X408928Y114456D02*
Y118456D01*
X404928Y120456D02*
X412928D01*
Y128456*
X404928*
Y120456*
X408928Y124456D02*
Y128456D01*
X414928Y110456D02*
X422928D01*
Y118456*
X414928*
Y110456*
X418928Y114456D02*
Y118456D01*
X414928Y120456D02*
X422928D01*
Y128456*
X414928*
Y120456*
X418928Y124456D02*
Y128456D01*
X424928Y110456D02*
X432928D01*
Y118456*
X424928*
Y110456*
X428928Y114456D02*
Y118456D01*
X424928Y120456D02*
X432928D01*
Y128456*
X424928*
Y120456*
X428928Y124456D02*
Y128456D01*
X434928Y110456D02*
X442928D01*
Y118456*
X434928*
Y110456*
X438928Y114456D02*
Y118456D01*
X434928Y120456D02*
X442928D01*
Y128456*
X434928*
Y120456*
X438928Y124456D02*
Y128456D01*
X444928Y110456D02*
X452928D01*
Y118456*
X444928*
Y110456*
X448928Y114456D02*
Y118456D01*
X444928Y120456D02*
X452928D01*
Y128456*
X444928*
Y120456*
X448928Y124456D02*
Y128456D01*
X414928Y294456D02*
X422928D01*
Y302456*
X414928*
Y294456*
X418928Y298456D02*
Y302456D01*
X414928Y304456D02*
X422928D01*
Y312456*
X414928*
Y304456*
X418928Y308456D02*
Y312456D01*
X424928Y294456D02*
X432928D01*
Y302456*
X424928*
Y294456*
X428928Y298456D02*
Y302456D01*
X424928Y304456D02*
X432928D01*
Y312456*
X424928*
Y304456*
X428928Y308456D02*
Y312456D01*
X434928Y294456D02*
X442928D01*
Y302456*
X434928*
Y294456*
X438928Y298456D02*
Y302456D01*
X434928Y304456D02*
X442928D01*
Y312456*
X434928*
Y304456*
X438928Y308456D02*
Y312456D01*
X444928Y294456D02*
X452928D01*
Y302456*
X444928*
Y294456*
X448928Y298456D02*
Y302456D01*
X444928Y304456D02*
X452928D01*
Y312456*
X444928*
Y304456*
X448928Y308456D02*
Y312456D01*
X454928Y294456D02*
X462928D01*
Y302456*
X454928*
Y294456*
X458928Y298456D02*
Y302456D01*
X454928Y304456D02*
X462928D01*
Y312456*
X454928*
Y304456*
X458928Y308456D02*
Y312456D01*
X414928Y314456D02*
X422928D01*
Y322456*
X414928*
Y314456*
X418928Y318456D02*
Y322456D01*
X414928Y324456D02*
X422928D01*
Y332456*
X414928*
Y324456*
X418928Y328456D02*
Y332456D01*
X424928Y314456D02*
X432928D01*
Y322456*
X424928*
Y314456*
X428928Y318456D02*
Y322456D01*
X424928Y324456D02*
X432928D01*
Y332456*
X424928*
Y324456*
X428928Y328456D02*
Y332456D01*
X434928Y314456D02*
X442928D01*
Y322456*
X434928*
Y314456*
X438928Y318456D02*
Y322456D01*
X434928Y324456D02*
X442928D01*
Y332456*
X434928*
Y324456*
X438928Y328456D02*
Y332456D01*
X444928Y314456D02*
X452928D01*
Y322456*
X444928*
Y314456*
X448928Y318456D02*
Y322456D01*
X444928Y324456D02*
X452928D01*
Y332456*
X444928*
Y324456*
X448928Y328456D02*
Y332456D01*
X454928Y314456D02*
X462928D01*
Y322456*
X454928*
Y314456*
X458928Y318456D02*
Y322456D01*
X454928Y324456D02*
X462928D01*
Y332456*
X454928*
Y324456*
X458928Y328456D02*
Y332456D01*
X307928Y237456D02*
X315928D01*
X307928Y245456*
X315928*
X307928Y237456*
X141928Y224456D02*
X149928D01*
X141928Y232456*
X149928*
X141928Y224456*
X118566Y347582D02*
X126566D01*
X122566Y343582D02*
Y351582D01*
X125475Y352863D02*
X124566Y349582D01*
X125475Y352863D02*
X126384Y349582D01*
X124907Y350676D02*
X126043D01*
X118566Y363330D02*
X126566D01*
X122566Y359330D02*
Y367330D01*
X125475Y368611D02*
X124566Y365330D01*
X125475Y368611D02*
X126384Y365330D01*
X124907Y366424D02*
X126043D01*
X105293Y112595D02*
X113293D01*
X109293Y108595D02*
Y116595D01*
X122505Y112828D02*
X130505D01*
X126505Y108828D02*
Y116828D01*
X148527Y113062D02*
X156527D01*
X152527Y109062D02*
Y117062D01*
X275257Y112364D02*
X283257D01*
X279257Y108364D02*
Y116364D01*
X313126Y112513D02*
X321126D01*
X317126Y108513D02*
Y116513D01*
X350884Y112513D02*
X358884D01*
X354884Y108513D02*
Y116513D01*
X389234Y112665D02*
X397234D01*
X393234Y108665D02*
Y116665D01*
X457043Y112929D02*
X465043D01*
X461043Y108929D02*
Y116929D01*
X463707Y112441D02*
X471707D01*
X467707Y108441D02*
Y116441D01*
X478572Y112664D02*
X486572D01*
X482572Y108664D02*
Y116664D01*
X154168Y122504D02*
X162168D01*
X158168Y118504D02*
Y126504D01*
X150006Y122355D02*
X158006D01*
X154006Y118355D02*
Y126355D01*
X173149Y113529D02*
X181149D01*
X177149Y109529D02*
Y117529D01*
X177933Y129632D02*
X185933D01*
X181933Y125632D02*
Y133632D01*
X190254Y128955D02*
X198254D01*
X194254Y124955D02*
Y132955D01*
X193497Y128895D02*
X201497D01*
X197497Y124895D02*
Y132895D01*
X200504Y128943D02*
X208504D01*
X204504Y124943D02*
Y132943D01*
X214706Y128848D02*
X222706D01*
X218706Y124848D02*
Y132848D01*
X219488Y128943D02*
X227488D01*
X223488Y124943D02*
Y132943D01*
X263881Y121998D02*
X271881D01*
X267881Y117998D02*
Y125998D01*
X282030Y113884D02*
X290030D01*
X286030Y109884D02*
Y117884D01*
X296016Y119275D02*
X304016D01*
X300016Y115275D02*
Y123275D01*
X320092Y113884D02*
X328092D01*
X324092Y109884D02*
Y117884D01*
X333880Y118660D02*
X341880D01*
X337880Y114660D02*
Y122660D01*
X357882Y113616D02*
X365882D01*
X361882Y109616D02*
Y117616D01*
X372148Y116707D02*
X380148D01*
X376148Y112707D02*
Y120707D01*
X396086Y113758D02*
X404086D01*
X400086Y109758D02*
Y117758D01*
X411142Y121462D02*
X419142D01*
X415142Y117462D02*
Y125462D01*
X464376Y127604D02*
X472376D01*
X468376Y123604D02*
Y131604D01*
X481506Y132499D02*
X489506D01*
X485506Y128499D02*
Y136499D01*
X105059Y135233D02*
X113059D01*
X109059Y131233D02*
Y139233D01*
X121251Y135732D02*
X129251D01*
X125251Y131732D02*
Y139732D01*
X118030Y135661D02*
X126030D01*
X122030Y131661D02*
Y139661D01*
X144804Y134259D02*
X152804D01*
X148804Y130259D02*
Y138259D01*
X166009Y136494D02*
X174009D01*
X170009Y132494D02*
Y140494D01*
X167384Y133580D02*
X175384D01*
X171384Y129580D02*
Y137580D01*
X161562Y133657D02*
X169562D01*
X165562Y129657D02*
Y137657D01*
X185384Y147303D02*
X193384D01*
X189384Y143303D02*
Y151303D01*
X187724Y141734D02*
X195724D01*
X191724Y137734D02*
Y145734D01*
X186473Y144531D02*
X194473D01*
X190473Y140531D02*
Y148531D01*
X207653Y137465D02*
X215653D01*
X211653Y133465D02*
Y141465D01*
X206064Y147281D02*
X214064D01*
X210064Y143281D02*
Y151281D01*
X204304Y144066D02*
X212304D01*
X208304Y140066D02*
Y148066D01*
X201382Y142323D02*
X209382D01*
X205382Y138323D02*
Y146323D01*
X203072Y139871D02*
X211072D01*
X207072Y135871D02*
Y143871D01*
X200056Y139625D02*
X208056D01*
X204056Y135625D02*
Y143625D01*
X193672Y144746D02*
X201672D01*
X197672Y140746D02*
Y148746D01*
X194679Y140965D02*
X202679D01*
X198679Y136965D02*
Y144965D01*
X191984Y142213D02*
X199984D01*
X195984Y138213D02*
Y146213D01*
X189466Y144142D02*
X197466D01*
X193466Y140142D02*
Y148142D01*
X214275Y144025D02*
X222275D01*
X218275Y140025D02*
Y148025D01*
X216367Y141900D02*
X224367D01*
X220367Y137900D02*
Y145900D01*
X212076Y141762D02*
X220076D01*
X216076Y137762D02*
Y145762D01*
X213302Y139059D02*
X221302D01*
X217302Y135059D02*
Y143059D01*
X209845Y139569D02*
X217845D01*
X213845Y135569D02*
Y143569D01*
X297358Y148466D02*
X305358D01*
X301358Y144466D02*
Y152466D01*
X326441Y148565D02*
X334441D01*
X330441Y144565D02*
Y152565D01*
X343499Y148466D02*
X351499D01*
X347499Y144466D02*
Y152466D01*
X360558Y148366D02*
X368558D01*
X364558Y144366D02*
Y152366D01*
X386929Y148087D02*
X394929D01*
X390929Y144087D02*
Y152087D01*
X383822Y148064D02*
X391822D01*
X387822Y144064D02*
Y152064D01*
X380761Y148132D02*
X388761D01*
X384761Y144132D02*
Y152132D01*
X391580Y152195D02*
X399580D01*
X395580Y148195D02*
Y156195D01*
X389301Y150225D02*
X397301D01*
X393301Y146225D02*
Y154225D01*
X440974Y144835D02*
X448974D01*
X444974Y140835D02*
Y148835D01*
X431435Y133476D02*
X439435D01*
X435435Y129476D02*
Y137476D01*
X435075Y144830D02*
X443075D01*
X439075Y140830D02*
Y148830D01*
X451258Y151604D02*
X459258D01*
X455258Y147604D02*
Y155604D01*
X454346Y149501D02*
X462346D01*
X458346Y145501D02*
Y153501D01*
X451413Y147340D02*
X459413D01*
X455413Y143340D02*
Y151340D01*
X454249Y133343D02*
X462249D01*
X458249Y129343D02*
Y137343D01*
X454167Y137520D02*
X462167D01*
X458167Y133520D02*
Y141520D01*
X451456Y135437D02*
X459456D01*
X455456Y131437D02*
Y139437D01*
X451440Y142413D02*
X459440D01*
X455440Y138413D02*
Y146413D01*
X104943Y155888D02*
X112943D01*
X108943Y151888D02*
Y159888D01*
X119141Y164668D02*
X127141D01*
X123141Y160668D02*
Y168668D01*
X121064Y162176D02*
X129064D01*
X125064Y158176D02*
Y166176D01*
X122559Y164739D02*
X130559D01*
X126559Y160739D02*
Y168739D01*
X129139Y168964D02*
X137139D01*
X133139Y164964D02*
Y172964D01*
X138304Y157950D02*
X146304D01*
X142304Y153950D02*
Y161950D01*
X196952Y155167D02*
X204952D01*
X200952Y151167D02*
Y159167D01*
X199325Y159338D02*
X207325D01*
X203325Y155338D02*
Y163338D01*
X215464Y160680D02*
X223464D01*
X219464Y156680D02*
Y164680D01*
X238349Y156763D02*
X246349D01*
X242349Y152763D02*
Y160763D01*
X242105Y164406D02*
X250105D01*
X246105Y160406D02*
Y168406D01*
X257923Y161395D02*
X265923D01*
X261923Y157395D02*
Y165395D01*
X251420Y156574D02*
X259420D01*
X255420Y152574D02*
Y160574D01*
X250757Y172275D02*
X258757D01*
X254757Y168275D02*
Y176275D01*
X280174Y158509D02*
X288174D01*
X284174Y154509D02*
Y162509D01*
X272629Y159473D02*
X280629D01*
X276629Y155473D02*
Y163473D01*
X299007Y170578D02*
X307007D01*
X303007Y166578D02*
Y174578D01*
X305333Y172813D02*
X313333D01*
X309333Y168813D02*
Y176813D01*
X307336Y170538D02*
X315336D01*
X311336Y166538D02*
Y174538D01*
X301159Y172750D02*
X309159D01*
X305159Y168750D02*
Y176750D01*
X303185Y170569D02*
X311185D01*
X307185Y166569D02*
Y174569D01*
X296753Y172686D02*
X304753D01*
X300753Y168686D02*
Y176686D01*
X297292Y153434D02*
X305292D01*
X301292Y149434D02*
Y157434D01*
X288746Y153401D02*
X296746D01*
X292746Y149401D02*
Y157401D01*
X313714Y172915D02*
X321714D01*
X317714Y168915D02*
Y176915D01*
X309548Y172792D02*
X317548D01*
X313548Y168792D02*
Y176792D01*
X326507Y153467D02*
X334507D01*
X330507Y149467D02*
Y157467D01*
X347474Y153335D02*
X355474D01*
X351474Y149335D02*
Y157335D01*
X367620Y171958D02*
X375620D01*
X371620Y167958D02*
Y175958D01*
X365427Y153368D02*
X373427D01*
X369427Y149368D02*
Y157368D01*
X371374Y171057D02*
X379374D01*
X375374Y167057D02*
Y175057D01*
X374415Y171011D02*
X382415D01*
X378415Y167011D02*
Y175011D01*
X377617Y171287D02*
X385617D01*
X381617Y167287D02*
Y175287D01*
X380616Y171213D02*
X388616D01*
X384616Y167213D02*
Y175213D01*
X386693Y171168D02*
X394693D01*
X390693Y167168D02*
Y175168D01*
X400511Y163530D02*
X408511D01*
X404511Y159530D02*
Y167530D01*
X397964Y158953D02*
X405964D01*
X401964Y154953D02*
Y162953D01*
X404529Y156580D02*
X412529D01*
X408529Y152580D02*
Y160580D01*
X407527Y157470D02*
X415527D01*
X411527Y153470D02*
Y161470D01*
X397118Y166076D02*
X405118D01*
X401118Y162076D02*
Y170076D01*
X398003Y161946D02*
X406003D01*
X402003Y157946D02*
Y165946D01*
X389898Y162108D02*
X397898D01*
X393898Y158108D02*
Y166108D01*
X451409Y157375D02*
X459409D01*
X455409Y153375D02*
Y161375D01*
X454397Y153719D02*
X462397D01*
X458397Y149719D02*
Y157719D01*
X451485Y171478D02*
X459485D01*
X455485Y167478D02*
Y175478D01*
X454172Y169348D02*
X462172D01*
X458172Y165348D02*
Y173348D01*
X451420Y167120D02*
X459420D01*
X455420Y163120D02*
Y171120D01*
X454506Y163650D02*
X462506D01*
X458506Y159650D02*
Y167650D01*
X451482Y161564D02*
X459482D01*
X455482Y157564D02*
Y165564D01*
X454540Y159483D02*
X462540D01*
X458540Y155483D02*
Y163483D01*
X104826Y178292D02*
X112826D01*
X108826Y174292D02*
Y182292D01*
X122333Y186011D02*
X130333D01*
X126333Y182011D02*
Y190011D01*
X149847Y181650D02*
X157847D01*
X153847Y177650D02*
Y185650D01*
X149787Y186625D02*
X157787D01*
X153787Y182625D02*
Y190625D01*
X247644Y176084D02*
X255644D01*
X251644Y172084D02*
Y180084D01*
X236480Y178847D02*
X244480D01*
X240480Y174847D02*
Y182847D01*
X256868Y174961D02*
X264868D01*
X260868Y170961D02*
Y178961D01*
X250917Y176521D02*
X258917D01*
X254917Y172521D02*
Y180521D01*
X260255Y174828D02*
X268255D01*
X264255Y170828D02*
Y178828D01*
X254163Y176806D02*
X262163D01*
X258163Y172806D02*
Y180806D01*
X275969Y190203D02*
X283969D01*
X279969Y186203D02*
Y194203D01*
X276266Y184479D02*
X284266D01*
X280266Y180479D02*
Y188479D01*
X292529Y179307D02*
X300529D01*
X296529Y175307D02*
Y183307D01*
X321057Y173697D02*
X329057D01*
X325057Y169697D02*
Y177697D01*
X326260Y179789D02*
X334260D01*
X330260Y175789D02*
Y183789D01*
X324169Y173563D02*
X332169D01*
X328169Y169563D02*
Y177563D01*
X325750Y176418D02*
X333750D01*
X329750Y172418D02*
Y180418D01*
X350182Y182316D02*
X358182D01*
X354182Y178316D02*
Y186316D01*
X353378Y182391D02*
X361378D01*
X357378Y178391D02*
Y186391D01*
X356746Y182392D02*
X364746D01*
X360746Y178392D02*
Y186392D01*
X385390Y193102D02*
X393390D01*
X389390Y189102D02*
Y197102D01*
X380550Y193126D02*
X388550D01*
X384550Y189126D02*
Y197126D01*
X374595Y193180D02*
X382595D01*
X378595Y189180D02*
Y197180D01*
X368791Y191819D02*
X376791D01*
X372791Y187819D02*
Y195819D01*
X392339Y192059D02*
X400339D01*
X396339Y188059D02*
Y196059D01*
X407176Y180245D02*
X415176D01*
X411176Y176245D02*
Y184245D01*
X403254Y191581D02*
X411254D01*
X407254Y187581D02*
Y195581D01*
X419181Y192386D02*
X427181D01*
X423181Y188386D02*
Y196386D01*
X451471Y181500D02*
X459471D01*
X455471Y177500D02*
Y185500D01*
X454220Y179410D02*
X462220D01*
X458220Y175410D02*
Y183410D01*
X451365Y177272D02*
X459365D01*
X455365Y173272D02*
Y181272D01*
X454303Y173575D02*
X462303D01*
X458303Y169575D02*
Y177575D01*
X454191Y183597D02*
X462191D01*
X458191Y179597D02*
Y187597D01*
X466570Y188580D02*
X474570D01*
X470570Y184580D02*
Y192580D01*
X464182Y186160D02*
X472182D01*
X468182Y182160D02*
Y190160D01*
X105409Y203965D02*
X113409D01*
X109409Y199965D02*
Y207965D01*
X117360Y208334D02*
X125360D01*
X121360Y204334D02*
Y212334D01*
X118777Y204866D02*
X126777D01*
X122777Y200866D02*
Y208866D01*
X119866Y197271D02*
X127866D01*
X123866Y193271D02*
Y201271D01*
X110194Y208595D02*
X118194D01*
X114194Y204595D02*
Y212595D01*
X123564Y195406D02*
X131564D01*
X127564Y191406D02*
Y199406D01*
X139313Y203867D02*
X147313D01*
X143313Y199867D02*
Y207867D01*
X130625Y203867D02*
X138625D01*
X134625Y199867D02*
Y207867D01*
X139211Y208091D02*
X147211D01*
X143211Y204091D02*
Y212091D01*
X145924Y211596D02*
X153924D01*
X149924Y207596D02*
Y215596D01*
X144310Y202774D02*
X152310D01*
X148310Y198774D02*
Y206774D01*
X153691Y203986D02*
X161691D01*
X157691Y199986D02*
Y207986D01*
X150236Y203989D02*
X158236D01*
X154236Y199989D02*
Y207989D01*
X176352Y210444D02*
X184352D01*
X180352Y206444D02*
Y214444D01*
X181749Y202642D02*
X189749D01*
X185749Y198642D02*
Y206642D01*
X177349Y203141D02*
X185349D01*
X181349Y199141D02*
Y207141D01*
X176397Y199740D02*
X184397D01*
X180397Y195740D02*
Y203740D01*
X185868Y207259D02*
X193868D01*
X189868Y203259D02*
Y211259D01*
X174249Y205047D02*
X182249D01*
X178249Y201047D02*
Y209047D01*
X197849Y200999D02*
X205849D01*
X201849Y196999D02*
Y204999D01*
X197958Y194818D02*
X205958D01*
X201958Y190818D02*
Y198818D01*
X199368Y212278D02*
X207368D01*
X203368Y208278D02*
Y216278D01*
X188731Y193530D02*
X196731D01*
X192731Y189530D02*
Y197530D01*
X215404Y194390D02*
X223404D01*
X219404Y190390D02*
Y198390D01*
X214348Y198517D02*
X222348D01*
X218348Y194517D02*
Y202517D01*
X214677Y206829D02*
X222677D01*
X218677Y202829D02*
Y210829D01*
X243806Y195337D02*
X251806D01*
X247806Y191337D02*
Y199337D01*
X243731Y198459D02*
X251731D01*
X247731Y194459D02*
Y202459D01*
X243880Y201581D02*
X251880D01*
X247880Y197581D02*
Y205581D01*
X266069Y212567D02*
X274069D01*
X270069Y208567D02*
Y216567D01*
X275706Y206582D02*
X283706D01*
X279706Y202582D02*
Y210582D01*
X275823Y203613D02*
X283823D01*
X279823Y199613D02*
Y207613D01*
X345648Y196165D02*
X353648D01*
X349648Y192165D02*
Y200165D01*
X365528Y204776D02*
X373528D01*
X369528Y200776D02*
Y208776D01*
X358131Y204813D02*
X366131D01*
X362131Y200813D02*
Y208813D01*
X357869Y194569D02*
X365869D01*
X361869Y190569D02*
Y198569D01*
X377572Y194104D02*
X385572D01*
X381572Y190104D02*
Y198104D01*
X382959Y194862D02*
X390959D01*
X386959Y190862D02*
Y198862D01*
X371224Y211331D02*
X379224D01*
X375224Y207331D02*
Y215331D01*
X386613Y211697D02*
X394613D01*
X390613Y207697D02*
Y215697D01*
X388389Y194472D02*
X396389D01*
X392389Y190472D02*
Y198472D01*
X391462Y195336D02*
X399462D01*
X395462Y191336D02*
Y199336D01*
X405291Y193807D02*
X413291D01*
X409291Y189807D02*
Y197807D01*
X408574Y204675D02*
X416574D01*
X412574Y200675D02*
Y208675D01*
X396484Y194516D02*
X404484D01*
X400484Y190516D02*
Y198516D01*
X403175Y211144D02*
X411175D01*
X407175Y207144D02*
Y215144D01*
X399673Y195031D02*
X407673D01*
X403673Y191031D02*
Y199031D01*
X390912Y211022D02*
X398912D01*
X394912Y207022D02*
Y215022D01*
X399907Y211259D02*
X407907D01*
X403907Y207259D02*
Y215259D01*
X408731Y212549D02*
X416731D01*
X412731Y208549D02*
Y216549D01*
X408814Y208688D02*
X416814D01*
X412814Y204688D02*
Y212688D01*
X421811Y205358D02*
X429811D01*
X425811Y201358D02*
Y209358D01*
X431569Y208465D02*
X439569D01*
X435569Y204465D02*
Y212465D01*
X432716Y204828D02*
X440716D01*
X436716Y200828D02*
Y208828D01*
X431106Y201716D02*
X439106D01*
X435106Y197716D02*
Y205716D01*
X447419Y201774D02*
X455419D01*
X451419Y197774D02*
Y205774D01*
X461137Y208533D02*
X469137D01*
X465137Y204533D02*
Y212533D01*
X468770Y198633D02*
X476770D01*
X472770Y194633D02*
Y202633D01*
X481954Y199628D02*
X489954D01*
X485954Y195628D02*
Y203628D01*
X469291Y195693D02*
X477291D01*
X473291Y191693D02*
Y199693D01*
X481303Y196531D02*
X489303D01*
X485303Y192531D02*
Y200531D01*
X106106Y219298D02*
X114106D01*
X110106Y215298D02*
Y223298D01*
X125304Y228004D02*
X133304D01*
X129304Y224004D02*
Y232004D01*
X108782Y214541D02*
X116782D01*
X112782Y210541D02*
Y218541D01*
X168494Y230450D02*
X176494D01*
X172494Y226450D02*
Y234450D01*
X176022Y232706D02*
X184022D01*
X180022Y228706D02*
Y236706D01*
X179288Y232753D02*
X187288D01*
X183288Y228753D02*
Y236753D01*
X186397Y217353D02*
X194397D01*
X190397Y213353D02*
Y221353D01*
X176215Y213755D02*
X184215D01*
X180215Y209755D02*
Y217755D01*
X176532Y220218D02*
X184532D01*
X180532Y216218D02*
Y224218D01*
X183042Y224317D02*
X191042D01*
X187042Y220317D02*
Y228317D01*
X177219Y223802D02*
X185219D01*
X181219Y219802D02*
Y227802D01*
X185393Y221127D02*
X193393D01*
X189393Y217127D02*
Y225127D01*
X186169Y213682D02*
X194169D01*
X190169Y209682D02*
Y217682D01*
X174323Y217979D02*
X182323D01*
X178323Y213979D02*
Y221979D01*
X174338Y222575D02*
X182338D01*
X178338Y218575D02*
Y226575D01*
X190898Y229277D02*
X198898D01*
X194898Y225277D02*
Y233277D01*
X233877Y232638D02*
X241877D01*
X237877Y228638D02*
Y236638D01*
X243657Y219270D02*
X251657D01*
X247657Y215270D02*
Y223270D01*
X243731Y222243D02*
X251731D01*
X247731Y218243D02*
Y226243D01*
X243731Y225216D02*
X251731D01*
X247731Y221216D02*
Y229216D01*
X253141Y218286D02*
X261141D01*
X257141Y214286D02*
Y222286D01*
X255963Y219470D02*
X263963D01*
X259963Y215470D02*
Y223470D01*
X250013Y218470D02*
X258013D01*
X254013Y214470D02*
Y222470D01*
X264280Y228726D02*
X272280D01*
X268280Y224726D02*
Y232726D01*
X268878Y218549D02*
X276878D01*
X272878Y214549D02*
Y222549D01*
X276127Y223879D02*
X284127D01*
X280127Y219879D02*
Y227879D01*
X276260Y228443D02*
X284260D01*
X280260Y224443D02*
Y232443D01*
X276260Y232088D02*
X284260D01*
X280260Y228088D02*
Y236088D01*
X272953Y215672D02*
X280953D01*
X276953Y211672D02*
Y219672D01*
X296017Y220075D02*
X304017D01*
X300017Y216075D02*
Y224075D01*
X304940Y219958D02*
X312940D01*
X308940Y215958D02*
Y223958D01*
X307029Y217831D02*
X315029D01*
X311029Y213831D02*
Y221831D01*
X300774Y219954D02*
X308774D01*
X304774Y215954D02*
Y223954D01*
X302861Y217058D02*
X310861D01*
X306861Y213058D02*
Y221058D01*
X294829Y223819D02*
X302829D01*
X298829Y219819D02*
Y227819D01*
X292413Y227828D02*
X300413D01*
X296413Y223828D02*
Y231828D01*
X313796Y220044D02*
X321796D01*
X317796Y216044D02*
Y224044D01*
X309522Y219996D02*
X317522D01*
X313522Y215996D02*
Y223996D01*
X327422Y219942D02*
X335422D01*
X331422Y215942D02*
Y223942D01*
X324342Y219877D02*
X332342D01*
X328342Y215877D02*
Y223877D01*
X310857Y215935D02*
X318857D01*
X314857Y211935D02*
Y219935D01*
X321196Y224987D02*
X329196D01*
X325196Y220987D02*
Y228987D01*
X344856Y232063D02*
X352856D01*
X348856Y228063D02*
Y236063D01*
X330508Y220769D02*
X338508D01*
X334508Y216769D02*
Y224769D01*
X334741Y225472D02*
X342741D01*
X338741Y221472D02*
Y229472D01*
X334680Y228487D02*
X342680D01*
X338680Y224487D02*
Y232487D01*
X363778Y229515D02*
X371778D01*
X367778Y225515D02*
Y233515D01*
X357710Y218614D02*
X365710D01*
X361710Y214614D02*
Y222614D01*
X357597Y228524D02*
X365597D01*
X361597Y224524D02*
Y232524D01*
X387163Y223789D02*
X395163D01*
X391163Y219789D02*
Y227789D01*
X371957Y223972D02*
X379957D01*
X375957Y219972D02*
Y227972D01*
X421764Y232756D02*
X429764D01*
X425764Y228756D02*
Y236756D01*
X416870Y231070D02*
X424870D01*
X420870Y227070D02*
Y235070D01*
X444529Y229071D02*
X452529D01*
X448529Y225071D02*
Y233071D01*
X432379Y218466D02*
X440379D01*
X436379Y214466D02*
Y222466D01*
X484360Y231581D02*
X492360D01*
X488360Y227581D02*
Y235581D01*
X481366Y229407D02*
X489366D01*
X485366Y225407D02*
Y233407D01*
X486279Y227466D02*
X494279D01*
X490279Y223466D02*
Y231466D01*
X492763Y229702D02*
X500763D01*
X496763Y225702D02*
Y233702D01*
X106936Y247403D02*
X114936D01*
X110936Y243403D02*
Y251403D01*
X117569Y244447D02*
X125569D01*
X121569Y240447D02*
Y248447D01*
X112621Y251934D02*
X120621D01*
X116621Y247934D02*
Y255934D01*
X111867Y248044D02*
X119867D01*
X115867Y244044D02*
Y252044D01*
X136906Y248125D02*
X144906D01*
X140906Y244125D02*
Y252125D01*
X130414Y252663D02*
X138414D01*
X134414Y248663D02*
Y256663D01*
X164510Y250783D02*
X172510D01*
X168510Y246783D02*
Y254783D01*
X164411Y247059D02*
X172411D01*
X168411Y243059D02*
Y251059D01*
X180595Y242454D02*
X188595D01*
X184595Y238454D02*
Y246454D01*
X185944Y245222D02*
X193944D01*
X189944Y241222D02*
Y249222D01*
X183583Y242594D02*
X191583D01*
X187583Y238594D02*
Y246594D01*
X199613Y247673D02*
X207613D01*
X203613Y243673D02*
Y251673D01*
X204692Y240293D02*
X212692D01*
X208692Y236293D02*
Y244293D01*
X199444Y238069D02*
X207444D01*
X203444Y234069D02*
Y242069D01*
X192533Y234108D02*
X200533D01*
X196533Y230108D02*
Y238108D01*
X193313Y238196D02*
X201313D01*
X197313Y234196D02*
Y242196D01*
X223097Y239549D02*
X231097D01*
X227097Y235549D02*
Y243549D01*
X227131Y246075D02*
X235131D01*
X231131Y242075D02*
Y250075D01*
X233893Y246432D02*
X241893D01*
X237893Y242432D02*
Y250432D01*
X268181Y242446D02*
X276181D01*
X272181Y238446D02*
Y246446D01*
X266333Y238872D02*
X274333D01*
X270333Y234872D02*
Y242872D01*
X265949Y252936D02*
X273949D01*
X269949Y248936D02*
Y256936D01*
X276927Y244698D02*
X284927D01*
X280927Y240698D02*
Y248698D01*
X359114Y233657D02*
X367114D01*
X363114Y229657D02*
Y237657D01*
X363215Y245224D02*
X371215D01*
X367215Y241224D02*
Y249224D01*
X365965Y247305D02*
X373965D01*
X369965Y243305D02*
Y251305D01*
X368566Y249461D02*
X376566D01*
X372566Y245461D02*
Y253461D01*
X361753Y250862D02*
X369753D01*
X365753Y246862D02*
Y254862D01*
X358062Y238306D02*
X366062D01*
X362062Y234306D02*
Y242306D01*
X371957Y237163D02*
X379957D01*
X375957Y233163D02*
Y241163D01*
X386613Y237163D02*
X394613D01*
X390613Y233163D02*
Y241163D01*
X386796Y247606D02*
X394796D01*
X390796Y243606D02*
Y251606D01*
X421658Y237735D02*
X429658D01*
X425658Y233735D02*
Y241735D01*
X433048Y233374D02*
X441048D01*
X437048Y229374D02*
Y237374D01*
X433014Y242278D02*
X441014D01*
X437014Y238278D02*
Y246278D01*
X449240Y234737D02*
X457240D01*
X453240Y230737D02*
Y238737D01*
X452710Y251592D02*
X460710D01*
X456710Y247592D02*
Y255592D01*
X484311Y236028D02*
X492311D01*
X488311Y232028D02*
Y240028D01*
X481273Y233729D02*
X489273D01*
X485273Y229729D02*
Y237729D01*
X475380Y239890D02*
X483380D01*
X479380Y235890D02*
Y243890D01*
X105665Y272219D02*
X113665D01*
X109665Y268219D02*
Y276219D01*
X111067Y265862D02*
X119067D01*
X115067Y261862D02*
Y269862D01*
X111611Y268810D02*
X119611D01*
X115611Y264810D02*
Y272810D01*
X126350Y267407D02*
X134350D01*
X130350Y263407D02*
Y271407D01*
X132744Y256974D02*
X140744D01*
X136744Y252974D02*
Y260974D01*
X138522Y258092D02*
X146522D01*
X142522Y254092D02*
Y262092D01*
X154787Y267572D02*
X162787D01*
X158787Y263572D02*
Y271572D01*
X152579Y260593D02*
X160579D01*
X156579Y256593D02*
Y264593D01*
X158852Y254628D02*
X166852D01*
X162852Y250628D02*
Y258628D01*
X171184Y268775D02*
X179184D01*
X175184Y264775D02*
Y272775D01*
X168711Y260663D02*
X176711D01*
X172711Y256663D02*
Y264663D01*
X179015Y269402D02*
X187015D01*
X183015Y265402D02*
Y273402D01*
X205667Y267430D02*
X213667D01*
X209667Y263430D02*
Y271430D01*
X202614Y267690D02*
X210614D01*
X206614Y263690D02*
Y271690D01*
X196768Y262669D02*
X204768D01*
X200768Y258669D02*
Y266669D01*
X195022Y260234D02*
X203022D01*
X199022Y256234D02*
Y264234D01*
X219958Y256037D02*
X227958D01*
X223958Y252037D02*
Y260037D01*
X228432Y262331D02*
X236432D01*
X232432Y258331D02*
Y266331D01*
X237143Y259692D02*
X245143D01*
X241143Y255692D02*
Y263692D01*
X236571Y256257D02*
X244571D01*
X240571Y252257D02*
Y260257D01*
X268558Y269171D02*
X276558D01*
X272558Y265171D02*
Y273171D01*
X266222Y259834D02*
X274222D01*
X270222Y255834D02*
Y263834D01*
X268648Y256462D02*
X276648D01*
X272648Y252462D02*
Y260462D01*
X282243Y254763D02*
X290243D01*
X286243Y250763D02*
Y258763D01*
X286127Y261315D02*
X294127D01*
X290127Y257315D02*
Y265315D01*
X285532Y264363D02*
X293532D01*
X289532Y260363D02*
Y268363D01*
X277730Y259979D02*
X285730D01*
X281730Y255979D02*
Y263979D01*
X305953Y264202D02*
X313953D01*
X309953Y260202D02*
Y268202D01*
X292667Y267410D02*
X300667D01*
X296667Y263410D02*
Y271410D01*
X303445Y269789D02*
X311445D01*
X307445Y265789D02*
Y273789D01*
X316706Y266509D02*
X324706D01*
X320706Y262509D02*
Y270509D01*
X313362Y265245D02*
X321362D01*
X317362Y261245D02*
Y269245D01*
X311065Y262994D02*
X319065D01*
X315065Y258994D02*
Y266994D01*
X366068Y255617D02*
X374068D01*
X370068Y251617D02*
Y259617D01*
X361439Y258306D02*
X369439D01*
X365439Y254306D02*
Y262306D01*
X361807Y264618D02*
X369807D01*
X365807Y260618D02*
Y268618D01*
X353311Y265314D02*
X361311D01*
X357311Y261314D02*
Y269314D01*
X358658Y253366D02*
X366658D01*
X362658Y249366D02*
Y257366D01*
X368314Y264703D02*
X376314D01*
X372314Y260703D02*
Y268703D01*
X380085Y258654D02*
X388085D01*
X384085Y254654D02*
Y262654D01*
X386771Y262091D02*
X394771D01*
X390771Y258091D02*
Y266091D01*
X371035Y266245D02*
X379035D01*
X375035Y262245D02*
Y270245D01*
X401699Y260461D02*
X409699D01*
X405699Y256461D02*
Y264461D01*
X406264Y260515D02*
X414264D01*
X410264Y256515D02*
Y264515D01*
X392476Y258589D02*
X400476D01*
X396476Y254589D02*
Y262589D01*
X398987Y261717D02*
X406987D01*
X402987Y257717D02*
Y265717D01*
X395558Y258971D02*
X403558D01*
X399558Y254971D02*
Y262971D01*
X396478Y266249D02*
X404478D01*
X400478Y262249D02*
Y270249D01*
X399200Y258427D02*
X407200D01*
X403200Y254427D02*
Y262427D01*
X413929Y261172D02*
X421929D01*
X417929Y257172D02*
Y265172D01*
X409393Y261059D02*
X417393D01*
X413393Y257059D02*
Y265059D01*
X416860Y260565D02*
X424860D01*
X420860Y256565D02*
Y264565D01*
X420653Y265236D02*
X428653D01*
X424653Y261236D02*
Y269236D01*
X419936Y262133D02*
X427936D01*
X423936Y258133D02*
Y266133D01*
X445194Y267381D02*
X453194D01*
X449194Y263381D02*
Y271381D01*
X446092Y261591D02*
X454092D01*
X450092Y257591D02*
Y265591D01*
X448618Y268646D02*
X456618D01*
X452618Y264646D02*
Y272646D01*
X467995Y263807D02*
X475995D01*
X471995Y259807D02*
Y267807D01*
X463750Y265145D02*
X471750D01*
X467750Y261145D02*
Y269145D01*
X451576Y270928D02*
X459576D01*
X455576Y266928D02*
Y274928D01*
X451666Y266104D02*
X459666D01*
X455666Y262104D02*
Y270104D01*
X451524Y262606D02*
X459524D01*
X455524Y258606D02*
Y266606D01*
X480838Y270994D02*
X488838D01*
X484838Y266994D02*
Y274994D01*
X110344Y293054D02*
X118344D01*
X114344Y289054D02*
Y297054D01*
X121222Y281505D02*
X129222D01*
X125222Y277505D02*
Y285505D01*
X123973Y279017D02*
X131973D01*
X127973Y275017D02*
Y283017D01*
X117991Y289757D02*
X125991D01*
X121991Y285757D02*
Y293757D01*
X111075Y288708D02*
X119075D01*
X115075Y284708D02*
Y292708D01*
X126253Y276229D02*
X134253D01*
X130253Y272229D02*
Y280229D01*
X145979Y292439D02*
X153979D01*
X149979Y288439D02*
Y296439D01*
X146715Y281609D02*
X154715D01*
X150715Y277609D02*
Y285609D01*
X152191Y284394D02*
X160191D01*
X156191Y280394D02*
Y288394D01*
X166842Y280820D02*
X174842D01*
X170842Y276820D02*
Y284820D01*
X162589Y278959D02*
X170589D01*
X166589Y274959D02*
Y282959D01*
X159781Y276619D02*
X167781D01*
X163781Y272619D02*
Y280619D01*
X153017Y276619D02*
X161017D01*
X157017Y272619D02*
Y280619D01*
X184116Y287580D02*
X192116D01*
X188116Y283580D02*
Y291580D01*
X171711Y286676D02*
X179711D01*
X175711Y282676D02*
Y290676D01*
X171764Y289861D02*
X179764D01*
X175764Y285861D02*
Y293861D01*
X169294Y276619D02*
X177294D01*
X173294Y272619D02*
Y280619D01*
X200042Y278923D02*
X208042D01*
X204042Y274923D02*
Y282923D01*
X194400Y289021D02*
X202400D01*
X198400Y285021D02*
Y293021D01*
X207135Y285613D02*
X215135D01*
X211135Y281613D02*
Y289613D01*
X224646Y276352D02*
X232646D01*
X228646Y272352D02*
Y280352D01*
X210212Y291814D02*
X218212D01*
X214212Y287814D02*
Y295814D01*
X224582Y279483D02*
X232582D01*
X228582Y275483D02*
Y283483D01*
X233473Y291297D02*
X241473D01*
X237473Y287297D02*
Y295297D01*
X233344Y287852D02*
X241344D01*
X237344Y283852D02*
Y291852D01*
X230079Y287806D02*
X238079D01*
X234079Y283806D02*
Y291806D01*
X267018Y282840D02*
X275018D01*
X271018Y278840D02*
Y286840D01*
X254130Y276153D02*
X262130D01*
X258130Y272153D02*
Y280153D01*
X282840Y287469D02*
X290840D01*
X286840Y283469D02*
Y291469D01*
X307007Y281350D02*
X315007D01*
X311007Y277350D02*
Y285350D01*
X291953Y285958D02*
X299953D01*
X295953Y281958D02*
Y289958D01*
X314488Y284762D02*
X322488D01*
X318488Y280762D02*
Y288762D01*
X347793Y287383D02*
X355793D01*
X351793Y283383D02*
Y291383D01*
X341990Y287839D02*
X349990D01*
X345990Y283839D02*
Y291839D01*
X359507Y281644D02*
X367507D01*
X363507Y277644D02*
Y285644D01*
X355529Y280378D02*
X363529D01*
X359529Y276378D02*
Y284378D01*
X352581Y280083D02*
X360581D01*
X356581Y276083D02*
Y284083D01*
X358199Y278870D02*
X366199D01*
X362199Y274870D02*
Y282870D01*
X387750Y286552D02*
X395750D01*
X391750Y282552D02*
Y290552D01*
X385596Y288873D02*
X393596D01*
X389596Y284873D02*
Y292873D01*
X373974Y287520D02*
X381974D01*
X377974Y283520D02*
Y291520D01*
X401523Y286871D02*
X409523D01*
X405523Y282871D02*
Y290871D01*
X405342Y289022D02*
X413342D01*
X409342Y285022D02*
Y293022D01*
X404412Y286209D02*
X412412D01*
X408412Y282209D02*
Y290209D01*
X388994Y289399D02*
X396994D01*
X392994Y285399D02*
Y293399D01*
X394984Y285374D02*
X402984D01*
X398984Y281374D02*
Y289374D01*
X397819Y286406D02*
X405819D01*
X401819Y282406D02*
Y290406D01*
X395270Y276945D02*
X403270D01*
X399270Y272945D02*
Y280945D01*
X399633Y282409D02*
X407633D01*
X403633Y278409D02*
Y286409D01*
X408972Y286205D02*
X416972D01*
X412972Y282205D02*
Y290205D01*
X421835Y278504D02*
X429835D01*
X425835Y274504D02*
Y282504D01*
X428080Y290361D02*
X436080D01*
X432080Y286361D02*
Y294361D01*
X445776Y282919D02*
X453776D01*
X449776Y278919D02*
Y286919D01*
X440035Y282915D02*
X448035D01*
X444035Y278915D02*
Y286915D01*
X459123Y282011D02*
X467123D01*
X463123Y278011D02*
Y286011D01*
X480865Y273991D02*
X488865D01*
X484865Y269991D02*
Y277991D01*
X480710Y278835D02*
X488710D01*
X484710Y274835D02*
Y282835D01*
X480928Y281956D02*
X488928D01*
X484928Y277956D02*
Y285956D01*
X105091Y309384D02*
X113091D01*
X109091Y305384D02*
Y313384D01*
X123406Y305327D02*
X131406D01*
X127406Y301327D02*
Y309327D01*
X109570Y307735D02*
X117570D01*
X113570Y303735D02*
Y311735D01*
X146232Y299538D02*
X154232D01*
X150232Y295538D02*
Y303538D01*
X146062Y306758D02*
X154062D01*
X150062Y302758D02*
Y310758D01*
X146062Y309285D02*
X154062D01*
X150062Y305285D02*
Y313285D01*
X143561Y296977D02*
X151561D01*
X147561Y292977D02*
Y300977D01*
X134590Y312806D02*
X142590D01*
X138590Y308806D02*
Y316806D01*
X135331Y303133D02*
X143331D01*
X139331Y299133D02*
Y307133D01*
X170906Y297413D02*
X178906D01*
X174906Y293413D02*
Y301413D01*
X179859Y298801D02*
X187859D01*
X183859Y294801D02*
Y302801D01*
X206288Y303388D02*
X214288D01*
X210288Y299388D02*
Y307388D01*
X210019Y295040D02*
X218019D01*
X214019Y291040D02*
Y299040D01*
X407736Y301696D02*
X415736D01*
X411736Y297696D02*
Y305696D01*
X405160Y304278D02*
X413160D01*
X409160Y300278D02*
Y308278D01*
X403076Y307486D02*
X411076D01*
X407076Y303486D02*
Y311486D01*
X399716Y294089D02*
X407716D01*
X403716Y290089D02*
Y298089D01*
X107041Y314344D02*
X115041D01*
X111041Y310344D02*
Y318344D01*
X118611Y320343D02*
X126611D01*
X122611Y316343D02*
Y324343D01*
X123350Y323637D02*
X131350D01*
X127350Y319637D02*
Y327637D01*
X160771Y329475D02*
X168771D01*
X164771Y325475D02*
Y333475D01*
X160801Y332611D02*
X168801D01*
X164801Y328611D02*
Y336611D01*
X178175Y313511D02*
X186175D01*
X182175Y309511D02*
Y317511D01*
X172115Y313535D02*
X180115D01*
X176115Y309535D02*
Y317535D01*
X183430Y315405D02*
X191430D01*
X187430Y311405D02*
Y319405D01*
X183477Y318411D02*
X191477D01*
X187477Y314411D02*
Y322411D01*
X190270Y327708D02*
X198270D01*
X194270Y323708D02*
Y331708D01*
X199870Y322812D02*
X207870D01*
X203870Y318812D02*
Y326812D01*
X217960Y320104D02*
X225960D01*
X221960Y316104D02*
Y324104D01*
X214752Y319968D02*
X222752D01*
X218752Y315968D02*
Y323968D01*
X216132Y322719D02*
X224132D01*
X220132Y318719D02*
Y326719D01*
X219030Y325035D02*
X227030D01*
X223030Y321035D02*
Y329035D01*
X216011Y325873D02*
X224011D01*
X220011Y321873D02*
Y329873D01*
X232365Y325589D02*
X240365D01*
X236365Y321589D02*
Y329589D01*
X256454Y317215D02*
X264454D01*
X260454Y313215D02*
Y321215D01*
X255857Y331090D02*
X263857D01*
X259857Y327090D02*
Y335090D01*
X259728Y323273D02*
X267728D01*
X263728Y319273D02*
Y327273D01*
X264822Y317316D02*
X272822D01*
X268822Y313316D02*
Y321316D01*
X251178Y322677D02*
X259178D01*
X255178Y318677D02*
Y326677D01*
X294064Y323174D02*
X302064D01*
X298064Y319174D02*
Y327174D01*
X326499Y320549D02*
X334499D01*
X330499Y316549D02*
Y324549D01*
X321925Y313936D02*
X329925D01*
X325925Y309936D02*
Y317936D01*
X320909Y320454D02*
X328909D01*
X324909Y316454D02*
Y324454D01*
X310645Y321848D02*
X318645D01*
X314645Y317848D02*
Y325848D01*
X331765Y322926D02*
X339765D01*
X335765Y318926D02*
Y326926D01*
X367929Y323297D02*
X375929D01*
X371929Y319297D02*
Y327297D01*
X367076Y320141D02*
X375076D01*
X371076Y316141D02*
Y324141D01*
X359502Y321572D02*
X367502D01*
X363502Y317572D02*
Y325572D01*
X350736Y323082D02*
X358736D01*
X354736Y319082D02*
Y327082D01*
X373462Y320112D02*
X381462D01*
X377462Y316112D02*
Y324112D01*
X370152Y320171D02*
X378152D01*
X374152Y316171D02*
Y324171D01*
X403975Y317679D02*
X411975D01*
X407975Y313679D02*
Y321679D01*
X484928Y331956D02*
X492928D01*
X488928Y327956D02*
Y335956D01*
X105077Y337296D02*
X113077D01*
X109077Y333296D02*
Y341296D01*
X147613Y334508D02*
X155613D01*
X151613Y330508D02*
Y338508D01*
X146974Y339056D02*
X154974D01*
X150974Y335056D02*
Y343056D01*
X147459Y342052D02*
X155459D01*
X151459Y338052D02*
Y346052D01*
X138094Y349336D02*
X146094D01*
X142094Y345336D02*
Y353336D01*
X143138Y342393D02*
X151138D01*
X147138Y338393D02*
Y346393D01*
X158058Y348999D02*
X166058D01*
X162058Y344999D02*
Y352999D01*
X160801Y335687D02*
X168801D01*
X164801Y331687D02*
Y339687D01*
X181016Y337595D02*
X189016D01*
X185016Y333595D02*
Y341595D01*
X187277Y337501D02*
X195277D01*
X191277Y333501D02*
Y341501D01*
X177990Y346413D02*
X185990D01*
X181990Y342413D02*
Y350413D01*
X173799Y346533D02*
X181799D01*
X177799Y342533D02*
Y350533D01*
X218556Y339421D02*
X226556D01*
X222556Y335421D02*
Y343421D01*
X225433Y351803D02*
X233433D01*
X229433Y347803D02*
Y355803D01*
X223945Y346368D02*
X231945D01*
X227945Y342368D02*
Y350368D01*
X380772Y353237D02*
X388772D01*
X384772Y349237D02*
Y357237D01*
X381158Y337879D02*
X389158D01*
X385158Y333879D02*
Y341879D01*
X390079Y348719D02*
X398079D01*
X394079Y344719D02*
Y352719D01*
X396239Y336978D02*
X404239D01*
X400239Y332978D02*
Y340978D01*
X411145Y337797D02*
X419145D01*
X415145Y333797D02*
Y341797D01*
X422827Y351712D02*
X430827D01*
X426827Y347712D02*
Y355712D01*
X442415Y343513D02*
X450415D01*
X446415Y339513D02*
Y347513D01*
X431184Y350289D02*
X439184D01*
X435184Y346289D02*
Y354289D01*
X446913Y343400D02*
X454913D01*
X450913Y339400D02*
Y347400D01*
X467910Y334053D02*
X475910D01*
X471910Y330053D02*
Y338053D01*
X455340Y336441D02*
X463340D01*
X459340Y332441D02*
Y340441D01*
X485342Y349153D02*
X493342D01*
X489342Y345153D02*
Y353153D01*
X487320Y338563D02*
X495320D01*
X491320Y334563D02*
Y342563D01*
X488682Y351966D02*
X496682D01*
X492682Y347966D02*
Y355966D01*
X121261Y370467D02*
X129261D01*
X125261Y366467D02*
Y374467D01*
X178716Y370123D02*
X186716D01*
X182716Y366123D02*
Y374123D01*
X206929Y369207D02*
X214929D01*
X210929Y365207D02*
Y373207D01*
X198319Y368841D02*
X206319D01*
X202319Y364841D02*
Y372841D01*
X194318Y354443D02*
X202318D01*
X198318Y350443D02*
Y358443D01*
X225067Y369574D02*
X233067D01*
X229067Y365574D02*
Y373574D01*
X385229Y359650D02*
X393229D01*
X389229Y355650D02*
Y363650D01*
X385229Y362995D02*
X393229D01*
X389229Y358995D02*
Y366995D01*
X385303Y366265D02*
X393303D01*
X389303Y362265D02*
Y370265D01*
X380484Y370495D02*
X388484D01*
X384484Y366495D02*
Y374495D01*
X407809Y369632D02*
X415809D01*
X411809Y365632D02*
Y373632D01*
X438298Y370208D02*
X446298D01*
X442298Y366208D02*
Y374208D01*
X460500Y356040D02*
X468500D01*
X464500Y352040D02*
Y360040D01*
X493524Y370783D02*
X501524D01*
X497524Y366783D02*
Y374783D01*
X499473Y373359D02*
Y109579D01*
X261048*
Y126510*
X182308*
Y109579*
X105772*
Y373359*
X231756*
Y333989*
X381363*
Y373359*
X499473*
X162928Y197456D02*
Y144456D01*
X183928*
Y197456*
X162928*
X100000Y616000D02*
X358000D01*
X100000Y592000D02*
X358000D01*
X100000Y568000D02*
X358000D01*
X100000Y544000D02*
X358000D01*
X100000Y520000D02*
X358000D01*
X100000Y496000D02*
X358000D01*
X100000Y472000D02*
X358000D01*
X100000Y448000D02*
X358000D01*
X100000Y424000D02*
X358000D01*
X100000Y400000D02*
X358000D01*
X100000Y616000D02*
Y400000D01*
X184000Y616000D02*
Y400000D01*
X220000Y616000D02*
Y400000D01*
X256000Y616000D02*
Y400000D01*
X310000Y616000D02*
Y400000D01*
X358000Y616000D02*
Y400000D01*
X135500Y604750D02*
X134955Y605500D01*
X134136Y605875*
X133045*
X132227Y605500*
X131682Y604750*
Y604000*
X131955Y603250*
X132227Y602875*
X132773Y602500*
X134409Y601750*
X134955Y601375*
X135227Y601000*
X135500Y600250*
Y599125*
X134955Y598375*
X134136Y598000*
X133045*
X132227Y598375*
X131682Y599125*
X137955Y605875D02*
Y598000D01*
X144227Y605875D02*
X140409Y598000D01*
Y605875D02*
X144227D01*
X140409Y598000D02*
X144227D01*
X146682Y605875D02*
Y598000D01*
Y605875D02*
X150227D01*
X146682Y602125D02*
X148864D01*
X146682Y598000D02*
X150227D01*
X193864Y605875D02*
X193318Y605500D01*
X192773Y604750*
X192500Y604000*
X192227Y602875*
Y601000*
X192500Y599875*
X192773Y599125*
X193318Y598375*
X193864Y598000*
X194955*
X195500Y598375*
X196045Y599125*
X196318Y599875*
X196591Y601000*
Y602875*
X196318Y604000*
X196045Y604750*
X195500Y605500*
X194955Y605875*
X193864*
X194682Y599500D02*
X196318Y597250D01*
X200955Y605875D02*
Y598000D01*
X199045Y605875D02*
X202864D01*
X205318D02*
X207500Y602125D01*
Y598000*
X209682Y605875D02*
X207500Y602125D01*
X232045Y604750D02*
X231500Y605500D01*
X230682Y605875*
X229591*
X228773Y605500*
X228227Y604750*
Y604000*
X228500Y603250*
X228773Y602875*
X229318Y602500*
X230955Y601750*
X231500Y601375*
X231773Y601000*
X232045Y600250*
Y599125*
X231500Y598375*
X230682Y598000*
X229591*
X228773Y598375*
X228227Y599125*
X234500Y605875D02*
X236682Y602125D01*
Y598000*
X238864Y605875D02*
X236682Y602125D01*
X241318Y605875D02*
Y598000D01*
Y605875D02*
X243500Y598000D01*
X245682Y605875D02*
X243500Y598000D01*
X245682Y605875D02*
Y598000D01*
X267500Y605875D02*
Y598000D01*
Y605875D02*
X269955D01*
X270773Y605500*
X271045Y605125*
X271318Y604375*
Y603250*
X271045Y602500*
X270773Y602125*
X269955Y601750*
X267500*
X273773Y605875D02*
Y598000D01*
X277045*
X281682Y605875D02*
X279500Y598000D01*
X281682Y605875D02*
X283864Y598000D01*
X280318Y600625D02*
X283045D01*
X288227Y605875D02*
Y598000D01*
X286318Y605875D02*
X290136D01*
X292591D02*
Y598000D01*
Y605875D02*
X296136D01*
X292591Y602125D02*
X294773D01*
X292591Y598000D02*
X296136D01*
X298591Y605875D02*
Y598000D01*
Y605875D02*
X300500D01*
X301318Y605500*
X301864Y604750*
X302136Y604000*
X302409Y602875*
Y601000*
X302136Y599875*
X301864Y599125*
X301318Y598375*
X300500Y598000*
X298591*
X326682Y605875D02*
Y598000D01*
X324773Y605875D02*
X328591D01*
X332682D02*
X332136Y605500D01*
X331591Y604750*
X331318Y604000*
X331045Y602875*
Y601000*
X331318Y599875*
X331591Y599125*
X332136Y598375*
X332682Y598000*
X333773*
X334318Y598375*
X334864Y599125*
X335136Y599875*
X335409Y601000*
Y602875*
X335136Y604000*
X334864Y604750*
X334318Y605500*
X333773Y605875*
X332682*
X337864D02*
Y598000D01*
X341136*
X106000Y580375D02*
X106545Y580750D01*
X107364Y581875*
Y574000*
X109818Y580375D02*
X110364Y580750D01*
X111182Y581875*
Y574000*
X113909Y574750D02*
X113636Y574375D01*
X113909Y574000*
X114182Y574375*
X113909Y574750*
X118000Y581875D02*
X117182Y581500D01*
X116909Y580750*
Y580000*
X117182Y579250*
X117727Y578875*
X118818Y578500*
X119636Y578125*
X120182Y577375*
X120455Y576625*
Y575500*
X120182Y574750*
X119909Y574375*
X119091Y574000*
X118000*
X117182Y574375*
X116909Y574750*
X116636Y575500*
Y576625*
X116909Y577375*
X117455Y578125*
X118273Y578500*
X119364Y578875*
X119909Y579250*
X120182Y580000*
Y580750*
X119909Y581500*
X119091Y581875*
X118000*
X122909Y580375D02*
X123455Y580750D01*
X124273Y581875*
Y574000*
X196318Y581875D02*
X193591D01*
X193318Y578500*
X193591Y578875*
X194409Y579250*
X195227*
X196045Y578875*
X196591Y578125*
X196864Y577000*
X196591Y576250*
X196318Y575125*
X195773Y574375*
X194955Y574000*
X194136*
X193318Y574375*
X193045Y574750*
X192773Y575500*
X199864Y581875D02*
X202864D01*
X201227Y578875*
X202045*
X202591Y578500*
X202864Y578125*
X203136Y577000*
Y576250*
X202864Y575125*
X202318Y574375*
X201500Y574000*
X200682*
X199864Y574375*
X199591Y574750*
X199318Y575500*
X208864Y580750D02*
X208591Y581500D01*
X207773Y581875*
X207227*
X206409Y581500*
X205864Y580375*
X205591Y578500*
Y576625*
X205864Y575125*
X206409Y574375*
X207227Y574000*
X207500*
X208318Y574375*
X208864Y575125*
X209136Y576250*
Y576625*
X208864Y577750*
X208318Y578500*
X207500Y578875*
X207227*
X206409Y578500*
X205864Y577750*
X205591Y576625*
X232000Y580000D02*
X244000D01*
X238000Y574000D02*
Y586000D01*
X264636Y581875D02*
X266818Y578125D01*
Y574000*
X269000Y581875D02*
X266818Y578125D01*
X271455Y581875D02*
Y574000D01*
Y581875D02*
X275000D01*
X271455Y578125D02*
X273636D01*
X271455Y574000D02*
X275000D01*
X281273Y580750D02*
X280727Y581500D01*
X279909Y581875*
X278818*
X278000Y581500*
X277455Y580750*
Y580000*
X277727Y579250*
X278000Y578875*
X278545Y578500*
X280182Y577750*
X280727Y577375*
X281000Y577000*
X281273Y576250*
Y575125*
X280727Y574375*
X279909Y574000*
X278818*
X278000Y574375*
X277455Y575125*
X317818Y580750D02*
Y574000D01*
X315364Y577375D02*
X320273D01*
X327636Y583375D02*
X322727Y571375D01*
X330091Y577375D02*
X335000D01*
X339091Y581875D02*
X338273Y581500D01*
X337727Y580375*
X337455Y578500*
Y577375*
X337727Y575500*
X338273Y574375*
X339091Y574000*
X339636*
X340455Y574375*
X341000Y575500*
X341273Y577375*
Y578500*
X341000Y580375*
X340455Y581500*
X339636Y581875*
X339091*
X344000Y574750D02*
X343727Y574375D01*
X344000Y574000*
X344273Y574375*
X344000Y574750*
X348364Y581875D02*
X347545Y581500D01*
X347000Y580375*
X346727Y578500*
Y577375*
X347000Y575500*
X347545Y574375*
X348364Y574000*
X348909*
X349727Y574375*
X350273Y575500*
X350545Y577375*
Y578500*
X350273Y580375*
X349727Y581500*
X348909Y581875*
X348364*
X106545Y557875D02*
X109545D01*
X107909Y554875*
X108727*
X109273Y554500*
X109545Y554125*
X109818Y553000*
Y552250*
X109545Y551125*
X109000Y550375*
X108182Y550000*
X107364*
X106545Y550375*
X106273Y550750*
X106000Y551500*
X115818Y557875D02*
X113091D01*
X112818Y554500*
X113091Y554875*
X113909Y555250*
X114727*
X115545Y554875*
X116091Y554125*
X116364Y553000*
X116091Y552250*
X115818Y551125*
X115273Y550375*
X114455Y550000*
X113636*
X112818Y550375*
X112545Y550750*
X112273Y551500*
X119091Y550750D02*
X118818Y550375D01*
X119091Y550000*
X119364Y550375*
X119091Y550750*
X124545Y557875D02*
X121818Y552625D01*
X125909*
X124545Y557875D02*
Y550000D01*
X128909Y557875D02*
X131909D01*
X130273Y554875*
X131091*
X131636Y554500*
X131909Y554125*
X132182Y553000*
Y552250*
X131909Y551125*
X131364Y550375*
X130545Y550000*
X129727*
X128909Y550375*
X128636Y550750*
X128364Y551500*
X199591Y557875D02*
X202591D01*
X200955Y554875*
X201773*
X202318Y554500*
X202591Y554125*
X202864Y553000*
Y552250*
X202591Y551125*
X202045Y550375*
X201227Y550000*
X200409*
X199591Y550375*
X199318Y550750*
X199045Y551500*
X232000Y550000D02*
X244000Y562000D01*
X232000D02*
X244000Y550000D01*
X264636Y557875D02*
X266818Y554125D01*
Y550000*
X269000Y557875D02*
X266818Y554125D01*
X271455Y557875D02*
Y550000D01*
Y557875D02*
X275000D01*
X271455Y554125D02*
X273636D01*
X271455Y550000D02*
X275000D01*
X281273Y556750D02*
X280727Y557500D01*
X279909Y557875*
X278818*
X278000Y557500*
X277455Y556750*
Y556000*
X277727Y555250*
X278000Y554875*
X278545Y554500*
X280182Y553750*
X280727Y553375*
X281000Y553000*
X281273Y552250*
Y551125*
X280727Y550375*
X279909Y550000*
X278818*
X278000Y550375*
X277455Y551125*
X317818Y556750D02*
Y550000D01*
X315364Y553375D02*
X320273D01*
X327636Y559375D02*
X322727Y547375D01*
X330091Y553375D02*
X335000D01*
X339091Y557875D02*
X338273Y557500D01*
X337727Y556375*
X337455Y554500*
Y553375*
X337727Y551500*
X338273Y550375*
X339091Y550000*
X339636*
X340455Y550375*
X341000Y551500*
X341273Y553375*
Y554500*
X341000Y556375*
X340455Y557500*
X339636Y557875*
X339091*
X344000Y550750D02*
X343727Y550375D01*
X344000Y550000*
X344273Y550375*
X344000Y550750*
X348364Y557875D02*
X347545Y557500D01*
X347000Y556375*
X346727Y554500*
Y553375*
X347000Y551500*
X347545Y550375*
X348364Y550000*
X348909*
X349727Y550375*
X350273Y551500*
X350545Y553375*
Y554500*
X350273Y556375*
X349727Y557500*
X348909Y557875*
X348364*
X106545Y533875D02*
X109545D01*
X107909Y530875*
X108727*
X109273Y530500*
X109545Y530125*
X109818Y529000*
Y528250*
X109545Y527125*
X109000Y526375*
X108182Y526000*
X107364*
X106545Y526375*
X106273Y526750*
X106000Y527500*
X116091Y533875D02*
X113364Y526000D01*
X112273Y533875D02*
X116091D01*
X196455D02*
X199455D01*
X197818Y530875*
X198636*
X199182Y530500*
X199455Y530125*
X199727Y529000*
Y528250*
X199455Y527125*
X198909Y526375*
X198091Y526000*
X197273*
X196455Y526375*
X196182Y526750*
X195909Y527500*
X203818Y533875D02*
X203000Y533500D01*
X202455Y532375*
X202182Y530500*
Y529375*
X202455Y527500*
X203000Y526375*
X203818Y526000*
X204364*
X205182Y526375*
X205727Y527500*
X206000Y529375*
Y530500*
X205727Y532375*
X205182Y533500*
X204364Y533875*
X203818*
X232000Y526000D02*
X244000D01*
Y538000*
X232000*
Y526000*
X238000Y532000D02*
Y538000D01*
X264636Y533875D02*
X266818Y530125D01*
Y526000*
X269000Y533875D02*
X266818Y530125D01*
X271455Y533875D02*
Y526000D01*
Y533875D02*
X275000D01*
X271455Y530125D02*
X273636D01*
X271455Y526000D02*
X275000D01*
X281273Y532750D02*
X280727Y533500D01*
X279909Y533875*
X278818*
X278000Y533500*
X277455Y532750*
Y532000*
X277727Y531250*
X278000Y530875*
X278545Y530500*
X280182Y529750*
X280727Y529375*
X281000Y529000*
X281273Y528250*
Y527125*
X280727Y526375*
X279909Y526000*
X278818*
X278000Y526375*
X277455Y527125*
X317818Y532750D02*
Y526000D01*
X315364Y529375D02*
X320273D01*
X327636Y535375D02*
X322727Y523375D01*
X330091Y529375D02*
X335000D01*
X339091Y533875D02*
X338273Y533500D01*
X337727Y532375*
X337455Y530500*
Y529375*
X337727Y527500*
X338273Y526375*
X339091Y526000*
X339636*
X340455Y526375*
X341000Y527500*
X341273Y529375*
Y530500*
X341000Y532375*
X340455Y533500*
X339636Y533875*
X339091*
X344000Y526750D02*
X343727Y526375D01*
X344000Y526000*
X344273Y526375*
X344000Y526750*
X348364Y533875D02*
X347545Y533500D01*
X347000Y532375*
X346727Y530500*
Y529375*
X347000Y527500*
X347545Y526375*
X348364Y526000*
X348909*
X349727Y526375*
X350273Y527500*
X350545Y529375*
Y530500*
X350273Y532375*
X349727Y533500*
X348909Y533875*
X348364*
X106273Y508000D02*
Y508375D01*
X106545Y509125*
X106818Y509500*
X107364Y509875*
X108455*
X109000Y509500*
X109273Y509125*
X109545Y508375*
Y507625*
X109273Y506875*
X108727Y505750*
X106000Y502000*
X109818*
X115818Y509875D02*
X113091D01*
X112818Y506500*
X113091Y506875*
X113909Y507250*
X114727*
X115545Y506875*
X116091Y506125*
X116364Y505000*
X116091Y504250*
X115818Y503125*
X115273Y502375*
X114455Y502000*
X113636*
X112818Y502375*
X112545Y502750*
X112273Y503500*
X119091Y502750D02*
X118818Y502375D01*
X119091Y502000*
X119364Y502375*
X119091Y502750*
X125364Y509875D02*
X122636D01*
X122364Y506500*
X122636Y506875*
X123455Y507250*
X124273*
X125091Y506875*
X125636Y506125*
X125909Y505000*
X125636Y504250*
X125364Y503125*
X124818Y502375*
X124000Y502000*
X123182*
X122364Y502375*
X122091Y502750*
X121818Y503500*
X131909Y507250D02*
X131636Y506125D01*
X131091Y505375*
X130273Y505000*
X130000*
X129182Y505375*
X128636Y506125*
X128364Y507250*
Y507625*
X128636Y508750*
X129182Y509500*
X130000Y509875*
X130273*
X131091Y509500*
X131636Y508750*
X131909Y507250*
Y505375*
X131636Y503500*
X131091Y502375*
X130273Y502000*
X129727*
X128909Y502375*
X128636Y503125*
X198500Y509875D02*
X195773Y504625D01*
X199864*
X198500Y509875D02*
Y502000D01*
X203955Y509875D02*
X203136Y509500D01*
X202591Y508375*
X202318Y506500*
Y505375*
X202591Y503500*
X203136Y502375*
X203955Y502000*
X204500*
X205318Y502375*
X205864Y503500*
X206136Y505375*
Y506500*
X205864Y508375*
X205318Y509500*
X204500Y509875*
X203955*
X238000Y502000D02*
X244000Y508000D01*
X238000Y514000*
X232000Y508000*
X238000Y502000*
Y508000D02*
Y514000D01*
X264636Y509875D02*
X266818Y506125D01*
Y502000*
X269000Y509875D02*
X266818Y506125D01*
X271455Y509875D02*
Y502000D01*
Y509875D02*
X275000D01*
X271455Y506125D02*
X273636D01*
X271455Y502000D02*
X275000D01*
X281273Y508750D02*
X280727Y509500D01*
X279909Y509875*
X278818*
X278000Y509500*
X277455Y508750*
Y508000*
X277727Y507250*
X278000Y506875*
X278545Y506500*
X280182Y505750*
X280727Y505375*
X281000Y505000*
X281273Y504250*
Y503125*
X280727Y502375*
X279909Y502000*
X278818*
X278000Y502375*
X277455Y503125*
X317818Y508750D02*
Y502000D01*
X315364Y505375D02*
X320273D01*
X327636Y511375D02*
X322727Y499375D01*
X330091Y505375D02*
X335000D01*
X339091Y509875D02*
X338273Y509500D01*
X337727Y508375*
X337455Y506500*
Y505375*
X337727Y503500*
X338273Y502375*
X339091Y502000*
X339636*
X340455Y502375*
X341000Y503500*
X341273Y505375*
Y506500*
X341000Y508375*
X340455Y509500*
X339636Y509875*
X339091*
X344000Y502750D02*
X343727Y502375D01*
X344000Y502000*
X344273Y502375*
X344000Y502750*
X348364Y509875D02*
X347545Y509500D01*
X347000Y508375*
X346727Y506500*
Y505375*
X347000Y503500*
X347545Y502375*
X348364Y502000*
X348909*
X349727Y502375*
X350273Y503500*
X350545Y505375*
Y506500*
X350273Y508375*
X349727Y509500*
X348909Y509875*
X348364*
X109545Y485875D02*
X106818D01*
X106545Y482500*
X106818Y482875*
X107636Y483250*
X108455*
X109273Y482875*
X109818Y482125*
X110091Y481000*
X109818Y480250*
X109545Y479125*
X109000Y478375*
X108182Y478000*
X107364*
X106545Y478375*
X106273Y478750*
X106000Y479500*
X116091Y483250D02*
X115818Y482125D01*
X115273Y481375*
X114455Y481000*
X114182*
X113364Y481375*
X112818Y482125*
X112545Y483250*
Y483625*
X112818Y484750*
X113364Y485500*
X114182Y485875*
X114455*
X115273Y485500*
X115818Y484750*
X116091Y483250*
Y481375*
X115818Y479500*
X115273Y478375*
X114455Y478000*
X113909*
X113091Y478375*
X112818Y479125*
X118818Y478750D02*
X118545Y478375D01*
X118818Y478000*
X119091Y478375*
X118818Y478750*
X123182Y485875D02*
X122364Y485500D01*
X121818Y484375*
X121545Y482500*
Y481375*
X121818Y479500*
X122364Y478375*
X123182Y478000*
X123727*
X124545Y478375*
X125091Y479500*
X125364Y481375*
Y482500*
X125091Y484375*
X124545Y485500*
X123727Y485875*
X123182*
X131091Y484750D02*
X130818Y485500D01*
X130000Y485875*
X129455*
X128636Y485500*
X128091Y484375*
X127818Y482500*
Y480625*
X128091Y479125*
X128636Y478375*
X129455Y478000*
X129727*
X130545Y478375*
X131091Y479125*
X131364Y480250*
Y480625*
X131091Y481750*
X130545Y482500*
X129727Y482875*
X129455*
X128636Y482500*
X128091Y481750*
X127818Y480625*
X199591Y485875D02*
X202591D01*
X200955Y482875*
X201773*
X202318Y482500*
X202591Y482125*
X202864Y481000*
Y480250*
X202591Y479125*
X202045Y478375*
X201227Y478000*
X200409*
X199591Y478375*
X199318Y478750*
X199045Y479500*
X232000Y478000D02*
X244000D01*
X232000Y490000*
X244000*
X232000Y478000*
X264636Y485875D02*
X266818Y482125D01*
Y478000*
X269000Y485875D02*
X266818Y482125D01*
X271455Y485875D02*
Y478000D01*
Y485875D02*
X275000D01*
X271455Y482125D02*
X273636D01*
X271455Y478000D02*
X275000D01*
X281273Y484750D02*
X280727Y485500D01*
X279909Y485875*
X278818*
X278000Y485500*
X277455Y484750*
Y484000*
X277727Y483250*
X278000Y482875*
X278545Y482500*
X280182Y481750*
X280727Y481375*
X281000Y481000*
X281273Y480250*
Y479125*
X280727Y478375*
X279909Y478000*
X278818*
X278000Y478375*
X277455Y479125*
X317818Y484750D02*
Y478000D01*
X315364Y481375D02*
X320273D01*
X327636Y487375D02*
X322727Y475375D01*
X330091Y481375D02*
X335000D01*
X339091Y485875D02*
X338273Y485500D01*
X337727Y484375*
X337455Y482500*
Y481375*
X337727Y479500*
X338273Y478375*
X339091Y478000*
X339636*
X340455Y478375*
X341000Y479500*
X341273Y481375*
Y482500*
X341000Y484375*
X340455Y485500*
X339636Y485875*
X339091*
X344000Y478750D02*
X343727Y478375D01*
X344000Y478000*
X344273Y478375*
X344000Y478750*
X348364Y485875D02*
X347545Y485500D01*
X347000Y484375*
X346727Y482500*
Y481375*
X347000Y479500*
X347545Y478375*
X348364Y478000*
X348909*
X349727Y478375*
X350273Y479500*
X350545Y481375*
Y482500*
X350273Y484375*
X349727Y485500*
X348909Y485875*
X348364*
X106545Y461875D02*
X109545D01*
X107909Y458875*
X108727*
X109273Y458500*
X109545Y458125*
X109818Y457000*
Y456250*
X109545Y455125*
X109000Y454375*
X108182Y454000*
X107364*
X106545Y454375*
X106273Y454750*
X106000Y455500*
X115818Y459250D02*
X115545Y458125D01*
X115000Y457375*
X114182Y457000*
X113909*
X113091Y457375*
X112545Y458125*
X112273Y459250*
Y459625*
X112545Y460750*
X113091Y461500*
X113909Y461875*
X114182*
X115000Y461500*
X115545Y460750*
X115818Y459250*
Y457375*
X115545Y455500*
X115000Y454375*
X114182Y454000*
X113636*
X112818Y454375*
X112545Y455125*
X118545Y454750D02*
X118273Y454375D01*
X118545Y454000*
X118818Y454375*
X118545Y454750*
X121818Y461875D02*
X124818D01*
X123182Y458875*
X124000*
X124545Y458500*
X124818Y458125*
X125091Y457000*
Y456250*
X124818Y455125*
X124273Y454375*
X123455Y454000*
X122636*
X121818Y454375*
X121545Y454750*
X121273Y455500*
X131364Y461875D02*
X128636Y454000D01*
X127545Y461875D02*
X131364D01*
X199318Y460000D02*
Y460375D01*
X199591Y461125*
X199864Y461500*
X200409Y461875*
X201500*
X202045Y461500*
X202318Y461125*
X202591Y460375*
Y459625*
X202318Y458875*
X201773Y457750*
X199045Y454000*
X202864*
X232000D02*
X244000Y466000D01*
Y454000*
X232000Y466000*
Y454000*
X264636Y461875D02*
X266818Y458125D01*
Y454000*
X269000Y461875D02*
X266818Y458125D01*
X271455Y461875D02*
Y454000D01*
Y461875D02*
X275000D01*
X271455Y458125D02*
X273636D01*
X271455Y454000D02*
X275000D01*
X281273Y460750D02*
X280727Y461500D01*
X279909Y461875*
X278818*
X278000Y461500*
X277455Y460750*
Y460000*
X277727Y459250*
X278000Y458875*
X278545Y458500*
X280182Y457750*
X280727Y457375*
X281000Y457000*
X281273Y456250*
Y455125*
X280727Y454375*
X279909Y454000*
X278818*
X278000Y454375*
X277455Y455125*
X317818Y460750D02*
Y454000D01*
X315364Y457375D02*
X320273D01*
X327636Y463375D02*
X322727Y451375D01*
X330091Y457375D02*
X335000D01*
X339091Y461875D02*
X338273Y461500D01*
X337727Y460375*
X337455Y458500*
Y457375*
X337727Y455500*
X338273Y454375*
X339091Y454000*
X339636*
X340455Y454375*
X341000Y455500*
X341273Y457375*
Y458500*
X341000Y460375*
X340455Y461500*
X339636Y461875*
X339091*
X344000Y454750D02*
X343727Y454375D01*
X344000Y454000*
X344273Y454375*
X344000Y454750*
X348364Y461875D02*
X347545Y461500D01*
X347000Y460375*
X346727Y458500*
Y457375*
X347000Y455500*
X347545Y454375*
X348364Y454000*
X348909*
X349727Y454375*
X350273Y455500*
X350545Y457375*
Y458500*
X350273Y460375*
X349727Y461500*
X348909Y461875*
X348364*
X106273Y436000D02*
Y436375D01*
X106545Y437125*
X106818Y437500*
X107364Y437875*
X108455*
X109000Y437500*
X109273Y437125*
X109545Y436375*
Y435625*
X109273Y434875*
X108727Y433750*
X106000Y430000*
X109818*
X115818Y437875D02*
X113091D01*
X112818Y434500*
X113091Y434875*
X113909Y435250*
X114727*
X115545Y434875*
X116091Y434125*
X116364Y433000*
X116091Y432250*
X115818Y431125*
X115273Y430375*
X114455Y430000*
X113636*
X112818Y430375*
X112545Y430750*
X112273Y431500*
X119091Y430750D02*
X118818Y430375D01*
X119091Y430000*
X119364Y430375*
X119091Y430750*
X125364Y437875D02*
X122636D01*
X122364Y434500*
X122636Y434875*
X123455Y435250*
X124273*
X125091Y434875*
X125636Y434125*
X125909Y433000*
X125636Y432250*
X125364Y431125*
X124818Y430375*
X124000Y430000*
X123182*
X122364Y430375*
X122091Y430750*
X121818Y431500*
X131909Y435250D02*
X131636Y434125D01*
X131091Y433375*
X130273Y433000*
X130000*
X129182Y433375*
X128636Y434125*
X128364Y435250*
Y435625*
X128636Y436750*
X129182Y437500*
X130000Y437875*
X130273*
X131091Y437500*
X131636Y436750*
X131909Y435250*
Y433375*
X131636Y431500*
X131091Y430375*
X130273Y430000*
X129727*
X128909Y430375*
X128636Y431125*
X199318Y436000D02*
Y436375D01*
X199591Y437125*
X199864Y437500*
X200409Y437875*
X201500*
X202045Y437500*
X202318Y437125*
X202591Y436375*
Y435625*
X202318Y434875*
X201773Y433750*
X199045Y430000*
X202864*
X232000Y436000D02*
X244000D01*
X238000Y430000D02*
Y442000D01*
X242745Y445300D02*
X241000Y439000D01*
X242745Y445300D02*
X244491Y439000D01*
X241655Y441100D02*
X243836D01*
X267636Y437875D02*
Y430000D01*
Y437875D02*
X271455Y430000D01*
Y437875D02*
Y430000D01*
X275545Y437875D02*
X275000Y437500D01*
X274455Y436750*
X274182Y436000*
X273909Y434875*
Y433000*
X274182Y431875*
X274455Y431125*
X275000Y430375*
X275545Y430000*
X276636*
X277182Y430375*
X277727Y431125*
X278000Y431875*
X278273Y433000*
Y434875*
X278000Y436000*
X277727Y436750*
X277182Y437500*
X276636Y437875*
X275545*
X317818Y436750D02*
Y430000D01*
X315364Y433375D02*
X320273D01*
X327636Y439375D02*
X322727Y427375D01*
X330091Y433375D02*
X335000D01*
X339091Y437875D02*
X338273Y437500D01*
X337727Y436375*
X337455Y434500*
Y433375*
X337727Y431500*
X338273Y430375*
X339091Y430000*
X339636*
X340455Y430375*
X341000Y431500*
X341273Y433375*
Y434500*
X341000Y436375*
X340455Y437500*
X339636Y437875*
X339091*
X344000Y430750D02*
X343727Y430375D01*
X344000Y430000*
X344273Y430375*
X344000Y430750*
X348364Y437875D02*
X347545Y437500D01*
X347000Y436375*
X346727Y434500*
Y433375*
X347000Y431500*
X347545Y430375*
X348364Y430000*
X348909*
X349727Y430375*
X350273Y431500*
X350545Y433375*
Y434500*
X350273Y436375*
X349727Y437500*
X348909Y437875*
X348364*
X106000Y412375D02*
X106545Y412750D01*
X107364Y413875*
Y406000*
X113636Y413875D02*
X110909Y406000D01*
X109818Y413875D02*
X113636D01*
X116364Y406750D02*
X116091Y406375D01*
X116364Y406000*
X116636Y406375*
X116364Y406750*
X122909Y413875D02*
X120182Y406000D01*
X119091Y413875D02*
X122909D01*
X125636Y412000D02*
Y412375D01*
X125909Y413125*
X126182Y413500*
X126727Y413875*
X127818*
X128364Y413500*
X128636Y413125*
X128909Y412375*
Y411625*
X128636Y410875*
X128091Y409750*
X125364Y406000*
X129182*
X137909Y411250D02*
X140909Y406000D01*
Y411250D02*
X137909Y406000D01*
X152909Y412750D02*
X152636Y413500D01*
X151818Y413875*
X151273*
X150455Y413500*
X149909Y412375*
X149636Y410500*
Y408625*
X149909Y407125*
X150455Y406375*
X151273Y406000*
X151545*
X152364Y406375*
X152909Y407125*
X153182Y408250*
Y408625*
X152909Y409750*
X152364Y410500*
X151545Y410875*
X151273*
X150455Y410500*
X149909Y409750*
X149636Y408625*
X155636Y412375D02*
X156182Y412750D01*
X157000Y413875*
Y406000*
X159727Y406750D02*
X159455Y406375D01*
X159727Y406000*
X160000Y406375*
X159727Y406750*
X164091Y413875D02*
X163273Y413500D01*
X162727Y412375*
X162455Y410500*
Y409375*
X162727Y407500*
X163273Y406375*
X164091Y406000*
X164636*
X165455Y406375*
X166000Y407500*
X166273Y409375*
Y410500*
X166000Y412375*
X165455Y413500*
X164636Y413875*
X164091*
X169000Y412000D02*
Y412375D01*
X169273Y413125*
X169545Y413500*
X170091Y413875*
X171182*
X171727Y413500*
X172000Y413125*
X172273Y412375*
Y411625*
X172000Y410875*
X171455Y409750*
X168727Y406000*
X172545*
X199318Y412000D02*
Y412375D01*
X199591Y413125*
X199864Y413500*
X200409Y413875*
X201500*
X202045Y413500*
X202318Y413125*
X202591Y412375*
Y411625*
X202318Y410875*
X201773Y409750*
X199045Y406000*
X202864*
X232000Y412000D02*
X244000D01*
X238000Y406000D02*
Y418000D01*
X241000Y421300D02*
Y415000D01*
Y421300D02*
X242964D01*
X243618Y421000*
X243836Y420700*
X244055Y420100*
Y419500*
X243836Y418900*
X243618Y418600*
X242964Y418300*
X241000D02*
X242964D01*
X243618Y418000*
X243836Y417700*
X244055Y417100*
Y416200*
X243836Y415600*
X243618Y415300*
X242964Y415000*
X241000*
X264636Y413875D02*
X266818Y410125D01*
Y406000*
X269000Y413875D02*
X266818Y410125D01*
X271455Y413875D02*
Y406000D01*
Y413875D02*
X275000D01*
X271455Y410125D02*
X273636D01*
X271455Y406000D02*
X275000D01*
X281273Y412750D02*
X280727Y413500D01*
X279909Y413875*
X278818*
X278000Y413500*
X277455Y412750*
Y412000*
X277727Y411250*
X278000Y410875*
X278545Y410500*
X280182Y409750*
X280727Y409375*
X281000Y409000*
X281273Y408250*
Y407125*
X280727Y406375*
X279909Y406000*
X278818*
X278000Y406375*
X277455Y407125*
X317818Y412750D02*
Y406000D01*
X315364Y409375D02*
X320273D01*
X327636Y415375D02*
X322727Y403375D01*
X330091Y409375D02*
X335000D01*
X339091Y413875D02*
X338273Y413500D01*
X337727Y412375*
X337455Y410500*
Y409375*
X337727Y407500*
X338273Y406375*
X339091Y406000*
X339636*
X340455Y406375*
X341000Y407500*
X341273Y409375*
Y410500*
X341000Y412375*
X340455Y413500*
X339636Y413875*
X339091*
X344000Y406750D02*
X343727Y406375D01*
X344000Y406000*
X344273Y406375*
X344000Y406750*
X348364Y413875D02*
X347545Y413500D01*
X347000Y412375*
X346727Y410500*
Y409375*
X347000Y407500*
X347545Y406375*
X348364Y406000*
X348909*
X349727Y406375*
X350273Y407500*
X350545Y409375*
Y410500*
X350273Y412375*
X349727Y413500*
X348909Y413875*
X348364*
G74*
X0Y0D02*
M02*
