M48
;FILE_FORMAT=2:4
INCH,LZ
FMAT,2
ICI,OFF
;TYPE=PLATED
T1C.01181
T2C.01772
T3C.02559
T5C.03543
T6C.037
T7C.03937
T8C.05906
;TYPE=NON_PLATED
T4C.02559
%
M72
G90
G93X0Y0
T1C.01181F095S3
X010906Y013523
X010929Y011259
X012203Y013566
X012525Y013573
X01265Y011283
X01488Y013426
X015253Y011306
X015401Y012236
X015817Y01225
X016556Y013366
X017001Y013649
X017138Y013358
X017715Y011353
X018193Y012963
X019425Y012895
X01975Y01289
X02045Y012894
X021871Y012885
X022349Y012894
X026788Y0122
X027926Y011236
X028603Y011388
X030002Y011927
X031713Y011251
X032409Y011388
X033788Y011866
X035488Y011251
X036188Y011362
X037615Y011671
X039323Y011267
X040009Y011376
X041514Y012146
X043543Y013348
X045546Y013544
X045825Y013334
X046104Y011293
X046771Y011244
X046838Y01276
X048257Y011266
X048551Y01325
X045854Y015948
X04584Y015372
X045835Y01495
X045817Y013752
X045548Y016156
X045544Y014241
X045541Y014734
X045541Y015737
X045526Y01516
X044497Y014484
X043907Y014483
X041153Y015747
X040853Y015658
X0402Y016195
X040196Y015895
X039558Y015219
X03939Y016211
X03933Y015023
X039093Y014809
X038782Y014806
X038476Y014813
X036943Y015337
X036456Y014837
X035147Y015333
X03475Y014847
X033051Y015347
X033044Y014857
X030136Y014847
X030129Y015343
X029275Y01534
X028417Y015851
X027663Y015947
X026192Y016139
X025542Y015657
X024235Y015676
X022037Y01419
X021946Y016068
X021828Y014403
X02173Y013906
X021608Y014176
X021385Y013957
X021165Y013746
X021006Y014728
X02083Y014407
X020707Y013987
X020538Y014232
X020406Y013962
X020332Y015934
X020095Y015517
X019868Y014096
X019767Y014475
X019598Y014221
X019347Y014414
X019172Y014173
X019047Y014453
X018938Y01473
X01423Y015795
X012506Y016218
X010894Y015589
X010883Y017829
X012314Y016467
X012633Y018601
X012656Y016474
X013314Y016896
X015379Y018663
X015385Y018165
X024048Y017885
X024611Y016441
X025164Y017608
X025476Y017227
X025492Y017652
X025816Y017681
X026087Y017496
X026425Y017483
X028027Y018448
X029653Y017931
X030075Y017269
X030301Y017058
X030516Y017275
X030718Y017057
X030933Y017281
X031134Y017054
X031355Y017279
X031771Y017291
X032506Y01737
X032817Y017356
X032975Y017642
X033026Y017979
X035418Y018232
X035738Y018239
X036075Y018239
X037162Y017196
X037537Y017106
X037842Y017101
X038162Y017129
X038462Y017121
X039069Y017117
X040112Y016608
X040451Y016353
X041118Y018024
X045537Y017727
X045542Y016712
X045547Y01815
X045549Y017148
X045817Y016935
X045819Y01836
X045822Y017941
X04583Y017357
X045851Y016365
X046818Y018616
X048595Y019963
X04853Y019653
X047329Y019569
X047277Y019863
X047057Y018858
X046514Y020853
X045142Y020177
X043672Y020483
X043557Y020846
X043511Y020172
X042581Y020536
X042318Y019239
X041281Y020869
X041257Y020468
X040929Y019381
X040725Y019158
X040717Y021114
X040391Y021126
X040367Y019503
X040048Y019452
X039634Y019206
X039546Y019534
X039491Y021102
X039239Y019447
X039061Y02117
X038939Y01931
X038696Y019486
X038455Y019313
X038157Y01941
X03786Y019318
X037522Y021133
X037279Y019182
X036953Y020478
X036213Y020481
X036187Y019457
X034965Y019617
X027997Y01902
X027982Y020361
X027971Y020658
X024788Y020158
X024781Y019534
X024773Y019846
X02194Y019439
X021868Y020683
X021835Y019852
X020337Y021228
X020196Y019482
X020185Y0201
X019273Y019353
X018987Y020726
X018575Y020264
X018135Y020314
X01804Y019974
X018035Y021044
X017825Y020505
X015769Y020399
X015424Y020399
X014992Y02116
X014831Y020277
X014331Y020387
X014321Y020809
X013463Y020387
X012756Y019541
X012387Y019727
X012278Y020487
X012136Y020833
X011419Y020859
X010941Y020396
X011011Y02193
X011278Y021454
X01293Y0228
X017249Y023045
X017832Y021798
X017834Y022258
X018002Y023271
X018022Y021375
X018053Y022022
X018122Y02238
X018329Y023275
X018704Y022432
X018939Y022113
X019017Y021368
X01904Y021735
X01949Y022928
X019653Y023411
X023788Y023264
X024766Y021927
X024773Y022224
X024773Y022522
X025401Y021847
X025714Y021829
X025996Y021947
X026828Y022873
X027007Y021257
X027288Y021855
X027695Y021567
X028013Y022388
X028026Y023209
X028026Y022844
X029641Y022783
X029883Y022382
X030002Y022008
X030477Y021995
X030686Y021706
X030894Y021996
X031103Y021783
X031352Y022
X031486Y021593
X03178Y022004
X03252Y022499
X032834Y021988
X033142Y021994
X033451Y022077
X033868Y022849
X033874Y022547
X034886Y023206
X03616Y022852
X036171Y021861
X036311Y023366
X036778Y022951
X037596Y022397
X037596Y023716
X039061Y023716
X039116Y022379
X041273Y021255
X042087Y023107
X042576Y023276
X043638Y021847
X043705Y023337
X044853Y022907
X045324Y023474
X048527Y023373
X048537Y022941
X048831Y023603
X048836Y023158
X049028Y022747
X049676Y02297
X047938Y023989
X045671Y025159
X045009Y026159
X043701Y024228
X042566Y023773
X042394Y026213
X042086Y026057
X041793Y026117
X041339Y026106
X041026Y026051
X04057Y026046
X04032Y025843
X040299Y026172
X039956Y025897
X039648Y025859
X03908Y024761
X039077Y026209
X038409Y025865
X037257Y024946
X037007Y025562
X036996Y024731
X036721Y024522
X036575Y025086
X036544Y025831
X036266Y025337
X036206Y023831
X029013Y026132
X028624Y025476
X028173Y025998
X028093Y02447
X027265Y025646
X027218Y024245
X027033Y023887
X027022Y025983
X026995Y025294
X024114Y025969
X024057Y025626
X023789Y024643
X023243Y026233
X023113Y024607
X02271Y023955
X022396Y025604
X020869Y024029
X020361Y024767
X020344Y023807
X019902Y026023
X019731Y02382
X018994Y024522
X018758Y024259
X018459Y024245
X017271Y026066
X016851Y025078
X016841Y024706
X016285Y025463
X015658Y026059
X014252Y025809
X014091Y024813
X013674Y025697
X013441Y025266
X012157Y024445
X011662Y025193
X011587Y024804
X011094Y02474
X010967Y027222
X011507Y026586
X011561Y026881
X012522Y028151
X012797Y027902
X013025Y027623
X013035Y026741
X015072Y028161
X015619Y028439
X015702Y027662
X015879Y026757
X016378Y027662
X016659Y027896
X017084Y028082
X017329Y027662
X017518Y026877
X017571Y028668
X018302Y02694
X020077Y026267
X020404Y027892
X020661Y026769
X020967Y026743
X021113Y028561
X022858Y027948
X022865Y027635
X025813Y027615
X027102Y028284
X027256Y026917
X028953Y026436
X029595Y028596
X029667Y026741
X030744Y026979
X030995Y02642
X031101Y028135
X031507Y026299
X031736Y026525
X031849Y028476
X032071Y026651
X035658Y028008
X035731Y026531
X035953Y028038
X03622Y027887
X036351Y028164
X036581Y026462
X037231Y02647
X037503Y026625
X039175Y028655
X039898Y028537
X039927Y027694
X040048Y026625
X040182Y028641
X040363Y028241
X040552Y028687
X040841Y028621
X041297Y028621
X042465Y026524
X042584Y02785
X044404Y028292
X044919Y026738
X044978Y028292
X045262Y026865
X045552Y026261
X045558Y027093
X045567Y02661
X046312Y028201
X046775Y026514
X047199Y026381
X048471Y027884
X048484Y027099
X048486Y027399
X048493Y028196
X043208Y029036
X041174Y03017
X040934Y028902
X040916Y030428
X040708Y030749
X040372Y029409
X039299Y02894
X03896Y028887
X037797Y028752
X035179Y028738
X034599Y028784
X028684Y028747
X023747Y02913
X023734Y028785
X023408Y028781
X021421Y029181
X021402Y029504
X021029Y030339
X01984Y028902
X018812Y028758
X018386Y02988
X017576Y028986
X017491Y029741
X015023Y029954
X015006Y030929
X015006Y030676
X014998Y029244
X014756Y029698
X013933Y030313
X012741Y030533
X012199Y028976
X011508Y028871
X011434Y029305
X011357Y030773
X010909Y030938
X010908Y03373
X011104Y031434
X012261Y032034
X012735Y032364
X013859Y031281
X015161Y033451
X016477Y032947
X01648Y033261
X01648Y033569
X017612Y031353
X018218Y031351
X018743Y03154
X018748Y031841
X019427Y032771
X020387Y032281
X021875Y031997
X022001Y032587
X022013Y032272
X022196Y03201
X022303Y032503
X023637Y032559
X025518Y032268
X025986Y033109
X026045Y031722
X026373Y032327
X026882Y031732
X029806Y032317
X031465Y032185
X032491Y032045
X032592Y031394
X03305Y032055
X033576Y032293
X035474Y032308
X03635Y032157
X037108Y032014
X037193Y03233
X037415Y032017
X037746Y032011
X040024Y033698
X040797Y031768
X045934Y033644
X047191Y033405
X048893Y033196
X049268Y035197
X049132Y033856
X048934Y034915
X04645Y035604
X045091Y03434
X044642Y034351
X043518Y035029
X042683Y035171
X041514Y03378
X039408Y034872
X038923Y035965
X038516Y033788
X038477Y035324
X022943Y03518
X022795Y034637
X022256Y033942
X019832Y035444
X019128Y03375
X018502Y033759
X018199Y034641
X01778Y034653
X016206Y0349
X015146Y034205
X015097Y033906
X014714Y034239
X014209Y034934
X012526Y037047
X018272Y037012
X020232Y036884
X021093Y036921
X022907Y036957
X038448Y03705
X038923Y036299
X03893Y036626
X041181Y036963
X04423Y037021
X049752Y037078
T2C.01772F095S3
X011627Y036658G85X011194Y036658
X011627Y034433G85X011194Y034433
T3C.02559F197S55
X02586Y016638
X02656Y016638
X02726Y016638
X02796Y016638
X02866Y016638
X02936Y016638
X03006Y016638
X03076Y016638
X03146Y016638
X03216Y016638
X03286Y016638
X03356Y016638
X03426Y016638
X03496Y016638
X03566Y016638
X03636Y016638
X03706Y016638
X03776Y016638
X03846Y016638
X03916Y016638
X03916Y029587
X03846Y029587
X03776Y029587
X03706Y029587
X03636Y029587
X03566Y029587
X03496Y029587
X03426Y029587
X03356Y029587
X03286Y029587
X03216Y029587
X03146Y029587
X03076Y029587
X03006Y029587
X02936Y029587
X02866Y029587
X02796Y029587
X02726Y029587
X02656Y029587
X02586Y029587
T4C.02559F197S55
X012257Y034758
X012257Y036333
T5C.03543F197S55
X011593Y012031
X012593Y012031
X013593Y012031
T6C.037F197S55
X040893Y011446
X040893Y012446
X041893Y011446
X041893Y012446
X042893Y011446
X042893Y012446
X043893Y011446
X043893Y012446
X044893Y011446
X044893Y012446
X045893Y029846
X045893Y030846
X044893Y029846
X044893Y030846
X043893Y029846
X043893Y030846
X042893Y029846
X042893Y030846
X041893Y029846
X041893Y030846
X041893Y031846
X041893Y032846
X042893Y031846
X042893Y032846
X043893Y031846
X043893Y032846
X044893Y031846
X044893Y032846
X045893Y031846
X045893Y032846
T7C.03937F197S55
X020988Y02539
X034493Y031646
T8C.05906F107S55
X014593Y022846
X031193Y019446
X031193Y024146
M30
