*
*
G04 PADS VX.2 Build Number: 5060570 generated Gerber (RS-274-X) file*
G04 PC Version=2.1*
*
%IN "CaptureBoard.pcb"*%
*
%MOIN*%
*
%FSLAX35Y35*%
*
*
*
*
G04 PC Standard Apertures*
*
*
G04 Thermal Relief Aperture macro.*
%AMTER*
1,1,$1,0,0*
1,0,$1-$2,0,0*
21,0,$3,$4,0,0,45*
21,0,$3,$4,0,0,135*
%
*
*
G04 Annular Aperture macro.*
%AMANN*
1,1,$1,0,0*
1,0,$2,0,0*
%
*
*
G04 Odd Aperture macro.*
%AMODD*
1,1,$1,0,0*
1,0,$1-0.005,0,0*
%
*
*
G04 PC Custom Aperture Macros*
*
*
*
*
*
*
G04 PC Aperture Table*
*
%ADD010C,0.001*%
%ADD011R,0.017X0.01968*%
%ADD012R,0.01181X0.01968*%
%ADD013R,0.0315X0.03543*%
%ADD029R,0.04488X0.05*%
%ADD058C,0.01*%
%ADD076C,0.0394*%
%ADD077R,0.03543X0.05906*%
%ADD078R,0.05906X0.03543*%
%ADD079R,0.05315X0.01575*%
%ADD080R,0.0748X0.0748*%
%ADD126C,0.005*%
*
*
*
*
G04 PC Circuitry*
G04 Layer Name CaptureBoard.pcb - circuitry*
%LPD*%
*
*
G04 PC Custom Flashes*
G04 Layer Name CaptureBoard.pcb - flashes*
%LPD*%
*
*
G04 PC Circuitry*
G04 Layer Name CaptureBoard.pcb - circuitry*
%LPD*%
*
G54D10*
G54D11*
G01X457877Y120425D03*
X463979D03*
Y116487D03*
X457877D03*
G54D12*
X459944Y120424D03*
X461912D03*
Y116487D03*
X459944D03*
G54D13*
X316928Y117456D03*
X323818D03*
X278928D03*
X285818D03*
X392928D03*
X399818D03*
X354928D03*
X361818D03*
G54D29*
X311668D03*
X304188D03*
X273668D03*
X266188D03*
X387668D03*
X380188D03*
X349668D03*
X342188D03*
G54D58*
X499473Y373359D02*
Y109579D01*
X261048*
Y126510*
X182308*
Y109579*
X105772*
Y373359*
X231756*
Y333989*
X381363*
Y373359*
X499473*
X162928Y197456D02*
Y144456D01*
X183928*
Y197456*
X162928*
G54D76*
X398798Y202326D03*
X393798Y264326D03*
X387798Y259326D03*
Y264326D03*
X389798Y197326D03*
X377798D03*
X407798Y257326D03*
X422798D03*
X417798D03*
X412798D03*
X428798Y208326D03*
X432798Y205326D03*
X428798Y202326D03*
X381798D03*
X383798Y197326D03*
X386798Y202326D03*
X420798Y264326D03*
X415798D03*
X410798D03*
X405798D03*
G54D77*
X146129Y129499D03*
X131562D03*
X146129Y151547D03*
X131562D03*
X147129Y217499D03*
X132562D03*
X147129Y239547D03*
X132562D03*
X147129Y259499D03*
X132562D03*
X147129Y281547D03*
X132562D03*
X128129Y238499D03*
X113562D03*
X128129Y260547D03*
X113562D03*
X166129Y238499D03*
X151562D03*
X166129Y260547D03*
X151562D03*
X489129Y246499D03*
X474562D03*
X489129Y268547D03*
X474562D03*
X489129Y304499D03*
X474562D03*
X489129Y326547D03*
X474562D03*
X489129Y187499D03*
X474562D03*
X489129Y209547D03*
X474562D03*
X489129Y129499D03*
X474562D03*
X489129Y151547D03*
X474562D03*
X146129Y304499D03*
X131562D03*
X146129Y326547D03*
X131562D03*
X146129Y162499D03*
X131562D03*
X146129Y184547D03*
X131562D03*
G54D78*
X455972Y346255D03*
Y360822D03*
X478019Y346255D03*
Y360822D03*
X401972Y346255D03*
Y360822D03*
X424019Y346255D03*
Y360822D03*
G54D79*
X124928Y350338D03*
Y352897D03*
Y355456D03*
Y358015D03*
Y360574D03*
G54D80*
X114101Y350732D03*
Y360180D03*
G54D126*
X117778Y340206D02*
Y348406D01*
X110378*
Y340206*
X117778*
X117878Y362506D02*
Y370706D01*
X110478*
Y362506*
X117878*
X110378Y348305D02*
X117778D01*
X110378Y347855D02*
X117778D01*
X110378Y347405D02*
X117778D01*
X110378Y346955D02*
X117778D01*
X110378Y346505D02*
X117778D01*
X110378Y346055D02*
X117778D01*
X110378Y345605D02*
X117778D01*
X110378Y345155D02*
X117778D01*
X110378Y344705D02*
X117778D01*
X110378Y344255D02*
X117778D01*
X110378Y343805D02*
X117778D01*
X110378Y343355D02*
X117778D01*
X110378Y342905D02*
X117778D01*
X110378Y342455D02*
X117778D01*
X110378Y342005D02*
X117778D01*
X110378Y341555D02*
X117778D01*
X110378Y341105D02*
X117778D01*
X110378Y340655D02*
X117778D01*
X110478Y370605D02*
X117878D01*
X110478Y370155D02*
X117878D01*
X110478Y369705D02*
X117878D01*
X110478Y369255D02*
X117878D01*
X110478Y368805D02*
X117878D01*
X110478Y368355D02*
X117878D01*
X110478Y367905D02*
X117878D01*
X110478Y367455D02*
X117878D01*
X110478Y367005D02*
X117878D01*
X110478Y366555D02*
X117878D01*
X110478Y366105D02*
X117878D01*
X110478Y365655D02*
X117878D01*
X110478Y365205D02*
X117878D01*
X110478Y364755D02*
X117878D01*
X110478Y364305D02*
X117878D01*
X110478Y363855D02*
X117878D01*
X110478Y363405D02*
X117878D01*
X110478Y362955D02*
X117878D01*
X0Y0D02*
M02*
