*
*
G04 PADS VX.2 Build Number: 5060570 generated Gerber (RS-274-X) file*
G04 PC Version=2.1*
*
%IN "CaptureBoard.pcb"*%
*
%MOIN*%
*
%FSLAX35Y35*%
*
*
*
*
G04 PC Standard Apertures*
*
*
G04 Thermal Relief Aperture macro.*
%AMTER*
1,1,$1,0,0*
1,0,$1-$2,0,0*
21,0,$3,$4,0,0,45*
21,0,$3,$4,0,0,135*
%
*
*
G04 Annular Aperture macro.*
%AMANN*
1,1,$1,0,0*
1,0,$2,0,0*
%
*
*
G04 Odd Aperture macro.*
%AMODD*
1,1,$1,0,0*
1,0,$1-0.005,0,0*
%
*
*
G04 PC Custom Aperture Macros*
*
*
*
*
*
*
G04 PC Aperture Table*
*
%ADD010C,0.001*%
%ADD058C,0.01*%
%ADD082R,0.027X0.02968*%
%ADD083R,0.02181X0.02968*%
%ADD084R,0.0415X0.04543*%
%ADD093R,0.05488X0.06*%
%ADD105R,0.07X0.07*%
%ADD106C,0.07*%
%ADD112R,0.08874X0.09661*%
%ADD114R,0.06906X0.06906*%
%ADD121R,0.05724X0.05724*%
%ADD130C,0.0494*%
%ADD131R,0.04543X0.06906*%
%ADD132C,0.08874*%
%ADD133R,0.06906X0.04543*%
%ADD134C,0.10843*%
%ADD135R,0.06315X0.02575*%
%ADD136R,0.0848X0.0848*%
%ADD137C,0.03559*%
*
*
*
*
G04 PC Circuitry*
G04 Layer Name CaptureBoard.pcb - circuitry*
%LPD*%
*
*
G04 PC Custom Flashes*
G04 Layer Name CaptureBoard.pcb - flashes*
%LPD*%
*
*
G04 PC Circuitry*
G04 Layer Name CaptureBoard.pcb - circuitry*
%LPD*%
*
G54D10*
G54D58*
G01X499473Y373359D02*
Y109579D01*
X261048*
Y126510*
X182308*
Y109579*
X105772*
Y373359*
X231756*
Y333989*
X381363*
Y373359*
X499473*
X162928Y197456D02*
Y144456D01*
X183928*
Y197456*
X162928*
G54D82*
X457877Y120425D03*
X463979D03*
Y116487D03*
X457877D03*
G54D83*
X459944Y120424D03*
X461912D03*
Y116487D03*
X459944D03*
G54D84*
X316928Y117456D03*
X323818D03*
X278928D03*
X285818D03*
X392928D03*
X399818D03*
X354928D03*
X361818D03*
G54D93*
X311668D03*
X304188D03*
X273668D03*
X266188D03*
X387668D03*
X380188D03*
X349668D03*
X342188D03*
G54D105*
X408928Y114456D03*
X418928Y298456D03*
Y318456D03*
G54D106*
X408928Y124456D03*
X418928Y114456D03*
Y124456D03*
X428928Y114456D03*
Y124456D03*
X438928Y114456D03*
Y124456D03*
X448928Y114456D03*
Y124456D03*
X418928Y308456D03*
X428928Y298456D03*
Y308456D03*
X438928Y298456D03*
Y308456D03*
X448928Y298456D03*
Y308456D03*
X458928Y298456D03*
Y308456D03*
X418928Y328456D03*
X428928Y318456D03*
Y328456D03*
X438928Y318456D03*
Y328456D03*
X448928Y318456D03*
Y328456D03*
X458928Y318456D03*
Y328456D03*
G54D112*
X114101Y366578D03*
Y344334D03*
G54D114*
X115928Y120314D03*
X125928D03*
X135928D03*
G54D121*
X258601Y166381D03*
X265601D03*
X272601D03*
X279601D03*
X286601D03*
X293601D03*
X300601D03*
X307601D03*
X314601D03*
X321601D03*
X328601D03*
X335601D03*
X342601D03*
X349601D03*
X356601D03*
X363601D03*
X370601D03*
X377601D03*
X384601D03*
X391601D03*
Y295869D03*
X384601D03*
X377601D03*
X370601D03*
X363601D03*
X356601D03*
X349601D03*
X342601D03*
X335601D03*
X328601D03*
X321601D03*
X314601D03*
X307601D03*
X300601D03*
X293601D03*
X286601D03*
X279601D03*
X272601D03*
X265601D03*
X258601D03*
G54D130*
X398798Y202326D03*
X393798Y264326D03*
X387798Y259326D03*
Y264326D03*
X389798Y197326D03*
X377798D03*
X407798Y257326D03*
X422798D03*
X417798D03*
X412798D03*
X428798Y208326D03*
X432798Y205326D03*
X428798Y202326D03*
X381798D03*
X383798Y197326D03*
X386798Y202326D03*
X420798Y264326D03*
X415798D03*
X410798D03*
X405798D03*
G54D131*
X146129Y129499D03*
X131562D03*
X146129Y151547D03*
X131562D03*
X147129Y217499D03*
X132562D03*
X147129Y239547D03*
X132562D03*
X147129Y259499D03*
X132562D03*
X147129Y281547D03*
X132562D03*
X128129Y238499D03*
X113562D03*
X128129Y260547D03*
X113562D03*
X166129Y238499D03*
X151562D03*
X166129Y260547D03*
X151562D03*
X489129Y246499D03*
X474562D03*
X489129Y268547D03*
X474562D03*
X489129Y304499D03*
X474562D03*
X489129Y326547D03*
X474562D03*
X489129Y187499D03*
X474562D03*
X489129Y209547D03*
X474562D03*
X489129Y129499D03*
X474562D03*
X489129Y151547D03*
X474562D03*
X146129Y304499D03*
X131562D03*
X146129Y326547D03*
X131562D03*
X146129Y162499D03*
X131562D03*
X146129Y184547D03*
X131562D03*
G54D132*
X311928Y194456D03*
X344928Y316456D03*
X209883Y253901D03*
X311928Y241456D03*
G54D133*
X455972Y346255D03*
Y360822D03*
X478019Y346255D03*
Y360822D03*
X401972Y346255D03*
Y360822D03*
X424019Y346255D03*
Y360822D03*
G54D134*
X145928Y228456D03*
G54D135*
X124928Y350338D03*
Y352897D03*
Y355456D03*
Y358015D03*
Y360574D03*
G54D136*
X114101Y350732D03*
Y360180D03*
G54D137*
X122566Y347582D03*
Y363330D03*
X0Y0D02*
M02*
