*
*
G04 PADS VX.2 Build Number: 5060570 generated Gerber (RS-274-X) file*
G04 PC Version=2.1*
*
%IN "CaptureBoard.pcb"*%
*
%MOIN*%
*
%FSLAX35Y35*%
*
*
*
*
G04 PC Standard Apertures*
*
*
G04 Thermal Relief Aperture macro.*
%AMTER*
1,1,$1,0,0*
1,0,$1-$2,0,0*
21,0,$3,$4,0,0,45*
21,0,$3,$4,0,0,135*
%
*
*
G04 Annular Aperture macro.*
%AMANN*
1,1,$1,0,0*
1,0,$2,0,0*
%
*
*
G04 Odd Aperture macro.*
%AMODD*
1,1,$1,0,0*
1,0,$1-0.005,0,0*
%
*
*
G04 PC Custom Aperture Macros*
*
*
*
*
*
*
G04 PC Aperture Table*
*
%ADD010C,0.001*%
%ADD058C,0.01*%
%ADD082R,0.027X0.02968*%
%ADD083R,0.02181X0.02968*%
%ADD084R,0.0415X0.04543*%
%ADD085R,0.04543X0.0415*%
%ADD086R,0.02968X0.02968*%
%ADD087R,0.06X0.05488*%
%ADD088R,0.02968X0.027*%
%ADD089R,0.02968X0.02181*%
%ADD090R,0.20685X0.20685*%
%ADD091R,0.10449X0.10449*%
%ADD092O,0.075X0.035*%
%ADD093R,0.05488X0.06*%
%ADD094R,0.13X0.105*%
%ADD095R,0.06905X0.17929*%
%ADD096R,0.04583X0.05803*%
%ADD097R,0.046X0.046*%
%ADD098R,0.046X0.06*%
%ADD099O,0.08874X0.02181*%
%ADD100R,0.12811X0.08874*%
%ADD101R,0.05528X0.06512*%
%ADD102O,0.07X0.02*%
%ADD103O,0.02X0.07*%
%ADD104R,0.105X0.13*%
%ADD105R,0.07X0.07*%
%ADD106C,0.07*%
%ADD107R,0.17929X0.06905*%
%ADD108R,0.06X0.046*%
%ADD109R,0.17142X0.17142*%
%ADD110R,0.06X0.03*%
%ADD111R,0.05803X0.04583*%
%ADD112R,0.08874X0.09661*%
%ADD113C,0.03165*%
%ADD114R,0.06906X0.06906*%
%ADD115R,0.084X0.01906*%
%ADD116R,0.01906X0.084*%
%ADD117R,0.034X0.084*%
%ADD118R,0.02181X0.06512*%
%ADD119R,0.06512X0.02181*%
%ADD120R,0.084X0.034*%
%ADD121R,0.05724X0.05724*%
%ADD122R,0.02181X0.05921*%
%ADD123R,0.01787X0.05724*%
%ADD124R,0.05724X0.01787*%
%ADD125R,0.06118X0.02654*%
*
*
*
*
G04 PC Circuitry*
G04 Layer Name CaptureBoard.pcb - circuitry*
%LPD*%
*
*
G04 PC Custom Flashes*
G04 Layer Name CaptureBoard.pcb - flashes*
%LPD*%
*
*
G04 PC Circuitry*
G04 Layer Name CaptureBoard.pcb - circuitry*
%LPD*%
*
G54D10*
G54D58*
G01X499473Y373359D02*
Y109579D01*
X261048*
Y126510*
X182308*
Y109579*
X105772*
Y373359*
X231756*
Y333989*
X381363*
Y373359*
X499473*
X162928Y197456D02*
Y144456D01*
X183928*
Y197456*
X162928*
G54D82*
X395750Y283663D03*
X389648D03*
Y279725D03*
X395750D03*
X412623Y283406D03*
X406521D03*
Y279468D03*
X412623D03*
X421780Y285309D03*
X415678D03*
Y281371D03*
X421780D03*
X384537Y174474D03*
X390639D03*
Y178412D03*
X384537D03*
X373877Y174487D03*
X379979D03*
Y178425D03*
X373877D03*
G54D83*
X393684Y283662D03*
X391715D03*
Y279725D03*
X393684D03*
X410557Y283405D03*
X408588D03*
Y279468D03*
X410557D03*
X419713Y285309D03*
X417745D03*
Y281372D03*
X419713D03*
X386604Y174475D03*
X388572D03*
Y178412D03*
X386604D03*
X375944Y174487D03*
X377912D03*
Y178424D03*
X375944D03*
G54D84*
X405928Y290456D03*
X399038D03*
X212928Y238456D03*
X219818D03*
X211928Y232456D03*
X218818D03*
X430928Y132456D03*
X424038D03*
X117928Y208456D03*
X124818D03*
X448928Y255456D03*
X455818D03*
X366928Y321456D03*
X360038D03*
X235928Y257456D03*
X229038D03*
X228928Y262456D03*
X235818D03*
X278928Y302456D03*
X272038D03*
X117928Y220456D03*
X124818D03*
X227928Y249456D03*
X234818D03*
X474928Y351456D03*
X481818D03*
X240928Y263456D03*
X247818D03*
X240928Y150456D03*
X247818D03*
X457928Y191456D03*
X464818D03*
X333928Y148456D03*
X327038D03*
X333928Y154456D03*
X327038D03*
X321928Y148456D03*
X315038D03*
X321928Y154456D03*
X315038D03*
X314928Y160456D03*
X321818D03*
X278928Y249456D03*
X272038D03*
X278928Y263456D03*
X272038D03*
X335928Y304456D03*
X329038D03*
X466928Y142456D03*
X460038D03*
X377928Y306456D03*
X384818D03*
X227928Y235456D03*
X234818D03*
X167928Y223456D03*
X174818D03*
X167928Y217456D03*
X174818D03*
X142928Y256456D03*
X149818D03*
X340928Y280456D03*
X334038D03*
X340928Y286456D03*
X334038D03*
X340928Y274456D03*
X334038D03*
X454928Y203456D03*
X461818D03*
X261928Y194456D03*
X255038D03*
X275928D03*
X269038D03*
X240928Y249456D03*
X247818D03*
X247928Y276456D03*
X241038D03*
X240928Y235456D03*
X247818D03*
X124928Y244456D03*
X118038D03*
X167928Y211456D03*
X174818D03*
X167928Y205456D03*
X174818D03*
X109928Y333456D03*
X116818D03*
X143928Y134456D03*
X137038D03*
X136928Y128456D03*
X143818D03*
X422928Y351456D03*
X416038D03*
X410928D03*
X404038D03*
X462928D03*
X469818D03*
X194928D03*
X201818D03*
X213928D03*
X207038D03*
X206928Y234456D03*
X200038D03*
X199928Y210456D03*
X206818D03*
X211928D03*
X218818D03*
G54D85*
X385272Y287214D03*
Y280324D03*
X119928Y266456D03*
Y273346D03*
X124928Y266456D03*
Y273346D03*
X370928Y287456D03*
Y280566D03*
X398928Y173456D03*
Y180346D03*
X263928Y219456D03*
Y212566D03*
X285928Y309456D03*
Y302566D03*
X131928Y249456D03*
Y256346D03*
X360928Y308456D03*
Y315346D03*
X209928Y299456D03*
Y292566D03*
X297928Y320456D03*
Y313566D03*
X449928Y279456D03*
Y286346D03*
X429928Y286456D03*
Y279566D03*
X443928Y279456D03*
Y286346D03*
X130928Y207456D03*
Y200566D03*
X272928Y153456D03*
Y160346D03*
X420928Y176456D03*
Y169566D03*
X438928Y159456D03*
Y166346D03*
X444928Y159456D03*
Y166346D03*
X271928Y228456D03*
Y235346D03*
X153928Y207456D03*
Y200566D03*
X159928Y207456D03*
Y200566D03*
X166928Y244456D03*
Y237566D03*
X112928Y251456D03*
Y244566D03*
X260928Y187456D03*
Y180566D03*
X269928Y187456D03*
Y180566D03*
X279928Y219456D03*
Y212566D03*
X215928Y327456D03*
Y334346D03*
X204928Y312456D03*
Y319346D03*
X136928Y249456D03*
Y256346D03*
X121928Y332456D03*
Y339346D03*
X158044Y358152D03*
Y365042D03*
X163928Y312456D03*
Y319346D03*
X118928Y286456D03*
Y293346D03*
X124928Y286456D03*
Y293346D03*
X118928Y320456D03*
Y327346D03*
G54D86*
X453297Y236356D03*
X449360D03*
X453797Y233656D03*
X449860D03*
X258728Y323287D03*
Y327224D03*
X452497Y230856D03*
X448560D03*
X349750Y197026D03*
Y200963D03*
X191960Y210456D03*
X195897D03*
X282897Y287456D03*
X278960D03*
X236897Y328456D03*
X232960D03*
X157897Y297456D03*
X153960D03*
X344960Y286456D03*
X348897D03*
X394928Y173487D03*
Y177424D03*
X147928Y128424D03*
Y124487D03*
X454897Y250456D03*
X450960D03*
X452897Y260456D03*
X448960D03*
X457897Y345456D03*
X453960D03*
X123928Y323487D03*
Y327424D03*
X300960Y266456D03*
X304897D03*
X247928Y161424D03*
Y157487D03*
X378960Y161456D03*
X382897D03*
X402928Y176487D03*
Y180424D03*
X405928Y176487D03*
Y180424D03*
X425928Y172487D03*
Y176424D03*
X324897Y170456D03*
X320960D03*
X326928Y176487D03*
Y180424D03*
X402268Y282016D03*
Y278079D03*
X398975Y282171D03*
Y278234D03*
X380848Y285581D03*
Y281644D03*
X292043Y219351D03*
X295980D03*
X296278Y212947D03*
X292341D03*
X325108Y219950D03*
X321171D03*
X296180Y216093D03*
X292243D03*
X327817Y222834D03*
Y226771D03*
X454897Y198456D03*
X450960D03*
X394214Y181900D03*
X390277D03*
X350003Y233351D03*
Y237288D03*
X424928Y285424D03*
Y281487D03*
X341960Y228456D03*
X345897D03*
X452897Y264456D03*
X448960D03*
X341960Y225456D03*
X345897D03*
X460960Y196456D03*
X464897D03*
X284960Y246456D03*
X288897D03*
X284960Y231456D03*
X288897D03*
X284960Y199456D03*
X288897D03*
X284960Y184456D03*
X288897D03*
Y187456D03*
X284960D03*
X288897Y190456D03*
X284960D03*
X288897Y196456D03*
X284960D03*
X288897Y234456D03*
X284960D03*
X288897Y237456D03*
X284960D03*
X288897Y243456D03*
X284960D03*
X296897Y261456D03*
X292960D03*
X296897Y264456D03*
X292960D03*
X279928Y240424D03*
Y236487D03*
X280928Y194487D03*
Y198424D03*
X269960Y215456D03*
X273897D03*
X253960D03*
X257897D03*
X267928Y156487D03*
Y160424D03*
X248960Y256456D03*
X252897D03*
X248960Y282456D03*
X252897D03*
X248960Y270456D03*
X252897D03*
X248960Y242456D03*
X252897D03*
X380960Y301456D03*
X384897D03*
X202928Y303487D03*
Y307424D03*
X206928Y303487D03*
Y307424D03*
X220928Y334424D03*
Y330487D03*
X238928Y313487D03*
Y317424D03*
X146960Y345456D03*
X150897D03*
X119928Y359424D03*
Y355487D03*
X121897Y194456D03*
X117960D03*
X432897Y347456D03*
X428960D03*
X397897Y342456D03*
X393960D03*
X397897Y345456D03*
X393960D03*
X487960D03*
X491897D03*
X457897Y340456D03*
X453960D03*
X224897Y346456D03*
X220960D03*
X184960D03*
X188897D03*
X184960Y341456D03*
X188897D03*
X124928Y308487D03*
Y312424D03*
Y298487D03*
Y302424D03*
X187897Y210456D03*
X183960D03*
X190897Y196456D03*
X186960D03*
X193960D03*
X197897D03*
X187928Y291487D03*
Y295424D03*
X213897Y288456D03*
X209960D03*
G54D87*
X118928Y250716D03*
Y258196D03*
X191928Y241196D03*
Y233716D03*
X233928Y313716D03*
Y321196D03*
X436928Y287196D03*
Y279716D03*
X160928Y242716D03*
Y250196D03*
X138928Y207196D03*
Y199716D03*
X226928Y336196D03*
Y328716D03*
X243928Y313716D03*
Y321196D03*
X226928Y313716D03*
Y321196D03*
X110928Y326196D03*
Y318716D03*
X163928Y272196D03*
Y264716D03*
X170928D03*
Y272196D03*
X147928Y207196D03*
Y199716D03*
X130928Y264716D03*
Y272196D03*
X156928Y264716D03*
Y272196D03*
X157928Y353196D03*
Y345716D03*
X153928Y126716D03*
Y134196D03*
X163928Y298716D03*
Y306196D03*
X160928Y126716D03*
Y134196D03*
G54D88*
X461959Y137507D03*
Y131405D03*
X465897D03*
Y137507D03*
X461959Y183507D03*
Y177405D03*
X465897D03*
Y183507D03*
X461959Y173507D03*
Y167405D03*
X465897D03*
Y173507D03*
X461959Y163507D03*
Y157405D03*
X465897D03*
Y163507D03*
X461959Y153507D03*
Y147405D03*
X465897D03*
Y153507D03*
X459705Y240234D03*
Y246336D03*
X455767D03*
Y240234D03*
X341959Y259507D03*
Y253405D03*
X345897D03*
Y259507D03*
X341959Y249507D03*
Y243405D03*
X345897D03*
Y249507D03*
X341959Y237507D03*
Y231405D03*
X345897D03*
Y237507D03*
X341959Y222507D03*
Y216405D03*
X345897D03*
Y222507D03*
X341959Y212507D03*
Y206405D03*
X345897D03*
Y212507D03*
X341959Y179507D03*
Y173405D03*
X345897D03*
Y179507D03*
X341959Y203507D03*
Y197405D03*
X345897D03*
Y203507D03*
X288959Y284507D03*
Y278405D03*
X292897D03*
Y284507D03*
X459897Y208405D03*
Y214507D03*
X455959D03*
Y208405D03*
X459897Y218405D03*
Y224507D03*
X455959D03*
Y218405D03*
X461897Y228405D03*
Y234507D03*
X457959D03*
Y228405D03*
G54D89*
X461960Y135440D03*
Y133472D03*
X465897D03*
Y135440D03*
X461960Y181440D03*
Y179472D03*
X465897D03*
Y181440D03*
X461960Y171440D03*
Y169472D03*
X465897D03*
Y171440D03*
X461960Y161440D03*
Y159472D03*
X465897D03*
Y161440D03*
X461960Y151440D03*
Y149472D03*
X465897D03*
Y151440D03*
X459704Y242300D03*
Y244269D03*
X455767D03*
Y242300D03*
X341960Y257440D03*
Y255472D03*
X345897D03*
Y257440D03*
X341960Y247440D03*
Y245472D03*
X345897D03*
Y247440D03*
X341960Y235440D03*
Y233472D03*
X345897D03*
Y235440D03*
X341960Y220440D03*
Y218472D03*
X345897D03*
Y220440D03*
X341960Y210440D03*
Y208472D03*
X345897D03*
Y210440D03*
X341960Y177440D03*
Y175472D03*
X345897D03*
Y177440D03*
X341960Y201440D03*
Y199472D03*
X345897D03*
Y201440D03*
X288960Y282440D03*
Y280472D03*
X292897D03*
Y282440D03*
X459897Y210472D03*
Y212440D03*
X455960D03*
Y210472D03*
X459897Y220472D03*
Y222440D03*
X455960D03*
Y220472D03*
X461897Y230472D03*
Y232440D03*
X457960D03*
Y230472D03*
G54D90*
X311928Y194456D03*
Y241456D03*
G54D91*
X344928Y316456D03*
X209883Y253901D03*
G54D92*
X319678Y311956D03*
Y316956D03*
Y321956D03*
Y326956D03*
X304178D03*
Y321956D03*
Y316956D03*
Y311956D03*
X276178Y326956D03*
Y321956D03*
Y316956D03*
Y311956D03*
X291678D03*
Y316956D03*
Y321956D03*
Y326956D03*
G54D93*
X190668Y228456D03*
X183188D03*
X134188Y173456D03*
X141668D03*
X251188Y288456D03*
X258668D03*
X174668Y230456D03*
X167188D03*
X177188Y264456D03*
X184668D03*
X124668Y214456D03*
X117188D03*
X258188Y256456D03*
X265668D03*
X258188Y282456D03*
X265668D03*
X258188Y269456D03*
X265668D03*
X258188Y242456D03*
X265668D03*
X177188Y257456D03*
X184668D03*
X166188Y346456D03*
X173668D03*
X172188Y299456D03*
X179668D03*
G54D94*
X455178Y362456D03*
X484678D03*
X138178Y287456D03*
X167678D03*
X143178Y332456D03*
X172678D03*
X397178Y362456D03*
X426678D03*
X191178Y363456D03*
X220678D03*
X210178Y222456D03*
X239678D03*
X210178Y198456D03*
X239678D03*
X191178Y277456D03*
X220678D03*
G54D95*
X138023Y268456D03*
X149833D03*
X137023Y186456D03*
X148833D03*
G54D96*
X117491Y188456D03*
X130365D03*
X309365Y150456D03*
X296491D03*
X303365Y158456D03*
X290491D03*
X266365Y249456D03*
X253491D03*
X266365Y276456D03*
X253491D03*
X266365Y263456D03*
X253491D03*
X266365Y235456D03*
X253491D03*
G54D97*
X254178Y200556D03*
X261678D03*
X269178D03*
X276678D03*
X210828Y326706D03*
Y334206D03*
X219828Y308706D03*
Y316206D03*
G54D98*
X257928Y208556D03*
X272928D03*
G54D99*
X479182Y201503D03*
Y199534D03*
Y197566D03*
Y195597D03*
Y193629D03*
Y191660D03*
Y189692D03*
Y187723D03*
Y185755D03*
Y183786D03*
Y181818D03*
Y179849D03*
Y177881D03*
Y175912D03*
Y173944D03*
Y171975D03*
Y170007D03*
Y168038D03*
Y166070D03*
Y164101D03*
Y162133D03*
Y160164D03*
Y158196D03*
Y156227D03*
Y154259D03*
Y152290D03*
Y150322D03*
Y148353D03*
Y146385D03*
Y144416D03*
Y142448D03*
Y140479D03*
Y138511D03*
Y136542D03*
Y134574D03*
Y132605D03*
Y130637D03*
Y128668D03*
Y126700D03*
Y124731D03*
X240928Y176299D03*
Y174330D03*
Y172362D03*
Y170393D03*
Y168424D03*
Y166456D03*
X479112Y309442D03*
Y307474D03*
Y305505D03*
Y303537D03*
Y301568D03*
Y299600D03*
Y297631D03*
Y295663D03*
Y293694D03*
Y291726D03*
Y289757D03*
Y287789D03*
Y285820D03*
Y283852D03*
Y281883D03*
Y279915D03*
Y277946D03*
Y275978D03*
Y274009D03*
Y272041D03*
Y270072D03*
Y268104D03*
Y266135D03*
Y264167D03*
X479154Y227662D03*
Y229631D03*
Y231599D03*
Y233568D03*
Y235536D03*
Y237505D03*
G54D100*
X491741Y117605D03*
X491780Y208038D03*
X228330Y159921D03*
X228369Y183424D03*
X491710Y315978D03*
X491671Y257041D03*
X491752Y244040D03*
X491713Y220536D03*
G54D101*
X416078Y165338D03*
Y175574D03*
X409779D03*
Y165338D03*
G54D102*
X441805Y195004D03*
Y196974D03*
Y198944D03*
Y200914D03*
Y202884D03*
Y204854D03*
Y206824D03*
Y208794D03*
Y210764D03*
Y212734D03*
Y214704D03*
Y216674D03*
Y218644D03*
Y220614D03*
Y222584D03*
Y224554D03*
Y226524D03*
Y228494D03*
Y230464D03*
Y232434D03*
Y234404D03*
Y236374D03*
Y238344D03*
Y240314D03*
Y242284D03*
Y244254D03*
Y246224D03*
Y248194D03*
Y250164D03*
Y252134D03*
Y254104D03*
Y256074D03*
Y258044D03*
Y260014D03*
Y261984D03*
Y263954D03*
X356805D03*
Y261984D03*
Y260014D03*
Y258044D03*
Y256074D03*
Y254104D03*
Y252134D03*
Y250164D03*
Y248194D03*
Y246224D03*
Y244254D03*
Y242284D03*
Y240314D03*
Y238344D03*
Y236374D03*
Y234404D03*
Y232434D03*
Y230464D03*
Y228494D03*
Y226524D03*
Y224554D03*
Y222584D03*
Y220614D03*
Y218644D03*
Y216674D03*
Y214704D03*
Y212734D03*
Y210764D03*
Y208794D03*
Y206824D03*
Y204854D03*
Y202884D03*
Y200914D03*
Y198944D03*
Y196974D03*
Y195004D03*
G54D103*
X433780Y271979D03*
X431810D03*
X429840D03*
X427870D03*
X425900D03*
X423930D03*
X421960D03*
X419990D03*
X418020D03*
X416050D03*
X414080D03*
X412110D03*
X410140D03*
X408170D03*
X406200D03*
X404230D03*
X402260D03*
X400290D03*
X398320D03*
X396350D03*
X394380D03*
X392410D03*
X390440D03*
X388470D03*
X386500D03*
X384530D03*
X382560D03*
X380590D03*
X378620D03*
X376650D03*
X374680D03*
X372710D03*
X370740D03*
X368770D03*
X366800D03*
X364830D03*
Y186979D03*
X366800D03*
X368770D03*
X370740D03*
X372710D03*
X374680D03*
X376650D03*
X378620D03*
X380590D03*
X382560D03*
X384530D03*
X386500D03*
X388470D03*
X390440D03*
X392410D03*
X394380D03*
X396350D03*
X398320D03*
X400290D03*
X402260D03*
X404230D03*
X406200D03*
X408170D03*
X410140D03*
X412110D03*
X414080D03*
X416050D03*
X418020D03*
X419990D03*
X421960D03*
X423930D03*
X425900D03*
X427870D03*
X429840D03*
X431810D03*
X433780D03*
G54D104*
X123928Y143706D03*
Y173206D03*
G54D105*
X408928Y114456D03*
X418928Y298456D03*
Y318456D03*
G54D106*
X408928Y124456D03*
X418928Y114456D03*
Y124456D03*
X428928Y114456D03*
Y124456D03*
X438928Y114456D03*
Y124456D03*
X448928Y114456D03*
Y124456D03*
X418928Y308456D03*
X428928Y298456D03*
Y308456D03*
X438928Y298456D03*
Y308456D03*
X448928Y298456D03*
Y308456D03*
X458928Y298456D03*
Y308456D03*
X418928Y328456D03*
X428928Y318456D03*
Y328456D03*
X438928Y318456D03*
Y328456D03*
X448928Y318456D03*
Y328456D03*
X458928Y318456D03*
Y328456D03*
G54D107*
X118928Y226551D03*
Y238361D03*
X179928Y249361D03*
Y237551D03*
X171553Y354107D03*
Y365917D03*
X176928Y306551D03*
Y318361D03*
G54D108*
X202828Y330456D03*
X211828Y312456D03*
G54D109*
X145928Y228456D03*
G54D110*
X184928Y221206D03*
Y213706D03*
X194928Y217456D03*
Y221206D03*
Y213706D03*
X184928Y207206D03*
Y199706D03*
X194928Y203456D03*
Y207206D03*
Y199706D03*
X193928Y296206D03*
Y288706D03*
X203928Y292456D03*
Y296206D03*
Y288706D03*
G54D111*
X252928Y326893D03*
Y314019D03*
X127928Y342893D03*
Y330019D03*
X117928Y315893D03*
Y303019D03*
G54D112*
X114101Y366578D03*
Y344334D03*
G54D113*
X122566Y347582D03*
Y363330D03*
G54D114*
X115928Y120314D03*
X125928D03*
X135928D03*
G54D115*
X327913Y205283D03*
Y203314D03*
Y201346D03*
Y199377D03*
Y197409D03*
Y195440D03*
Y193472D03*
Y191503D03*
Y189535D03*
Y187566D03*
Y185598D03*
Y183629D03*
X295943D03*
Y185598D03*
Y187566D03*
Y189535D03*
Y191503D03*
Y193472D03*
Y195440D03*
Y197409D03*
Y199377D03*
Y201346D03*
Y203314D03*
Y205283D03*
X327913Y252283D03*
Y250314D03*
Y248346D03*
Y246377D03*
Y244409D03*
Y242440D03*
Y240472D03*
Y238503D03*
Y236535D03*
Y234566D03*
Y232598D03*
Y230629D03*
X295943D03*
Y232598D03*
Y234566D03*
Y236535D03*
Y238503D03*
Y240472D03*
Y242440D03*
Y244409D03*
Y246377D03*
Y248346D03*
Y250314D03*
Y252283D03*
G54D116*
X322755Y178471D03*
X320786D03*
X318818D03*
X316849D03*
X314881D03*
X312912D03*
X310944D03*
X308975D03*
X307007D03*
X305038D03*
X303070D03*
X301101D03*
Y210441D03*
X303070D03*
X305038D03*
X307007D03*
X308975D03*
X310944D03*
X312912D03*
X314881D03*
X316849D03*
X318818D03*
X320786D03*
X322755D03*
Y225471D03*
X320786D03*
X318818D03*
X316849D03*
X314881D03*
X312912D03*
X310944D03*
X308975D03*
X307007D03*
X305038D03*
X303070D03*
X301101D03*
Y257441D03*
X303070D03*
X305038D03*
X307007D03*
X308975D03*
X310944D03*
X312912D03*
X314881D03*
X316849D03*
X318818D03*
X320786D03*
X322755D03*
G54D117*
X151428Y164756D03*
X146428D03*
X141428D03*
X136428D03*
Y142156D03*
X141428D03*
X146428D03*
X151428D03*
G54D118*
X341090Y325511D03*
X343649D03*
X346208D03*
X348767D03*
Y307401D03*
X346208D03*
X343649D03*
X341090D03*
X206044Y262956D03*
X208603D03*
X211163D03*
X213722D03*
Y244846D03*
X211163D03*
X208603D03*
X206044D03*
G54D119*
X353983Y320295D03*
Y317736D03*
Y315176D03*
Y312617D03*
X335873D03*
Y315176D03*
Y317736D03*
Y320295D03*
X200828Y250063D03*
Y252622D03*
Y255181D03*
Y257740D03*
X218938D03*
Y255181D03*
Y252622D03*
Y250063D03*
G54D120*
X220628Y302956D03*
Y297956D03*
Y292956D03*
Y287956D03*
X243228D03*
Y292956D03*
Y297956D03*
Y302956D03*
X301628Y284956D03*
Y279956D03*
Y274956D03*
Y269956D03*
X324228D03*
Y274956D03*
Y279956D03*
Y284956D03*
X126628Y364956D03*
Y359956D03*
Y354956D03*
Y349956D03*
X149228D03*
Y354956D03*
Y359956D03*
Y364956D03*
X132628Y317956D03*
Y312956D03*
Y307956D03*
Y302956D03*
X155228D03*
Y307956D03*
Y312956D03*
Y317956D03*
G54D121*
X258601Y166381D03*
X265601D03*
X272601D03*
X279601D03*
X286601D03*
X293601D03*
X300601D03*
X307601D03*
X314601D03*
X321601D03*
X328601D03*
X335601D03*
X342601D03*
X349601D03*
X356601D03*
X363601D03*
X370601D03*
X377601D03*
X384601D03*
X391601D03*
Y295869D03*
X384601D03*
X377601D03*
X370601D03*
X363601D03*
X356601D03*
X349601D03*
X342601D03*
X335601D03*
X328601D03*
X321601D03*
X314601D03*
X307601D03*
X300601D03*
X293601D03*
X286601D03*
X279601D03*
X272601D03*
X265601D03*
X258601D03*
G54D122*
X236369Y150905D03*
X235188Y133188D03*
X234007Y150905D03*
X232826Y133188D03*
X231645Y150905D03*
X230464Y133188D03*
X229283Y150905D03*
X228101Y133188D03*
X226920Y150905D03*
X225739Y133188D03*
X224558Y150905D03*
X223377Y133188D03*
X222196Y150905D03*
X221015Y133188D03*
X219834Y150905D03*
X218653Y133188D03*
X217472Y150905D03*
X216290Y133188D03*
X215109Y150905D03*
X213928Y133188D03*
X212747Y150905D03*
X211566Y133188D03*
X210385Y150905D03*
X209204Y133188D03*
X208023Y150905D03*
X206842Y133188D03*
X205660Y150905D03*
X204479Y133188D03*
X203298Y150905D03*
X202117Y133188D03*
X200936Y150905D03*
X199755Y133188D03*
X198574Y150905D03*
X197393Y133188D03*
X196212Y150905D03*
X195031Y133188D03*
X193849Y150905D03*
X192668Y133188D03*
X191487Y150905D03*
G54D123*
X137267Y240562D03*
X138842D03*
X140416D03*
X141991D03*
X143566D03*
X145141D03*
X146716D03*
X148290D03*
X149865D03*
X151440D03*
X153015D03*
X154590D03*
Y216350D03*
X153015D03*
X151440D03*
X149865D03*
X148290D03*
X146716D03*
X145141D03*
X143566D03*
X141991D03*
X140416D03*
X138842D03*
X137267D03*
G54D124*
X158034Y237117D03*
Y235543D03*
Y233968D03*
Y232393D03*
Y230818D03*
Y229243D03*
Y227669D03*
Y226094D03*
Y224519D03*
Y222944D03*
Y221369D03*
Y219795D03*
X133822D03*
Y221369D03*
Y222944D03*
Y224519D03*
Y226094D03*
Y227669D03*
Y229243D03*
Y230818D03*
Y232393D03*
Y233968D03*
Y235543D03*
Y237117D03*
G54D125*
X404676Y345295D03*
Y342736D03*
Y340176D03*
Y337617D03*
X423180D03*
Y340176D03*
Y342736D03*
Y345295D03*
X463676D03*
Y342736D03*
Y340176D03*
Y337617D03*
X482180D03*
Y340176D03*
Y342736D03*
Y345295D03*
X195676Y346295D03*
Y343736D03*
Y341176D03*
Y338617D03*
X214180D03*
Y341176D03*
Y343736D03*
Y346295D03*
X0Y0D02*
M02*
